SplineFontDB: 3.0
FontName: Menlo-Regular
FullName: Menlo Regular
FamilyName: Menlo
Weight: Book
Copyright: Copyright (c) 2009 Apple Inc. Copyright (c)  2006 by Tavmjong Bah. Copyright (c) 2003 by Bitstream, Inc. All Rights Reserved.
Version: 8.0d2e1
ItalicAngle: 0
UnderlinePosition: -175
UnderlineWidth: 90
Ascent: 1556
Descent: 492
InvalidEm: 0
sfntRevision: 0x0002072b
LayerCount: 2
Layer: 0 1 "Back" 1
Layer: 1 1 "Fore" 0
XUID: [1021 234 1713769992 1495257]
FSType: 0
OS2Version: 3
OS2_WeightWidthSlopeOnly: 0
OS2_UseTypoMetrics: 1
CreationTime: 1229875379
ModificationTime: 1430717021
PfmFamily: 17
TTFWeight: 400
TTFWidth: 5
LineGap: 0
VLineGap: 0
Panose: 2 11 6 9 3 8 4 2 2 4
OS2TypoAscent: 1556
OS2TypoAOffset: 0
OS2TypoDescent: -492
OS2TypoDOffset: 0
OS2TypoLinegap: 410
OS2WinAscent: 1901
OS2WinAOffset: 0
OS2WinDescent: 483
OS2WinDOffset: 0
HheadAscent: 1901
HheadAOffset: 0
HheadDescent: -483
HheadDOffset: 0
OS2SubXSize: 1331
OS2SubYSize: 1433
OS2SubXOff: 0
OS2SubYOff: 286
OS2SupXSize: 1331
OS2SupYSize: 1433
OS2SupXOff: 0
OS2SupYOff: 983
OS2StrikeYSize: 102
OS2StrikeYPos: 530
OS2CapHeight: 1493
OS2XHeight: 1120
OS2Vendor: 'PfEd'
OS2CodePages: 600001df.ffdf0000
OS2UnicodeRanges: e60022ff.d200f9fb.02000028.00000000
DEI: 91125
MacFeat: 1 0 0
MacName: 0 0 9 "Ligatures"
MacSetting: 2
MacName: 0 0 16 "Common Ligatures"
EndMacFeatures
TtTable: prep
PUSHW_1
 8
CALL
PUSHW_2
 640
 277
PUSHB_3
 148
 93
 5
NPUSHW
 28
 277
 150
 3
 277
 128
 4
 276
 254
 3
 275
 254
 3
 274
 18
 3
 273
 254
 3
 272
 254
 3
 271
 154
 3
 270
 254
 3
 269
PUSHB_3
 235
 71
 5
NPUSHW
 37
 269
 125
 3
 268
 37
 3
 267
 50
 3
 266
 150
 3
 265
 254
 3
 264
 14
 3
 263
 254
 3
 262
 37
 3
 261
 254
 3
 260
 14
 3
 259
 37
 3
 258
 254
 3
 257
NPUSHB
 89
 254
 3
 254
 254
 3
 253
 125
 3
 252
 254
 3
 251
 254
 3
 250
 50
 3
 249
 187
 3
 248
 125
 3
 247
 246
 140
 5
 247
 254
 3
 247
 192
 4
 246
 245
 89
 5
 246
 140
 3
 246
 128
 4
 245
 244
 38
 5
 245
 89
 3
 245
 64
 4
 244
 38
 3
 243
 242
 47

StartChar: .notdef
Encoding: 65536 -1 0
Width: 1233
Flags: W
LayerCount: 2
Back
Fore
SplineSet
104 -362 m 1,0,-1
 104 1444 l 1,1,-1
 1128 1444 l 1,2,-1
 1128 -362 l 1,3,-1
 104 -362 l 1,0,-1
219 -248 m 1,4,-1
 1014 -248 l 1,5,-1
 1014 1329 l 1,6,-1
 219 1329 l 1,7,-1
 219 -248 l 1,4,-1
EndSplineSet
EndChar

StartChar: exclam
Encoding: 33 33 2
Width: 1233
Flags: W
LayerCount: 2
Back
Fore
SplineSet
546 1493 m 1,0,-1
 749 1493 l 1,1,-1
 749 838 l 1,2,-1
 728 531 l 1,3,-1
 567 531 l 1,4,-1
 546 838 l 1,5,-1
 546 1493 l 1,0,-1
516 254 m 1,6,-1
 779 254 l 1,7,-1
 779 0 l 1,8,-1
 516 0 l 1,9,-1
 516 254 l 1,6,-1
EndSplineSet
EndChar

StartChar: quotedbl
Encoding: 34 34 3
Width: 1233
Flags: W
LayerCount: 2
Back
Fore
SplineSet
945 1547 m 1,0,-1
 945 935 l 1,1,-1
 721 935 l 1,2,-1
 721 1547 l 1,3,-1
 945 1547 l 1,0,-1
412 1547 m 1,4,-1
 412 935 l 1,5,-1
 188 935 l 1,6,-1
 188 1547 l 1,7,-1
 412 1547 l 1,4,-1
EndSplineSet
EndChar

StartChar: numbersign
Encoding: 35 35 4
Width: 1233
Flags: W
LayerCount: 2
Back
Fore
SplineSet
684 1465 m 1,0,-1
 594 1111 l 1,1,-1
 839 1111 l 1,2,-1
 930 1465 l 1,3,-1
 1090 1465 l 1,4,-1
 999 1111 l 1,5,-1
 1243 1111 l 1,6,-1
 1243 958 l 1,7,-1
 962 958 l 1,8,-1
 864 565 l 1,9,-1
 1114 565 l 1,10,-1
 1114 412 l 1,11,-1
 825 412 l 1,12,-1
 721 0 l 1,13,-1
 561 0 l 1,14,-1
 666 412 l 1,15,-1
 420 412 l 1,16,-1
 315 0 l 1,17,-1
 156 0 l 1,18,-1
 260 412 l 1,19,-1
 2 412 l 1,20,-1
 2 565 l 1,21,-1
 299 565 l 1,22,-1
 397 958 l 1,23,-1
 131 958 l 1,24,-1
 131 1111 l 1,25,-1
 434 1111 l 1,26,-1
 524 1465 l 1,27,-1
 684 1465 l 1,0,-1
802 958 m 1,28,-1
 557 958 l 1,29,-1
 459 565 l 1,30,-1
 705 565 l 1,31,-1
 802 958 l 1,28,-1
EndSplineSet
EndChar

StartChar: dollar
Encoding: 36 36 5
Width: 1233
Flags: W
LayerCount: 2
Back
Fore
SplineSet
692 580 m 1,0,-1
 692 146 l 1,1,2
 802 149 802 149 864 207 c 128,-1,3
 926 265 926 265 926 365 c 0,4,5
 926 458 926 458 870 509.5 c 128,-1,6
 814 561 814 561 692 580 c 1,0,-1
592 770 m 1,7,-1
 592 1183 l 1,8,9
 488 1179 488 1179 429.5 1123 c 128,-1,10
 371 1067 371 1067 371 973 c 0,11,12
 371 887 371 887 425.5 837 c 128,-1,13
 480 787 480 787 592 770 c 1,7,-1
692 -301 m 1,14,-1
 592 -301 l 1,15,-1
 591 0 l 1,16,17
 489 5 489 5 388.5 28 c 128,-1,18
 288 51 288 51 190 92 c 1,19,-1
 190 272 l 1,20,21
 290 210 290 210 391.5 177 c 128,-1,22
 493 144 493 144 592 142 c 1,23,-1
 592 600 l 1,24,25
 392 631 392 631 291 722 c 128,-1,26
 190 813 190 813 190 963 c 0,27,28
 190 1120 190 1120 295.5 1213.5 c 128,-1,29
 401 1307 401 1307 592 1321 c 1,30,-1
 592 1556 l 1,31,-1
 692 1556 l 1,32,-1
 693 1321 l 1,33,34
 772 1316 772 1316 853 1301 c 128,-1,35
 934 1286 934 1286 1018 1260 c 1,36,-1
 1018 1087 l 1,37,38
 933 1130 933 1130 852.5 1153.5 c 128,-1,39
 772 1177 772 1177 692 1181 c 1,40,-1
 692 750 l 1,41,42
 898 719 898 719 1006 622 c 128,-1,43
 1114 525 1114 525 1114 371 c 256,44,45
 1114 217 1114 217 997.5 114 c 128,-1,46
 881 11 881 11 693 2 c 1,47,-1
 692 -301 l 1,14,-1
EndSplineSet
EndChar

StartChar: percent
Encoding: 37 37 6
Width: 1233
Flags: W
LayerCount: 2
Back
Fore
SplineSet
696 319 m 0,0,1
 696 241 696 241 748.5 188 c 128,-1,2
 801 135 801 135 879 135 c 0,3,4
 956 135 956 135 1009.5 188.5 c 128,-1,5
 1063 242 1063 242 1063 319 c 256,6,7
 1063 396 1063 396 1009 450 c 128,-1,8
 955 504 955 504 879 504 c 0,9,10
 801 504 801 504 748.5 451 c 128,-1,11
 696 398 696 398 696 319 c 0,0,1
561 319 m 0,12,13
 561 454 561 454 653 546.5 c 128,-1,14
 745 639 745 639 879 639 c 0,15,16
 943 639 943 639 1000.5 615 c 128,-1,17
 1058 591 1058 591 1104 545 c 0,18,19
 1150 498 1150 498 1175 440 c 128,-1,20
 1200 382 1200 382 1200 319 c 0,21,22
 1200 186 1200 186 1107 93 c 128,-1,23
 1014 0 1014 0 879 0 c 0,24,25
 743 0 743 0 652 91.5 c 128,-1,26
 561 183 561 183 561 319 c 0,12,13
83 440 m 1,27,-1
 39 553 l 1,28,-1
 1154 999 l 1,29,-1
 1204 886 l 1,30,-1
 83 440 l 1,27,-1
168 1112 m 0,31,32
 168 1033 168 1033 220.5 980.5 c 128,-1,33
 273 928 273 928 352 928 c 0,34,35
 429 928 429 928 483 981.5 c 128,-1,36
 537 1035 537 1035 537 1112 c 256,37,38
 537 1189 537 1189 483 1242.5 c 128,-1,39
 429 1296 429 1296 352 1296 c 256,40,41
 275 1296 275 1296 221.5 1243 c 128,-1,42
 168 1190 168 1190 168 1112 c 0,31,32
33 1112 m 256,43,44
 33 1247 33 1247 125 1339.5 c 128,-1,45
 217 1432 217 1432 352 1432 c 0,46,47
 416 1432 416 1432 474.5 1408 c 128,-1,48
 533 1384 533 1384 578 1339 c 256,49,50
 623 1294 623 1294 647.5 1235.5 c 128,-1,51
 672 1177 672 1177 672 1112 c 0,52,53
 672 978 672 978 579 885.5 c 128,-1,54
 486 793 486 793 352 793 c 0,55,56
 217 793 217 793 125 885 c 128,-1,57
 33 977 33 977 33 1112 c 256,43,44
EndSplineSet
EndChar

StartChar: ampersand
Encoding: 38 38 7
Width: 1233
Flags: W
LayerCount: 2
Back
Fore
SplineSet
547 907 m 2,0,-1
 963 348 l 1,1,2
 1002 397 1002 397 1021 472 c 128,-1,3
 1040 547 1040 547 1040 651 c 0,4,5
 1040 683 1040 683 1037 753 c 1,6,-1
 1036 760 l 1,7,-1
 1200 760 l 1,8,-1
 1200 721 l 2,9,10
 1200 560 1200 560 1163 438.5 c 128,-1,11
 1126 317 1126 317 1051 229 c 1,12,-1
 1221 0 l 1,13,-1
 1008 0 l 1,14,-1
 930 109 l 1,15,16
 847 39 847 39 754 5 c 128,-1,17
 661 -29 661 -29 555 -29 c 0,18,19
 339 -29 339 -29 198 105.5 c 128,-1,20
 57 240 57 240 57 444 c 0,21,22
 57 581 57 581 126 698 c 128,-1,23
 195 815 195 815 334 915 c 1,24,25
 284 987 284 987 260 1056 c 128,-1,26
 236 1125 236 1125 236 1196 c 0,27,28
 236 1346 236 1346 335.5 1433 c 128,-1,29
 435 1520 435 1520 608 1520 c 0,30,31
 673 1520 673 1520 738.5 1508 c 128,-1,32
 804 1496 804 1496 874 1473 c 1,33,-1
 874 1290 l 1,34,35
 815 1329 815 1329 752.5 1347.5 c 128,-1,36
 690 1366 690 1366 621 1366 c 0,37,38
 524 1366 524 1366 468 1320.5 c 128,-1,39
 412 1275 412 1275 412 1198 c 0,40,41
 412 1139 412 1139 441 1074.5 c 128,-1,42
 470 1010 470 1010 547 907 c 2,0,-1
416 803 m 1,43,44
 324 730 324 730 278.5 648.5 c 128,-1,45
 233 567 233 567 233 475 c 0,46,47
 233 324 233 324 333 224.5 c 128,-1,48
 433 125 433 125 588 125 c 0,49,50
 630 125 630 125 676 137 c 128,-1,51
 722 149 722 149 766 172 c 0,52,53
 793 187 793 187 810.5 198.5 c 128,-1,54
 828 210 828 210 844 223 c 1,55,-1
 416 803 l 1,43,44
EndSplineSet
EndChar

StartChar: quotesingle
Encoding: 39 39 8
Width: 1233
Flags: W
LayerCount: 2
Back
Fore
SplineSet
742 1558 m 1,0,-1
 742 935 l 1,1,-1
 518 935 l 1,2,-1
 518 1558 l 1,3,-1
 742 1558 l 1,0,-1
EndSplineSet
EndChar

StartChar: parenleft
Encoding: 40 40 9
Width: 1233
Flags: W
LayerCount: 2
Back
Fore
SplineSet
855 1654 m 1,0,1
 722 1426 722 1426 656.5 1199.5 c 128,-1,2
 591 973 591 973 591 743 c 0,3,4
 591 514 591 514 656.5 287 c 128,-1,5
 722 60 722 60 855 -170 c 1,6,-1
 695 -170 l 1,7,8
 544 68 544 68 470 293.5 c 128,-1,9
 396 519 396 519 396 743 c 0,10,11
 396 966 396 966 470 1192 c 128,-1,12
 544 1418 544 1418 695 1654 c 1,13,-1
 855 1654 l 1,0,1
EndSplineSet
EndChar

StartChar: parenright
Encoding: 41 41 10
Width: 1233
Flags: W
LayerCount: 2
Back
Fore
SplineSet
348 1654 m 1,0,-1
 508 1654 l 1,1,2
 659 1418 659 1418 733 1192 c 128,-1,3
 807 966 807 966 807 743 c 0,4,5
 807 518 807 518 733 292 c 128,-1,6
 659 66 659 66 508 -170 c 1,7,-1
 348 -170 l 1,8,9
 481 62 481 62 546.5 289 c 128,-1,10
 612 516 612 516 612 743 c 0,11,12
 612 971 612 971 546.5 1198 c 128,-1,13
 481 1425 481 1425 348 1654 c 1,0,-1
EndSplineSet
EndChar

StartChar: asterisk
Encoding: 42 42 11
Width: 1233
Flags: W
LayerCount: 2
Back
Fore
SplineSet
1179 871 m 1,0,-1
 735 631 l 1,1,-1
 1179 390 l 1,2,-1
 1109 268 l 1,3,-1
 691 519 l 1,4,-1
 691 53 l 1,5,-1
 548 53 l 1,6,-1
 548 519 l 1,7,-1
 130 268 l 1,8,-1
 60 390 l 1,9,-1
 505 631 l 1,10,-1
 60 871 l 1,11,-1
 130 994 l 1,12,-1
 548 743 l 1,13,-1
 548 1209 l 1,14,-1
 691 1209 l 1,15,-1
 691 743 l 1,16,-1
 1109 994 l 1,17,-1
 1179 871 l 1,0,-1
EndSplineSet
EndChar

StartChar: plus
Encoding: 43 43 12
Width: 1233
Flags: W
LayerCount: 2
Back
Fore
SplineSet
720 1178 m 1,0,-1
 720 735 l 1,1,-1
 1165 735 l 1,2,-1
 1165 566 l 1,3,-1
 720 566 l 1,4,-1
 720 123 l 1,5,-1
 552 123 l 1,6,-1
 552 566 l 1,7,-1
 108 566 l 1,8,-1
 108 735 l 1,9,-1
 552 735 l 1,10,-1
 552 1178 l 1,11,-1
 720 1178 l 1,0,-1
EndSplineSet
EndChar

StartChar: comma
Encoding: 44 44 13
Width: 1233
Flags: W
LayerCount: 2
Back
Fore
SplineSet
442 361 m 1,0,-1
 754 361 l 1,1,-1
 754 96 l 1,2,-1
 532 -335 l 1,3,-1
 332 -336 l 1,4,-1
 442 96 l 1,5,-1
 442 361 l 1,0,-1
EndSplineSet
EndChar

StartChar: hyphen
Encoding: 45 45 14
Width: 1233
Flags: W
LayerCount: 2
Back
Fore
SplineSet
102 724 m 1,0,-1
 1162 724 l 1,1,-1
 1162 555 l 1,2,-1
 102 555 l 1,3,-1
 102 724 l 1,0,-1
EndSplineSet
EndChar

StartChar: period
Encoding: 46 46 15
Width: 1233
Flags: W
LayerCount: 2
Back
Fore
SplineSet
389 404 m 1,0,-1
 741 404 l 1,1,-1
 741 0 l 1,2,-1
 389 0 l 1,3,-1
 389 404 l 1,0,-1
EndSplineSet
EndChar

StartChar: slash
Encoding: 47 47 16
Width: 1233
Flags: W
LayerCount: 2
Back
Fore
SplineSet
889 1493 m 1,0,-1
 1079 1493 l 1,1,-1
 293 -190 l 1,2,-1
 102 -190 l 1,3,-1
 889 1493 l 1,0,-1
EndSplineSet
EndChar

StartChar: zero
Encoding: 48 48 17
Width: 1233
Flags: W
LayerCount: 2
Back
Fore
SplineSet
616 1515 m 256,0,1
 855 1515 855 1515 977.5 1320 c 128,-1,2
 1100 1125 1100 1125 1100 743 c 256,3,4
 1100 361 1100 361 977.5 166 c 128,-1,5
 855 -29 855 -29 616 -29 c 256,6,7
 377 -29 377 -29 255 166 c 128,-1,8
 133 361 133 361 133 743 c 256,9,10
 133 1125 133 1125 255 1320 c 128,-1,11
 377 1515 377 1515 616 1515 c 256,0,1
616 131 m 0,12,13
 758 131 758 131 827.5 282 c 128,-1,14
 897 433 897 433 897 743 c 0,15,16
 897 908 897 908 877 1041 c 1,17,-1
 401 296 l 1,18,19
 476 131 476 131 616 131 c 0,12,13
616 1355 m 0,20,21
 475 1355 475 1355 405.5 1204 c 128,-1,22
 336 1053 336 1053 336 743 c 0,23,24
 336 602 336 602 355 479 c 1,25,-1
 821 1222 l 1,26,27
 745 1355 745 1355 616 1355 c 0,20,21
EndSplineSet
EndChar

StartChar: one
Encoding: 49 49 18
Width: 1233
Flags: W
LayerCount: 2
Back
Fore
SplineSet
270 169 m 1,0,-1
 584 169 l 1,1,-1
 584 1297 l 1,2,-1
 208 1116 l 1,3,-1
 208 1310 l 1,4,-1
 582 1488 l 1,5,-1
 784 1488 l 1,6,-1
 784 169 l 1,7,-1
 1094 169 l 1,8,-1
 1094 0 l 1,9,-1
 270 0 l 1,10,-1
 270 169 l 1,0,-1
EndSplineSet
EndChar

StartChar: two
Encoding: 50 50 19
Width: 1233
Flags: W
LayerCount: 2
Back
Fore
SplineSet
373 170 m 1,0,-1
 1059 170 l 1,1,-1
 1059 0 l 1,2,-1
 152 0 l 1,3,-1
 152 170 l 1,4,5
 339 367 339 367 479 518 c 128,-1,6
 619 669 619 669 672 731 c 0,7,8
 772 853 772 853 807 928.5 c 128,-1,9
 842 1004 842 1004 842 1083 c 0,10,11
 842 1208 842 1208 768.5 1279 c 128,-1,12
 695 1350 695 1350 567 1350 c 0,13,14
 476 1350 476 1350 376 1317 c 128,-1,15
 276 1284 276 1284 164 1217 c 1,16,-1
 164 1421 l 1,17,18
 267 1470 267 1470 366.5 1495 c 128,-1,19
 466 1520 466 1520 563 1520 c 0,20,21
 782 1520 782 1520 915.5 1403.5 c 128,-1,22
 1049 1287 1049 1287 1049 1098 c 0,23,24
 1049 1002 1049 1002 1004.5 906 c 128,-1,25
 960 810 960 810 860 694 c 0,26,27
 804 629 804 629 697.5 514 c 128,-1,28
 591 399 591 399 373 170 c 1,0,-1
EndSplineSet
EndChar

StartChar: three
Encoding: 51 51 20
Width: 1233
Flags: W
LayerCount: 2
Back
Fore
SplineSet
776 799 m 1,0,1
 923 760 923 760 1001 660.5 c 128,-1,2
 1079 561 1079 561 1079 412 c 0,3,4
 1079 206 1079 206 940.5 88.5 c 128,-1,5
 802 -29 802 -29 557 -29 c 0,6,7
 454 -29 454 -29 347 -10 c 128,-1,8
 240 9 240 9 137 45 c 1,9,-1
 137 246 l 1,10,11
 239 193 239 193 338 167 c 128,-1,12
 437 141 437 141 535 141 c 0,13,14
 701 141 701 141 790 216 c 128,-1,15
 879 291 879 291 879 432 c 0,16,17
 879 562 879 562 790 638.5 c 128,-1,18
 701 715 701 715 549 715 c 2,19,-1
 395 715 l 1,20,-1
 395 881 l 1,21,-1
 549 881 l 2,22,23
 688 881 688 881 766 942 c 128,-1,24
 844 1003 844 1003 844 1112 c 0,25,26
 844 1227 844 1227 771.5 1288.5 c 128,-1,27
 699 1350 699 1350 565 1350 c 0,28,29
 476 1350 476 1350 381 1330 c 128,-1,30
 286 1310 286 1310 182 1270 c 1,31,-1
 182 1456 l 1,32,33
 303 1488 303 1488 397.5 1504 c 128,-1,34
 492 1520 492 1520 565 1520 c 0,35,36
 783 1520 783 1520 913.5 1410.5 c 128,-1,37
 1044 1301 1044 1301 1044 1120 c 0,38,39
 1044 997 1044 997 975.5 915 c 128,-1,40
 907 833 907 833 776 799 c 1,0,1
EndSplineSet
EndChar

StartChar: four
Encoding: 52 52 21
Width: 1233
Flags: W
LayerCount: 2
Back
Fore
SplineSet
735 1309 m 1,0,-1
 264 520 l 1,1,-1
 735 520 l 1,2,-1
 735 1309 l 1,0,-1
702 1493 m 1,3,-1
 936 1493 l 1,4,-1
 936 520 l 1,5,-1
 1135 520 l 1,6,-1
 1135 356 l 1,7,-1
 936 356 l 1,8,-1
 936 0 l 1,9,-1
 735 0 l 1,10,-1
 735 356 l 1,11,-1
 102 356 l 1,12,-1
 102 547 l 1,13,-1
 702 1493 l 1,3,-1
EndSplineSet
EndChar

StartChar: five
Encoding: 53 53 22
Width: 1233
Flags: W
LayerCount: 2
Back
Fore
SplineSet
207 1493 m 1,0,-1
 963 1493 l 1,1,-1
 963 1323 l 1,2,-1
 391 1323 l 1,3,-1
 391 956 l 1,4,5
 434 972 434 972 477.5 979.5 c 128,-1,6
 521 987 521 987 565 987 c 0,7,8
 797 987 797 987 933 850 c 128,-1,9
 1069 713 1069 713 1069 479 c 0,10,11
 1069 243 1069 243 926.5 107 c 128,-1,12
 784 -29 784 -29 537 -29 c 0,13,14
 418 -29 418 -29 319.5 -13 c 128,-1,15
 221 3 221 3 143 35 c 1,16,-1
 143 240 l 1,17,18
 235 190 235 190 328 165.5 c 128,-1,19
 421 141 421 141 518 141 c 0,20,21
 685 141 685 141 775.5 229 c 128,-1,22
 866 317 866 317 866 479 c 0,23,24
 866 639 866 639 772.5 728 c 128,-1,25
 679 817 679 817 512 817 c 0,26,27
 431 817 431 817 354 798.5 c 128,-1,28
 277 780 277 780 207 743 c 1,29,-1
 207 1493 l 1,0,-1
EndSplineSet
EndChar

StartChar: six
Encoding: 54 54 23
Width: 1233
Flags: W
LayerCount: 2
Back
Fore
SplineSet
991 1460 m 1,0,-1
 991 1274 l 1,1,2
 928 1311 928 1311 857 1330.5 c 128,-1,3
 786 1350 786 1350 709 1350 c 0,4,5
 517 1350 517 1350 418 1205.5 c 128,-1,6
 319 1061 319 1061 319 780 c 1,7,8
 367 880 367 880 452 933.5 c 128,-1,9
 537 987 537 987 647 987 c 0,10,11
 863 987 863 987 981.5 854.5 c 128,-1,12
 1100 722 1100 722 1100 479 c 0,13,14
 1100 237 1100 237 978 104 c 128,-1,15
 856 -29 856 -29 635 -29 c 0,16,17
 375 -29 375 -29 254 157.5 c 128,-1,18
 133 344 133 344 133 745 c 0,19,20
 133 1123 133 1123 278.5 1321.5 c 128,-1,21
 424 1520 424 1520 700 1520 c 0,22,23
 774 1520 774 1520 848 1504.5 c 128,-1,24
 922 1489 922 1489 991 1460 c 1,0,-1
631 829 m 0,25,26
 502 829 502 829 428 736 c 128,-1,27
 354 643 354 643 354 479 c 256,28,29
 354 315 354 315 428 222 c 128,-1,30
 502 129 502 129 631 129 c 0,31,32
 765 129 765 129 833 217.5 c 128,-1,33
 901 306 901 306 901 479 c 0,34,35
 901 653 901 653 833 741 c 128,-1,36
 765 829 765 829 631 829 c 0,25,26
EndSplineSet
EndChar

StartChar: seven
Encoding: 55 55 24
Width: 1233
Flags: W
LayerCount: 2
Back
Fore
SplineSet
139 1493 m 1,0,-1
 1079 1493 l 1,1,-1
 1079 1407 l 1,2,-1
 545 0 l 1,3,-1
 334 0 l 1,4,-1
 854 1323 l 1,5,-1
 139 1323 l 1,6,-1
 139 1493 l 1,0,-1
EndSplineSet
EndChar

StartChar: eight
Encoding: 56 56 25
Width: 1233
Flags: W
LayerCount: 2
Back
Fore
SplineSet
616 709 m 0,0,1
 481 709 481 709 407.5 633.5 c 128,-1,2
 334 558 334 558 334 420 c 256,3,4
 334 282 334 282 408.5 205.5 c 128,-1,5
 483 129 483 129 616 129 c 0,6,7
 752 129 752 129 825.5 204.5 c 128,-1,8
 899 280 899 280 899 420 c 0,9,10
 899 557 899 557 824.5 633 c 128,-1,11
 750 709 750 709 616 709 c 0,0,1
440 793 m 1,12,13
 311 826 311 826 238.5 916 c 128,-1,14
 166 1006 166 1006 166 1133 c 0,15,16
 166 1311 166 1311 287 1415.5 c 128,-1,17
 408 1520 408 1520 616 1520 c 0,18,19
 825 1520 825 1520 946 1415.5 c 128,-1,20
 1067 1311 1067 1311 1067 1133 c 0,21,22
 1067 1006 1067 1006 994.5 916 c 128,-1,23
 922 826 922 826 793 793 c 1,24,25
 943 760 943 760 1022.5 660 c 128,-1,26
 1102 560 1102 560 1102 401 c 0,27,28
 1102 199 1102 199 973 85 c 128,-1,29
 844 -29 844 -29 616 -29 c 256,30,31
 388 -29 388 -29 259.5 84.5 c 128,-1,32
 131 198 131 198 131 399 c 0,33,34
 131 559 131 559 210.5 659.5 c 128,-1,35
 290 760 290 760 440 793 c 1,12,13
367 1114 m 0,36,37
 367 994 367 994 431 931 c 128,-1,38
 495 868 495 868 616 868 c 0,39,40
 738 868 738 868 802 931 c 128,-1,41
 866 994 866 994 866 1114 c 0,42,43
 866 1236 866 1236 802.5 1300 c 128,-1,44
 739 1364 739 1364 616 1364 c 0,45,46
 495 1364 495 1364 431 1299.5 c 128,-1,47
 367 1235 367 1235 367 1114 c 0,36,37
EndSplineSet
EndChar

StartChar: nine
Encoding: 57 57 26
Width: 1233
Flags: W
LayerCount: 2
Back
Fore
SplineSet
596 662 m 0,0,1
 725 662 725 662 798.5 755 c 128,-1,2
 872 848 872 848 872 1012 c 256,3,4
 872 1176 872 1176 798.5 1269 c 128,-1,5
 725 1362 725 1362 596 1362 c 0,6,7
 462 1362 462 1362 394 1273.5 c 128,-1,8
 326 1185 326 1185 326 1012 c 0,9,10
 326 838 326 838 393.5 750 c 128,-1,11
 461 662 461 662 596 662 c 0,0,1
236 31 m 1,12,-1
 236 217 l 1,13,14
 299 180 299 180 370 160.5 c 128,-1,15
 441 141 441 141 518 141 c 0,16,17
 710 141 710 141 808.5 285.5 c 128,-1,18
 907 430 907 430 907 711 c 1,19,20
 860 611 860 611 775 557.5 c 128,-1,21
 690 504 690 504 580 504 c 0,22,23
 364 504 364 504 245.5 637 c 128,-1,24
 127 770 127 770 127 1014 c 0,25,26
 127 1255 127 1255 248.5 1387.5 c 128,-1,27
 370 1520 370 1520 592 1520 c 0,28,29
 852 1520 852 1520 973 1333 c 128,-1,30
 1094 1146 1094 1146 1094 745 c 0,31,32
 1094 368 1094 368 948.5 169.5 c 128,-1,33
 803 -29 803 -29 526 -29 c 0,34,35
 453 -29 453 -29 379 -13.5 c 128,-1,36
 305 2 305 2 236 31 c 1,12,-1
EndSplineSet
EndChar

StartChar: colon
Encoding: 58 58 27
Width: 1233
Flags: W
LayerCount: 2
Back
Fore
SplineSet
429 1119 m 1,0,-1
 741 1119 l 1,1,-1
 741 758 l 1,2,-1
 429 758 l 1,3,-1
 429 1119 l 1,0,-1
429 364 m 1,4,-1
 741 364 l 1,5,-1
 741 0 l 1,6,-1
 429 0 l 1,7,-1
 429 364 l 1,4,-1
EndSplineSet
EndChar

StartChar: semicolon
Encoding: 59 59 28
Width: 1233
Flags: W
LayerCount: 2
Back
Fore
SplineSet
442 361 m 1,0,-1
 754 361 l 1,1,-1
 754 96 l 1,2,-1
 557 -286 l 1,3,-1
 343 -286 l 1,4,-1
 442 96 l 1,5,-1
 442 361 l 1,0,-1
429 1119 m 1,6,-1
 741 1119 l 1,7,-1
 741 758 l 1,8,-1
 429 758 l 1,9,-1
 429 1119 l 1,6,-1
EndSplineSet
EndChar

StartChar: less
Encoding: 60 60 29
Width: 1233
Flags: W
LayerCount: 2
Back
Fore
SplineSet
1145 961 m 1,0,-1
 295 641 l 1,1,-1
 1145 324 l 1,2,-1
 1145 141 l 1,3,-1
 88 559 l 1,4,-1
 88 725 l 1,5,-1
 1145 1143 l 1,6,-1
 1145 961 l 1,0,-1
EndSplineSet
EndChar

StartChar: equal
Encoding: 61 61 30
Width: 1233
Flags: W
LayerCount: 2
Back
Fore
SplineSet
88 500 m 1,0,-1
 1145 500 l 1,1,-1
 1145 331 l 1,2,-1
 88 331 l 1,3,-1
 88 500 l 1,0,-1
88 971 m 1,4,-1
 1145 971 l 1,5,-1
 1145 802 l 1,6,-1
 88 802 l 1,7,-1
 88 971 l 1,4,-1
EndSplineSet
EndChar

StartChar: greater
Encoding: 62 62 31
Width: 1233
Flags: W
LayerCount: 2
Back
Fore
SplineSet
88 961 m 1,0,-1
 88 1143 l 1,1,-1
 1145 725 l 1,2,-1
 1145 559 l 1,3,-1
 88 141 l 1,4,-1
 88 324 l 1,5,-1
 938 641 l 1,6,-1
 88 961 l 1,0,-1
EndSplineSet
EndChar

StartChar: question
Encoding: 63 63 32
Width: 1233
Flags: W
LayerCount: 2
Back
Fore
SplineSet
684 401 m 1,0,-1
 494 401 l 1,1,-1
 494 555 l 2,2,3
 494 653 494 653 524.5 721.5 c 128,-1,4
 555 790 555 790 639 872 c 2,5,-1
 729 961 l 2,6,7
 791 1020 791 1020 814.5 1064 c 128,-1,8
 838 1108 838 1108 838 1157 c 0,9,10
 838 1246 838 1246 772.5 1301 c 128,-1,11
 707 1356 707 1356 598 1356 c 0,12,13
 520 1356 520 1356 431 1321.5 c 128,-1,14
 342 1287 342 1287 244 1219 c 1,15,-1
 244 1407 l 1,16,17
 338 1464 338 1464 433.5 1492 c 128,-1,18
 529 1520 529 1520 633 1520 c 0,19,20
 819 1520 819 1520 929.5 1424 c 128,-1,21
 1040 1328 1040 1328 1040 1167 c 0,22,23
 1040 1091 1040 1091 1006.5 1025.5 c 128,-1,24
 973 960 973 960 879 868 c 2,25,-1
 791 782 l 2,26,27
 722 716 722 716 703 674 c 128,-1,28
 684 632 684 632 684 571 c 2,29,-1
 684 524 l 1,30,-1
 684 401 l 1,0,-1
487 254 m 1,31,-1
 690 254 l 1,32,-1
 690 0 l 1,33,-1
 487 0 l 1,34,-1
 487 254 l 1,31,-1
EndSplineSet
EndChar

StartChar: at
Encoding: 64 64 33
Width: 1233
Flags: W
LayerCount: 2
Back
Fore
SplineSet
1038 545 m 0,0,1
 1038 674 1038 674 974 751.5 c 128,-1,2
 910 829 910 829 803 829 c 256,3,4
 696 829 696 829 631.5 751.5 c 128,-1,5
 567 674 567 674 567 545 c 0,6,7
 567 415 567 415 631.5 337.5 c 128,-1,8
 696 260 696 260 803 260 c 256,9,10
 910 260 910 260 974 337.5 c 128,-1,11
 1038 415 1038 415 1038 545 c 0,0,1
1178 135 m 1,12,-1
 1034 135 l 1,13,-1
 1034 246 l 1,14,15
 997 183 997 183 931.5 149 c 128,-1,16
 866 115 866 115 784 115 c 0,17,18
 623 115 623 115 517.5 236 c 128,-1,19
 412 357 412 357 412 545 c 256,20,21
 412 733 412 733 517.5 854 c 128,-1,22
 623 975 623 975 784 975 c 0,23,24
 864 975 864 975 931 940 c 128,-1,25
 998 905 998 905 1034 844 c 1,26,-1
 1034 907 l 2,27,28
 1034 1063 1034 1063 946 1158 c 128,-1,29
 858 1253 858 1253 713 1253 c 0,30,31
 467 1253 467 1253 321.5 1061.5 c 128,-1,32
 176 870 176 870 176 543 c 0,33,34
 176 214 176 214 341 19 c 128,-1,35
 506 -176 506 -176 793 -177 c 1,36,37
 847 -185 847 -185 945 -185 c 128,-1,38
 1043 -185 1043 -185 1120 -181 c 1,39,-1
 1120 -325 l 1,40,41
 1055 -330 1055 -330 952.5 -330.5 c 128,-1,42
 850 -331 850 -331 793 -322 c 1,43,44
 446 -319 446 -319 236.5 -86 c 128,-1,45
 27 147 27 147 27 543 c 0,46,47
 27 933 27 933 215 1164 c 128,-1,48
 403 1395 403 1395 719 1395 c 0,49,50
 928 1395 928 1395 1053 1262 c 128,-1,51
 1178 1129 1178 1129 1178 905 c 2,52,-1
 1178 135 l 1,12,-1
EndSplineSet
EndChar

StartChar: A
Encoding: 65 65 34
Width: 1233
Flags: W
LayerCount: 2
Back
Fore
SplineSet
616 1315 m 1,0,-1
 403 551 l 1,1,-1
 829 551 l 1,2,-1
 616 1315 l 1,0,-1
494 1493 m 1,3,-1
 739 1493 l 1,4,-1
 1196 0 l 1,5,-1
 987 0 l 1,6,-1
 877 389 l 1,7,-1
 354 389 l 1,8,-1
 246 0 l 1,9,-1
 37 0 l 1,10,-1
 494 1493 l 1,3,-1
EndSplineSet
EndChar

StartChar: B
Encoding: 66 66 35
Width: 1233
Flags: W
LayerCount: 2
Back
Fore
SplineSet
369 753 m 1,0,-1
 369 166 l 1,1,-1
 608 166 l 2,2,3
 784 166 784 166 859 227.5 c 128,-1,4
 934 289 934 289 934 430 c 0,5,6
 934 616 934 616 855 684.5 c 128,-1,7
 776 753 776 753 608 753 c 2,8,-1
 369 753 l 1,0,-1
369 1327 m 1,9,-1
 369 917 l 1,10,-1
 604 917 l 2,11,12
 750 917 750 917 815.5 973 c 128,-1,13
 881 1029 881 1029 881 1114 c 0,14,15
 881 1227 881 1227 816.5 1277 c 128,-1,16
 752 1327 752 1327 604 1327 c 2,17,-1
 369 1327 l 1,9,-1
166 1493 m 1,18,-1
 608 1493 l 2,19,20
 837 1493 837 1493 961 1394 c 128,-1,21
 1085 1295 1085 1295 1085 1114 c 0,22,23
 1085 1017 1085 1017 1019.5 938 c 128,-1,24
 954 859 954 859 823 839 c 1,25,26
 970 817 970 817 1053.5 713.5 c 128,-1,27
 1137 610 1137 610 1137 410 c 0,28,29
 1137 207 1137 207 1004 103.5 c 128,-1,30
 871 0 871 0 608 0 c 2,31,-1
 166 0 l 1,32,-1
 166 1493 l 1,18,-1
EndSplineSet
EndChar

StartChar: C
Encoding: 67 67 36
Width: 1233
Flags: W
LayerCount: 2
Back
Fore
SplineSet
1073 53 m 1,0,1
 996 12 996 12 915 -8.5 c 128,-1,2
 834 -29 834 -29 743 -29 c 0,3,4
 456 -29 456 -29 297.5 174 c 128,-1,5
 139 377 139 377 139 745 c 0,6,7
 139 1111 139 1111 298.5 1315.5 c 128,-1,8
 458 1520 458 1520 743 1520 c 0,9,10
 834 1520 834 1520 915 1499.5 c 128,-1,11
 996 1479 996 1479 1073 1438 c 1,12,-1
 1073 1231 l 1,13,14
 999 1292 999 1292 914 1324 c 128,-1,15
 829 1356 829 1356 743 1356 c 0,16,17
 546 1356 546 1356 448 1204 c 128,-1,18
 350 1052 350 1052 350 745 c 0,19,20
 350 439 350 439 448 287 c 128,-1,21
 546 135 546 135 743 135 c 0,22,23
 831 135 831 135 915.5 167 c 128,-1,24
 1000 199 1000 199 1073 260 c 1,25,-1
 1073 53 l 1,0,1
EndSplineSet
EndChar

StartChar: D
Encoding: 68 68 37
Width: 1233
Flags: W
LayerCount: 2
Back
Fore
SplineSet
436 166 m 2,0,1
 691 166 691 166 792 291.5 c 128,-1,2
 893 417 893 417 893 745 c 0,3,4
 893 1076 893 1076 792.5 1201.5 c 128,-1,5
 692 1327 692 1327 436 1327 c 2,6,-1
 340 1327 l 1,7,-1
 340 166 l 1,8,-1
 436 166 l 2,0,1
440 1493 m 2,9,10
 782 1493 782 1493 944 1311 c 128,-1,11
 1106 1129 1106 1129 1106 745 c 0,12,13
 1106 363 1106 363 944 181.5 c 128,-1,14
 782 0 782 0 440 0 c 2,15,-1
 137 0 l 1,16,-1
 137 1493 l 1,17,-1
 440 1493 l 2,9,10
EndSplineSet
EndChar

StartChar: E
Encoding: 69 69 38
Width: 1233
Flags: W
LayerCount: 2
Back
Fore
SplineSet
197 1493 m 1,0,-1
 1083 1493 l 1,1,-1
 1083 1323 l 1,2,-1
 399 1323 l 1,3,-1
 399 921 l 1,4,-1
 1053 921 l 1,5,-1
 1053 751 l 1,6,-1
 399 751 l 1,7,-1
 399 170 l 1,8,-1
 1102 170 l 1,9,-1
 1102 0 l 1,10,-1
 197 0 l 1,11,-1
 197 1493 l 1,0,-1
EndSplineSet
EndChar

StartChar: F
Encoding: 70 70 39
Width: 1233
Flags: W
LayerCount: 2
Back
Fore
SplineSet
233 1493 m 1,0,-1
 1112 1493 l 1,1,-1
 1112 1323 l 1,2,-1
 436 1323 l 1,3,-1
 436 923 l 1,4,-1
 1049 923 l 1,5,-1
 1049 753 l 1,6,-1
 436 753 l 1,7,-1
 436 0 l 1,8,-1
 233 0 l 1,9,-1
 233 1493 l 1,0,-1
EndSplineSet
EndChar

StartChar: G
Encoding: 71 71 40
Width: 1233
Flags: W
LayerCount: 2
Back
Fore
SplineSet
1104 123 m 1,0,1
 1023 48 1023 48 921.5 9.5 c 128,-1,2
 820 -29 820 -29 702 -29 c 0,3,4
 418 -29 418 -29 260 174.5 c 128,-1,5
 102 378 102 378 102 745 c 0,6,7
 102 1111 102 1111 262 1315.5 c 128,-1,8
 422 1520 422 1520 707 1520 c 0,9,10
 801 1520 801 1520 887 1493.5 c 128,-1,11
 973 1467 973 1467 1053 1413 c 1,12,-1
 1053 1206 l 1,13,14
 972 1283 972 1283 887 1319.5 c 128,-1,15
 802 1356 802 1356 707 1356 c 0,16,17
 510 1356 510 1356 411.5 1203.5 c 128,-1,18
 313 1051 313 1051 313 745 c 0,19,20
 313 434 313 434 408.5 284.5 c 128,-1,21
 504 135 504 135 702 135 c 0,22,23
 769 135 769 135 819.5 150.5 c 128,-1,24
 870 166 870 166 911 199 c 1,25,-1
 911 600 l 1,26,-1
 694 600 l 1,27,-1
 694 766 l 1,28,-1
 1104 766 l 1,29,-1
 1104 123 l 1,0,1
EndSplineSet
EndChar

StartChar: H
Encoding: 72 72 41
Width: 1233
Flags: W
LayerCount: 2
Back
Fore
SplineSet
137 1493 m 1,0,-1
 340 1493 l 1,1,-1
 340 921 l 1,2,-1
 893 921 l 1,3,-1
 893 1493 l 1,4,-1
 1096 1493 l 1,5,-1
 1096 0 l 1,6,-1
 893 0 l 1,7,-1
 893 751 l 1,8,-1
 340 751 l 1,9,-1
 340 0 l 1,10,-1
 137 0 l 1,11,-1
 137 1493 l 1,0,-1
EndSplineSet
EndChar

StartChar: I
Encoding: 73 73 42
Width: 1233
Flags: W
LayerCount: 2
Back
Fore
SplineSet
201 1493 m 1,0,-1
 1030 1493 l 1,1,-1
 1030 1323 l 1,2,-1
 717 1323 l 1,3,-1
 717 170 l 1,4,-1
 1030 170 l 1,5,-1
 1030 0 l 1,6,-1
 201 0 l 1,7,-1
 201 170 l 1,8,-1
 514 170 l 1,9,-1
 514 1323 l 1,10,-1
 201 1323 l 1,11,-1
 201 1493 l 1,0,-1
EndSplineSet
EndChar

StartChar: J
Encoding: 74 74 43
Width: 1233
Flags: W
LayerCount: 2
Back
Fore
SplineSet
109 61 m 1,0,-1
 109 297 l 1,1,2
 200 216 200 216 297 175.5 c 128,-1,3
 394 135 394 135 498 135 c 0,4,5
 641 135 641 135 697.5 209.5 c 128,-1,6
 754 284 754 284 754 487 c 2,7,-1
 754 1323 l 1,8,-1
 373 1323 l 1,9,-1
 373 1493 l 1,10,-1
 956 1493 l 1,11,-1
 956 487 l 2,12,13
 956 205 956 205 850.5 88 c 128,-1,14
 745 -29 745 -29 498 -29 c 0,15,16
 402 -29 402 -29 307 -7 c 128,-1,17
 212 15 212 15 109 61 c 1,0,-1
EndSplineSet
EndChar

StartChar: K
Encoding: 75 75 44
Width: 1233
Flags: W
LayerCount: 2
Back
Fore
SplineSet
137 1493 m 1,0,-1
 340 1493 l 1,1,-1
 340 829 l 1,2,-1
 971 1493 l 1,3,-1
 1208 1493 l 1,4,-1
 627 883 l 1,5,-1
 1225 0 l 1,6,-1
 981 0 l 1,7,-1
 494 748 l 1,8,-1
 340 584 l 1,9,-1
 340 0 l 1,10,-1
 137 0 l 1,11,-1
 137 1493 l 1,0,-1
EndSplineSet
EndChar

StartChar: L
Encoding: 76 76 45
Width: 1233
Flags: W
LayerCount: 2
Back
Fore
SplineSet
215 1493 m 1,0,-1
 418 1493 l 1,1,-1
 418 170 l 1,2,-1
 1139 170 l 1,3,-1
 1139 0 l 1,4,-1
 215 0 l 1,5,-1
 215 1493 l 1,0,-1
EndSplineSet
EndChar

StartChar: M
Encoding: 77 77 46
Width: 1233
Flags: W
LayerCount: 2
Back
Fore
SplineSet
36 1488 m 1,0,-1
 306 1488 l 1,1,-1
 564 730 l 1,2,-1
 824 1488 l 1,3,-1
 1095 1488 l 1,4,-1
 1095 0 l 1,5,-1
 908 0 l 1,6,-1
 908 1315 l 1,7,-1
 642 531 l 1,8,-1
 489 531 l 1,9,-1
 222 1315 l 1,10,-1
 222 0 l 1,11,-1
 36 0 l 1,12,-1
 36 1488 l 1,0,-1
EndSplineSet
EndChar

StartChar: N
Encoding: 78 78 47
Width: 1233
Flags: W
LayerCount: 2
Back
Fore
SplineSet
19 1488 m 1,0,-1
 295 1488 l 1,1,-1
 879 263 l 1,2,-1
 879 1488 l 1,3,-1
 1094 1488 l 1,4,-1
 1094 0 l 1,5,-1
 818 0 l 1,6,-1
 234 1225 l 1,7,-1
 234 0 l 1,8,-1
 19 0 l 1,9,-1
 19 1488 l 1,0,-1
EndSplineSet
EndChar

StartChar: O
Encoding: 79 79 48
Width: 1233
Flags: W
LayerCount: 2
Back
Fore
SplineSet
905 745 m 256,0,1
 905 1074 905 1074 837.5 1215 c 128,-1,2
 770 1356 770 1356 616 1356 c 0,3,4
 463 1356 463 1356 395.5 1215 c 128,-1,5
 328 1074 328 1074 328 745 c 0,6,7
 328 417 328 417 395.5 276 c 128,-1,8
 463 135 463 135 616 135 c 0,9,10
 770 135 770 135 837.5 275.5 c 128,-1,11
 905 416 905 416 905 745 c 256,0,1
1116 745 m 0,12,13
 1116 355 1116 355 992.5 163 c 128,-1,14
 869 -29 869 -29 616 -29 c 256,15,16
 363 -29 363 -29 240 162 c 128,-1,17
 117 353 117 353 117 745 c 0,18,19
 117 1136 117 1136 240.5 1328 c 128,-1,20
 364 1520 364 1520 616 1520 c 0,21,22
 869 1520 869 1520 992.5 1328 c 128,-1,23
 1116 1136 1116 1136 1116 745 c 0,12,13
EndSplineSet
EndChar

StartChar: P
Encoding: 80 80 49
Width: 1233
Flags: W
LayerCount: 2
Back
Fore
SplineSet
399 1327 m 1,0,-1
 399 766 l 1,1,-1
 633 766 l 2,2,3
 773 766 773 766 851.5 840 c 128,-1,4
 930 914 930 914 930 1047 c 256,5,6
 930 1180 930 1180 852 1253.5 c 128,-1,7
 774 1327 774 1327 633 1327 c 2,8,-1
 399 1327 l 1,0,-1
197 1493 m 1,9,-1
 633 1493 l 2,10,11
 883 1493 883 1493 1012 1379.5 c 128,-1,12
 1141 1266 1141 1266 1141 1047 c 0,13,14
 1141 826 1141 826 1012.5 713 c 128,-1,15
 884 600 884 600 633 600 c 2,16,-1
 399 600 l 1,17,-1
 399 0 l 1,18,-1
 197 0 l 1,19,-1
 197 1493 l 1,9,-1
EndSplineSet
EndChar

StartChar: Q
Encoding: 81 81 50
Width: 1233
Flags: W
LayerCount: 2
Back
Fore
SplineSet
655 -27 m 1,0,1
 648 -27 648 -27 635 -28 c 128,-1,2
 622 -29 622 -29 614 -29 c 0,3,4
 364 -29 364 -29 240.5 163 c 128,-1,5
 117 355 117 355 117 745 c 0,6,7
 117 1136 117 1136 240.5 1328 c 128,-1,8
 364 1520 364 1520 616 1520 c 0,9,10
 869 1520 869 1520 992.5 1328 c 128,-1,11
 1116 1136 1116 1136 1116 745 c 0,12,13
 1116 451 1116 451 1047.5 271.5 c 128,-1,14
 979 92 979 92 840 20 c 1,15,-1
 1040 -170 l 1,16,-1
 889 -270 l 1,17,-1
 655 -27 l 1,0,1
905 745 m 256,18,19
 905 1074 905 1074 837.5 1215 c 128,-1,20
 770 1356 770 1356 616 1356 c 0,21,22
 463 1356 463 1356 395.5 1215 c 128,-1,23
 328 1074 328 1074 328 745 c 0,24,25
 328 417 328 417 395.5 276 c 128,-1,26
 463 135 463 135 616 135 c 0,27,28
 770 135 770 135 837.5 275.5 c 128,-1,29
 905 416 905 416 905 745 c 256,18,19
EndSplineSet
EndChar

StartChar: R
Encoding: 82 82 51
Width: 1233
Flags: W
LayerCount: 2
Back
Fore
SplineSet
760 705 m 1,0,1
 838 685 838 685 893 629.5 c 128,-1,2
 948 574 948 574 1030 408 c 2,3,-1
 1233 0 l 1,4,-1
 1016 0 l 1,5,-1
 838 377 l 2,6,7
 761 538 761 538 699.5 584.5 c 128,-1,8
 638 631 638 631 539 631 c 2,9,-1
 346 631 l 1,10,-1
 346 0 l 1,11,-1
 143 0 l 1,12,-1
 143 1493 l 1,13,-1
 559 1493 l 2,14,15
 805 1493 805 1493 936 1382 c 128,-1,16
 1067 1271 1067 1271 1067 1061 c 0,17,18
 1067 913 1067 913 986.5 819.5 c 128,-1,19
 906 726 906 726 760 705 c 1,0,1
346 1327 m 1,20,-1
 346 797 l 1,21,-1
 567 797 l 2,22,23
 712 797 712 797 783 862 c 128,-1,24
 854 927 854 927 854 1061 c 0,25,26
 854 1190 854 1190 778.5 1258.5 c 128,-1,27
 703 1327 703 1327 559 1327 c 2,28,-1
 346 1327 l 1,20,-1
EndSplineSet
EndChar

StartChar: S
Encoding: 83 83 52
Width: 1233
Flags: W
LayerCount: 2
Back
Fore
SplineSet
1012 1442 m 1,0,-1
 1012 1237 l 1,1,2
 920 1296 920 1296 827.5 1326 c 128,-1,3
 735 1356 735 1356 641 1356 c 0,4,5
 498 1356 498 1356 415 1289.5 c 128,-1,6
 332 1223 332 1223 332 1110 c 0,7,8
 332 1011 332 1011 386.5 959 c 128,-1,9
 441 907 441 907 590 872 c 2,10,-1
 696 848 l 2,11,12
 906 799 906 799 1002 694 c 128,-1,13
 1098 589 1098 589 1098 408 c 0,14,15
 1098 195 1098 195 966 83 c 128,-1,16
 834 -29 834 -29 582 -29 c 0,17,18
 477 -29 477 -29 371 -6.5 c 128,-1,19
 265 16 265 16 158 61 c 1,20,-1
 158 276 l 1,21,22
 273 203 273 203 375.5 169 c 128,-1,23
 478 135 478 135 582 135 c 0,24,25
 735 135 735 135 820 203.5 c 128,-1,26
 905 272 905 272 905 395 c 0,27,28
 905 507 905 507 846.5 566 c 128,-1,29
 788 625 788 625 643 657 c 2,30,-1
 535 682 l 2,31,32
 327 729 327 729 233 824 c 128,-1,33
 139 919 139 919 139 1079 c 0,34,35
 139 1279 139 1279 273.5 1399.5 c 128,-1,36
 408 1520 408 1520 631 1520 c 0,37,38
 717 1520 717 1520 812 1500.5 c 128,-1,39
 907 1481 907 1481 1012 1442 c 1,0,-1
EndSplineSet
EndChar

StartChar: T
Encoding: 84 84 53
Width: 1233
Flags: W
LayerCount: 2
Back
Fore
SplineSet
47 1493 m 1,0,-1
 1186 1493 l 1,1,-1
 1186 1323 l 1,2,-1
 719 1323 l 1,3,-1
 719 0 l 1,4,-1
 516 0 l 1,5,-1
 516 1323 l 1,6,-1
 47 1323 l 1,7,-1
 47 1493 l 1,0,-1
EndSplineSet
EndChar

StartChar: U
Encoding: 85 85 54
Width: 1233
Flags: W
LayerCount: 2
Back
Fore
SplineSet
147 573 m 2,0,-1
 147 1493 l 1,1,-1
 350 1493 l 1,2,-1
 350 481 l 2,3,4
 350 372 350 372 356 325.5 c 128,-1,5
 362 279 362 279 377 254 c 0,6,7
 409 195 409 195 469.5 165 c 128,-1,8
 530 135 530 135 616 135 c 0,9,10
 703 135 703 135 763 165 c 128,-1,11
 823 195 823 195 856 254 c 0,12,13
 871 279 871 279 877 325 c 128,-1,14
 883 371 883 371 883 479 c 2,15,-1
 883 1493 l 1,16,-1
 1085 1493 l 1,17,-1
 1085 573 l 2,18,19
 1085 344 1085 344 1056.5 247.5 c 128,-1,20
 1028 151 1028 151 958 88 c 0,21,22
 892 29 892 29 807 0 c 128,-1,23
 722 -29 722 -29 616 -29 c 0,24,25
 511 -29 511 -29 426 0 c 128,-1,26
 341 29 341 29 274 88 c 0,27,28
 205 150 205 150 176 248.5 c 128,-1,29
 147 347 147 347 147 573 c 2,0,-1
EndSplineSet
EndChar

StartChar: V
Encoding: 86 86 55
Width: 1233
Flags: W
LayerCount: 2
Back
Fore
SplineSet
616 170 m 1,0,-1
 967 1493 l 1,1,-1
 1176 1493 l 1,2,-1
 739 0 l 1,3,-1
 494 0 l 1,4,-1
 57 1493 l 1,5,-1
 266 1493 l 1,6,-1
 616 170 l 1,0,-1
EndSplineSet
EndChar

StartChar: W
Encoding: 87 87 56
Width: 1233
Flags: W
LayerCount: 2
Back
Fore
SplineSet
0 1493 m 1,0,-1
 197 1493 l 1,1,-1
 340 281 l 1,2,-1
 510 1083 l 1,3,-1
 721 1083 l 1,4,-1
 893 279 l 1,5,-1
 1036 1493 l 1,6,-1
 1233 1493 l 1,7,-1
 1010 0 l 1,8,-1
 819 0 l 1,9,-1
 616 887 l 1,10,-1
 414 0 l 1,11,-1
 223 0 l 1,12,-1
 0 1493 l 1,0,-1
EndSplineSet
EndChar

StartChar: X
Encoding: 88 88 57
Width: 1233
Flags: W
LayerCount: 2
Back
Fore
SplineSet
86 1493 m 1,0,-1
 303 1493 l 1,1,-1
 631 930 l 1,2,-1
 965 1493 l 1,3,-1
 1182 1493 l 1,4,-1
 735 791 l 1,5,-1
 1214 0 l 1,6,-1
 997 0 l 1,7,-1
 631 643 l 1,8,-1
 236 0 l 1,9,-1
 18 0 l 1,10,-1
 518 791 l 1,11,-1
 86 1493 l 1,0,-1
EndSplineSet
EndChar

StartChar: Y
Encoding: 89 89 58
Width: 1233
Flags: W
LayerCount: 2
Back
Fore
SplineSet
37 1493 m 1,0,-1
 252 1493 l 1,1,-1
 616 834 l 1,2,-1
 979 1493 l 1,3,-1
 1196 1493 l 1,4,-1
 717 670 l 1,5,-1
 717 0 l 1,6,-1
 514 0 l 1,7,-1
 514 670 l 1,8,-1
 37 1493 l 1,0,-1
EndSplineSet
EndChar

StartChar: Z
Encoding: 90 90 59
Width: 1233
Flags: W
LayerCount: 2
Back
Fore
SplineSet
178 1493 m 1,0,-1
 1147 1493 l 1,1,-1
 1147 1339 l 1,2,-1
 367 170 l 1,3,-1
 1169 170 l 1,4,-1
 1169 0 l 1,5,-1
 156 0 l 1,6,-1
 156 154 l 1,7,-1
 915 1323 l 1,8,-1
 178 1323 l 1,9,-1
 178 1493 l 1,0,-1
EndSplineSet
EndChar

StartChar: bracketleft
Encoding: 91 91 60
Width: 1233
Flags: W
LayerCount: 2
Back
Fore
SplineSet
563 1656 m 1,0,-1
 987 1656 l 1,1,-1
 987 1513 l 1,2,-1
 747 1513 l 1,3,-1
 747 -27 l 1,4,-1
 987 -27 l 1,5,-1
 987 -170 l 1,6,-1
 563 -170 l 1,7,-1
 563 1656 l 1,0,-1
EndSplineSet
EndChar

StartChar: backslash
Encoding: 92 92 61
Width: 1233
Flags: W
LayerCount: 2
Back
Fore
SplineSet
293 1493 m 1,0,-1
 1079 -190 l 1,1,-1
 889 -190 l 1,2,-1
 102 1493 l 1,3,-1
 293 1493 l 1,0,-1
EndSplineSet
EndChar

StartChar: bracketright
Encoding: 93 93 62
Width: 1233
Flags: W
LayerCount: 2
Back
Fore
SplineSet
720 1656 m 1,0,-1
 720 -170 l 1,1,-1
 296 -170 l 1,2,-1
 296 -27 l 1,3,-1
 536 -27 l 1,4,-1
 536 1513 l 1,5,-1
 296 1513 l 1,6,-1
 296 1656 l 1,7,-1
 720 1656 l 1,0,-1
EndSplineSet
EndChar

StartChar: asciicircum
Encoding: 94 94 63
Width: 1233
Flags: W
LayerCount: 2
Back
Fore
SplineSet
705 1488 m 1,0,-1
 1196 892 l 1,1,-1
 983 893 l 1,2,-1
 616 1286 l 1,3,-1
 250 893 l 1,4,-1
 36 892 l 1,5,-1
 528 1488 l 1,6,-1
 705 1488 l 1,0,-1
EndSplineSet
EndChar

StartChar: underscore
Encoding: 95 95 64
Width: 1233
Flags: W
LayerCount: 2
Back
Fore
SplineSet
1224 -190 m 1,0,-1
 1224 -360 l 1,1,-1
 0 -360 l 1,2,-1
 0 -190 l 1,3,-1
 1224 -190 l 1,0,-1
EndSplineSet
EndChar

StartChar: grave
Encoding: 96 96 65
Width: 1233
Flags: W
LayerCount: 2
Back
Fore
SplineSet
477 1638 m 1,0,-1
 758 1262 l 1,1,-1
 604 1262 l 1,2,-1
 279 1638 l 1,3,-1
 477 1638 l 1,0,-1
EndSplineSet
EndChar

StartChar: a
Encoding: 97 97 66
Width: 1233
Flags: W
LayerCount: 2
Back
Fore
SplineSet
702 563 m 1,0,-1
 641 563 l 2,1,2
 480 563 480 563 398.5 506.5 c 128,-1,3
 317 450 317 450 317 338 c 0,4,5
 317 237 317 237 378 181 c 128,-1,6
 439 125 439 125 547 125 c 0,7,8
 699 125 699 125 786 230.5 c 128,-1,9
 873 336 873 336 874 522 c 2,10,-1
 874 563 l 1,11,-1
 702 563 l 1,0,-1
1059 639 m 2,12,-1
 1059 0 l 1,13,-1
 874 0 l 1,14,-1
 874 166 l 1,15,16
 815 66 815 66 725.5 18.5 c 128,-1,17
 636 -29 636 -29 508 -29 c 0,18,19
 337 -29 337 -29 235 67.5 c 128,-1,20
 133 164 133 164 133 326 c 0,21,22
 133 513 133 513 258.5 610 c 128,-1,23
 384 707 384 707 627 707 c 2,24,-1
 874 707 l 1,25,-1
 874 736 l 2,26,27
 873 870 873 870 806 930.5 c 128,-1,28
 739 991 739 991 592 991 c 0,29,30
 498 991 498 991 402 964 c 128,-1,31
 306 937 306 937 215 885 c 1,32,-1
 215 1069 l 1,33,34
 317 1108 317 1108 410.5 1127.5 c 128,-1,35
 504 1147 504 1147 592 1147 c 0,36,37
 731 1147 731 1147 829.5 1106 c 128,-1,38
 928 1065 928 1065 989 983 c 0,39,40
 1027 933 1027 933 1043 859.5 c 128,-1,41
 1059 786 1059 786 1059 639 c 2,12,-1
EndSplineSet
EndChar

StartChar: b
Encoding: 98 98 67
Width: 1233
Flags: W
LayerCount: 2
Back
Fore
SplineSet
918 559 m 256,0,1
 918 773 918 773 850 882 c 128,-1,2
 782 991 782 991 649 991 c 0,3,4
 515 991 515 991 446 881.5 c 128,-1,5
 377 772 377 772 377 559 c 0,6,7
 377 347 377 347 446 237 c 128,-1,8
 515 127 515 127 649 127 c 0,9,10
 782 127 782 127 850 236 c 128,-1,11
 918 345 918 345 918 559 c 256,0,1
377 977 m 1,12,13
 421 1059 421 1059 498.5 1103 c 128,-1,14
 576 1147 576 1147 678 1147 c 0,15,16
 880 1147 880 1147 996 991.5 c 128,-1,17
 1112 836 1112 836 1112 563 c 0,18,19
 1112 286 1112 286 995.5 128.5 c 128,-1,20
 879 -29 879 -29 676 -29 c 0,21,22
 576 -29 576 -29 499.5 14.5 c 128,-1,23
 423 58 423 58 377 141 c 1,24,-1
 377 0 l 1,25,-1
 193 0 l 1,26,-1
 193 1556 l 1,27,-1
 377 1556 l 1,28,-1
 377 977 l 1,12,13
EndSplineSet
EndChar

StartChar: c
Encoding: 99 99 68
Width: 1233
Flags: W
LayerCount: 2
Back
Fore
SplineSet
1061 57 m 1,0,1
 987 14 987 14 908.5 -7.5 c 128,-1,2
 830 -29 830 -29 748 -29 c 0,3,4
 488 -29 488 -29 341.5 127 c 128,-1,5
 195 283 195 283 195 559 c 256,6,7
 195 835 195 835 341.5 991 c 128,-1,8
 488 1147 488 1147 748 1147 c 0,9,10
 829 1147 829 1147 906 1126 c 128,-1,11
 983 1105 983 1105 1061 1061 c 1,12,-1
 1061 868 l 1,13,14
 988 933 988 933 914.5 962 c 128,-1,15
 841 991 841 991 748 991 c 0,16,17
 575 991 575 991 482 879 c 128,-1,18
 389 767 389 767 389 559 c 0,19,20
 389 352 389 352 482.5 239.5 c 128,-1,21
 576 127 576 127 748 127 c 0,22,23
 844 127 844 127 920 156.5 c 128,-1,24
 996 186 996 186 1061 248 c 1,25,-1
 1061 57 l 1,0,1
EndSplineSet
EndChar

StartChar: d
Encoding: 100 100 69
Width: 1233
Flags: W
LayerCount: 2
Back
Fore
SplineSet
858 977 m 1,0,-1
 858 1556 l 1,1,-1
 1042 1556 l 1,2,-1
 1042 0 l 1,3,-1
 858 0 l 1,4,-1
 858 141 l 1,5,6
 812 58 812 58 735.5 14.5 c 128,-1,7
 659 -29 659 -29 559 -29 c 0,8,9
 356 -29 356 -29 239.5 128.5 c 128,-1,10
 123 286 123 286 123 563 c 0,11,12
 123 836 123 836 240 991.5 c 128,-1,13
 357 1147 357 1147 559 1147 c 0,14,15
 660 1147 660 1147 737 1103.5 c 128,-1,16
 814 1060 814 1060 858 977 c 1,0,-1
317 559 m 256,17,18
 317 345 317 345 385 236 c 128,-1,19
 453 127 453 127 586 127 c 256,20,21
 719 127 719 127 788.5 237 c 128,-1,22
 858 347 858 347 858 559 c 0,23,24
 858 772 858 772 788.5 881.5 c 128,-1,25
 719 991 719 991 586 991 c 256,26,27
 453 991 453 991 385 882 c 128,-1,28
 317 773 317 773 317 559 c 256,17,18
EndSplineSet
EndChar

StartChar: e
Encoding: 101 101 70
Width: 1233
Flags: W
LayerCount: 2
Back
Fore
SplineSet
1120 652 m 1,0,-1
 1120 562 l 1,1,-1
 323 562 l 1,2,-1
 323 556 l 1,3,4
 315 327 315 327 410.5 227 c 128,-1,5
 506 127 506 127 680 127 c 0,6,7
 768 127 768 127 864 155 c 128,-1,8
 960 183 960 183 1069 240 c 1,9,-1
 1069 57 l 1,10,11
 964 14 964 14 866.5 -7.5 c 128,-1,12
 769 -29 769 -29 678 -29 c 0,13,14
 417 -29 417 -29 270 127.5 c 128,-1,15
 123 284 123 284 123 559 c 0,16,17
 123 827 123 827 267 987 c 128,-1,18
 411 1147 411 1147 651 1147 c 0,19,20
 865 1147 865 1147 988.5 1002 c 128,-1,21
 1112 857 1112 857 1120 652 c 1,0,-1
936 706 m 1,22,23
 924 822 924 822 851.5 906.5 c 128,-1,24
 779 991 779 991 643 991 c 0,25,26
 510 991 510 991 424 903 c 128,-1,27
 338 815 338 815 330 705 c 1,28,-1
 936 706 l 1,22,23
EndSplineSet
EndChar

StartChar: f
Encoding: 102 102 71
Width: 1233
Flags: W
LayerCount: 2
Back
Fore
SplineSet
1063 1556 m 1,0,-1
 1063 1403 l 1,1,-1
 854 1403 l 2,2,3
 755 1403 755 1403 716.5 1362.5 c 128,-1,4
 678 1322 678 1322 678 1219 c 2,5,-1
 678 1120 l 1,6,-1
 1063 1120 l 1,7,-1
 1063 977 l 1,8,-1
 678 977 l 1,9,-1
 678 0 l 1,10,-1
 494 0 l 1,11,-1
 494 977 l 1,12,-1
 195 977 l 1,13,-1
 195 1120 l 1,14,-1
 494 1120 l 1,15,-1
 494 1198 l 2,16,17
 494 1382 494 1382 578.5 1469 c 128,-1,18
 663 1556 663 1556 842 1556 c 2,19,-1
 1063 1556 l 1,0,-1
EndSplineSet
EndChar

StartChar: g
Encoding: 103 103 72
Width: 1233
Flags: W
LayerCount: 2
Back
Fore
SplineSet
858 569 m 0,0,1
 858 776 858 776 790.5 883.5 c 128,-1,2
 723 991 723 991 594 991 c 0,3,4
 459 991 459 991 388 883.5 c 128,-1,5
 317 776 317 776 317 569 c 256,6,7
 317 362 317 362 388.5 253.5 c 128,-1,8
 460 145 460 145 596 145 c 0,9,10
 723 145 723 145 790.5 254 c 128,-1,11
 858 363 858 363 858 569 c 0,0,1
1042 72 m 2,12,13
 1042 -180 1042 -180 923 -310 c 128,-1,14
 804 -440 804 -440 573 -440 c 0,15,16
 497 -440 497 -440 414 -426 c 128,-1,17
 331 -412 331 -412 248 -385 c 1,18,-1
 248 -203 l 1,19,20
 346 -249 346 -249 426 -271 c 128,-1,21
 506 -293 506 -293 573 -293 c 0,22,23
 722 -293 722 -293 790 -212 c 128,-1,24
 858 -131 858 -131 858 45 c 2,25,-1
 858 53 l 1,26,-1
 858 178 l 1,27,28
 814 84 814 84 738 38 c 128,-1,29
 662 -8 662 -8 553 -8 c 0,30,31
 357 -8 357 -8 240 149 c 128,-1,32
 123 306 123 306 123 569 c 0,33,34
 123 833 123 833 240 990 c 128,-1,35
 357 1147 357 1147 553 1147 c 0,36,37
 661 1147 661 1147 736 1104 c 128,-1,38
 811 1061 811 1061 858 971 c 1,39,-1
 858 1116 l 1,40,-1
 1042 1116 l 1,41,-1
 1042 72 l 2,12,13
EndSplineSet
EndChar

StartChar: h
Encoding: 104 104 73
Width: 1233
Flags: W
LayerCount: 2
Back
Fore
SplineSet
1051 694 m 2,0,-1
 1051 0 l 1,1,-1
 866 0 l 1,2,-1
 866 694 l 2,3,4
 866 845 866 845 813 916 c 128,-1,5
 760 987 760 987 647 987 c 0,6,7
 518 987 518 987 448.5 895.5 c 128,-1,8
 379 804 379 804 379 633 c 2,9,-1
 379 0 l 1,10,-1
 195 0 l 1,11,-1
 195 1556 l 1,12,-1
 379 1556 l 1,13,-1
 379 952 l 1,14,15
 428 1048 428 1048 512 1097.5 c 128,-1,16
 596 1147 596 1147 711 1147 c 0,17,18
 882 1147 882 1147 966.5 1034.5 c 128,-1,19
 1051 922 1051 922 1051 694 c 2,0,-1
EndSplineSet
EndChar

StartChar: i
Encoding: 105 105 74
Width: 1233
Flags: W
LayerCount: 2
Back
Fore
SplineSet
316 1116 m 1,0,-1
 787 1116 l 1,1,-1
 787 143 l 1,2,-1
 1152 143 l 1,3,-1
 1152 0 l 1,4,-1
 238 0 l 1,5,-1
 238 143 l 1,6,-1
 603 143 l 1,7,-1
 603 973 l 1,8,-1
 316 973 l 1,9,-1
 316 1116 l 1,0,-1
603 1551 m 1,10,-1
 787 1551 l 1,11,-1
 787 1319 l 1,12,-1
 603 1319 l 1,13,-1
 603 1551 l 1,10,-1
EndSplineSet
EndChar

StartChar: j
Encoding: 106 106 75
Width: 1233
Flags: W
LayerCount: 2
Back
Fore
SplineSet
600 -20 m 2,0,-1
 600 977 l 1,1,-1
 283 977 l 1,2,-1
 283 1120 l 1,3,-1
 784 1120 l 1,4,-1
 784 -20 l 2,5,6
 784 -215 784 -215 694.5 -320.5 c 128,-1,7
 605 -426 605 -426 440 -426 c 2,8,-1
 186 -426 l 1,9,-1
 186 -270 l 1,10,-1
 420 -270 l 2,11,12
 510 -270 510 -270 555 -207.5 c 128,-1,13
 600 -145 600 -145 600 -20 c 2,0,-1
600 1556 m 1,14,-1
 784 1556 l 1,15,-1
 784 1323 l 1,16,-1
 600 1323 l 1,17,-1
 600 1556 l 1,14,-1
EndSplineSet
EndChar

StartChar: k
Encoding: 107 107 76
Width: 1233
Flags: W
LayerCount: 2
Back
Fore
SplineSet
236 1556 m 1,0,-1
 426 1556 l 1,1,-1
 426 655 l 1,2,-1
 909 1120 l 1,3,-1
 1133 1120 l 1,4,-1
 692 698 l 1,5,-1
 1202 0 l 1,6,-1
 977 0 l 1,7,-1
 563 578 l 1,8,-1
 426 449 l 1,9,-1
 426 0 l 1,10,-1
 236 0 l 1,11,-1
 236 1556 l 1,0,-1
EndSplineSet
EndChar

StartChar: l
Encoding: 108 108 77
Width: 1233
Flags: W
LayerCount: 2
Back
Fore
SplineSet
719 405 m 2,0,1
 719 281 719 281 764.5 218 c 128,-1,2
 810 155 810 155 899 155 c 2,3,-1
 1114 155 l 1,4,-1
 1114 0 l 1,5,-1
 881 0 l 2,6,7
 716 0 716 0 625.5 105.5 c 128,-1,8
 535 211 535 211 535 405 c 2,9,-1
 535 1418 l 1,10,-1
 240 1418 l 1,11,-1
 240 1562 l 1,12,-1
 719 1562 l 1,13,-1
 719 405 l 2,0,1
EndSplineSet
EndChar

StartChar: m
Encoding: 109 109 78
Width: 1233
Flags: W
LayerCount: 2
Back
Fore
SplineSet
676 1006 m 1,0,1
 710 1078 710 1078 762.5 1112.5 c 128,-1,2
 815 1147 815 1147 889 1147 c 0,3,4
 1024 1147 1024 1147 1079.5 1042.5 c 128,-1,5
 1135 938 1135 938 1135 649 c 2,6,-1
 1135 0 l 1,7,-1
 967 0 l 1,8,-1
 967 641 l 2,9,10
 967 878 967 878 940.5 935.5 c 128,-1,11
 914 993 914 993 844 993 c 0,12,13
 764 993 764 993 734.5 931.5 c 128,-1,14
 705 870 705 870 705 641 c 2,15,-1
 705 0 l 1,16,-1
 537 0 l 1,17,-1
 537 641 l 2,18,19
 537 881 537 881 508.5 937 c 128,-1,20
 480 993 480 993 406 993 c 0,21,22
 333 993 333 993 304.5 931.5 c 128,-1,23
 276 870 276 870 276 641 c 2,24,-1
 276 0 l 1,25,-1
 109 0 l 1,26,-1
 109 1120 l 1,27,-1
 276 1120 l 1,28,-1
 276 1024 l 1,29,30
 309 1084 309 1084 358.5 1115.5 c 128,-1,31
 408 1147 408 1147 471 1147 c 0,32,33
 547 1147 547 1147 597.5 1112 c 128,-1,34
 648 1077 648 1077 676 1006 c 1,0,1
EndSplineSet
EndChar

StartChar: n
Encoding: 110 110 79
Width: 1233
Flags: W
LayerCount: 2
Back
Fore
SplineSet
1051 694 m 2,0,-1
 1051 0 l 1,1,-1
 866 0 l 1,2,-1
 866 694 l 2,3,4
 866 845 866 845 813 916 c 128,-1,5
 760 987 760 987 647 987 c 0,6,7
 518 987 518 987 448.5 895.5 c 128,-1,8
 379 804 379 804 379 633 c 2,9,-1
 379 0 l 1,10,-1
 195 0 l 1,11,-1
 195 1120 l 1,12,-1
 379 1120 l 1,13,-1
 379 952 l 1,14,15
 428 1048 428 1048 512 1097.5 c 128,-1,16
 596 1147 596 1147 711 1147 c 0,17,18
 882 1147 882 1147 966.5 1034.5 c 128,-1,19
 1051 922 1051 922 1051 694 c 2,0,-1
EndSplineSet
EndChar

StartChar: o
Encoding: 111 111 80
Width: 1233
Flags: W
LayerCount: 2
Back
Fore
SplineSet
616 991 m 0,0,1
 476 991 476 991 404 882 c 128,-1,2
 332 773 332 773 332 559 c 0,3,4
 332 346 332 346 404 236.5 c 128,-1,5
 476 127 476 127 616 127 c 0,6,7
 757 127 757 127 829 236.5 c 128,-1,8
 901 346 901 346 901 559 c 0,9,10
 901 773 901 773 829 882 c 128,-1,11
 757 991 757 991 616 991 c 0,0,1
616 1147 m 256,12,13
 849 1147 849 1147 972.5 996 c 128,-1,14
 1096 845 1096 845 1096 559 c 0,15,16
 1096 272 1096 272 973 121.5 c 128,-1,17
 850 -29 850 -29 616 -29 c 0,18,19
 383 -29 383 -29 260 121.5 c 128,-1,20
 137 272 137 272 137 559 c 0,21,22
 137 845 137 845 260 996 c 128,-1,23
 383 1147 383 1147 616 1147 c 256,12,13
EndSplineSet
EndChar

StartChar: p
Encoding: 112 112 81
Width: 1233
Flags: W
LayerCount: 2
Back
Fore
SplineSet
375 141 m 1,0,-1
 375 -426 l 1,1,-1
 190 -426 l 1,2,-1
 190 1120 l 1,3,-1
 375 1120 l 1,4,-1
 375 977 l 1,5,6
 421 1060 421 1060 497.5 1103.5 c 128,-1,7
 574 1147 574 1147 674 1147 c 0,8,9
 877 1147 877 1147 992.5 990 c 128,-1,10
 1108 833 1108 833 1108 555 c 0,11,12
 1108 282 1108 282 992 126.5 c 128,-1,13
 876 -29 876 -29 674 -29 c 0,14,15
 572 -29 572 -29 495.5 14.5 c 128,-1,16
 419 58 419 58 375 141 c 1,0,-1
915 559 m 256,17,18
 915 773 915 773 847.5 882 c 128,-1,19
 780 991 780 991 647 991 c 0,20,21
 513 991 513 991 444 881.5 c 128,-1,22
 375 772 375 772 375 559 c 0,23,24
 375 347 375 347 444 237 c 128,-1,25
 513 127 513 127 647 127 c 0,26,27
 780 127 780 127 847.5 236 c 128,-1,28
 915 345 915 345 915 559 c 256,17,18
EndSplineSet
EndChar

StartChar: q
Encoding: 113 113 82
Width: 1233
Flags: W
LayerCount: 2
Back
Fore
SplineSet
332 555 m 256,0,1
 332 341 332 341 399.5 232 c 128,-1,2
 467 123 467 123 600 123 c 256,3,4
 733 123 733 123 801.5 232.5 c 128,-1,5
 870 342 870 342 870 555 c 256,6,7
 870 768 870 768 801.5 877.5 c 128,-1,8
 733 987 733 987 600 987 c 256,9,10
 467 987 467 987 399.5 878 c 128,-1,11
 332 769 332 769 332 555 c 256,0,1
870 139 m 1,12,13
 825 56 825 56 748.5 11.5 c 128,-1,14
 672 -33 672 -33 571 -33 c 0,15,16
 370 -33 370 -33 253.5 122.5 c 128,-1,17
 137 278 137 278 137 551 c 0,18,19
 137 829 137 829 253 986 c 128,-1,20
 369 1143 369 1143 571 1143 c 0,21,22
 671 1143 671 1143 747.5 1099.5 c 128,-1,23
 824 1056 824 1056 870 973 c 1,24,-1
 870 1116 l 1,25,-1
 1055 1116 l 1,26,-1
 1055 -430 l 1,27,-1
 870 -430 l 1,28,-1
 870 139 l 1,12,13
EndSplineSet
EndChar

StartChar: r
Encoding: 114 114 83
Width: 1233
Flags: W
LayerCount: 2
Back
Fore
SplineSet
1155 889 m 1,0,1
 1096 935 1096 935 1035 956 c 128,-1,2
 974 977 974 977 901 977 c 0,3,4
 729 977 729 977 638 869 c 128,-1,5
 547 761 547 761 547 557 c 2,6,-1
 547 0 l 1,7,-1
 362 0 l 1,8,-1
 362 1120 l 1,9,-1
 547 1120 l 1,10,-1
 547 901 l 1,11,12
 593 1020 593 1020 688.5 1083.5 c 128,-1,13
 784 1147 784 1147 915 1147 c 0,14,15
 983 1147 983 1147 1042 1130 c 128,-1,16
 1101 1113 1101 1113 1155 1077 c 1,17,-1
 1155 889 l 1,0,1
EndSplineSet
EndChar

StartChar: s
Encoding: 115 115 84
Width: 1233
Flags: W
LayerCount: 2
Back
Fore
SplineSet
973 1081 m 1,0,-1
 973 901 l 1,1,2
 894 947 894 947 814 970 c 128,-1,3
 734 993 734 993 651 993 c 0,4,5
 526 993 526 993 464.5 952.5 c 128,-1,6
 403 912 403 912 403 829 c 0,7,8
 403 754 403 754 449 717 c 128,-1,9
 495 680 495 680 678 645 c 2,10,-1
 752 631 l 2,11,12
 889 605 889 605 959.5 527 c 128,-1,13
 1030 449 1030 449 1030 324 c 0,14,15
 1030 158 1030 158 912 64.5 c 128,-1,16
 794 -29 794 -29 584 -29 c 0,17,18
 501 -29 501 -29 410 -11.5 c 128,-1,19
 319 6 319 6 213 41 c 1,20,-1
 213 231 l 1,21,22
 316 178 316 178 410 151.5 c 128,-1,23
 504 125 504 125 588 125 c 0,24,25
 710 125 710 125 777 174.5 c 128,-1,26
 844 224 844 224 844 313 c 0,27,28
 844 441 844 441 599 490 c 1,29,-1
 591 492 l 1,30,-1
 522 506 l 2,31,32
 363 537 363 537 290 610.5 c 128,-1,33
 217 684 217 684 217 811 c 0,34,35
 217 972 217 972 326 1059.5 c 128,-1,36
 435 1147 435 1147 637 1147 c 0,37,38
 727 1147 727 1147 810 1130.5 c 128,-1,39
 893 1114 893 1114 973 1081 c 1,0,-1
EndSplineSet
EndChar

StartChar: t
Encoding: 116 116 85
Width: 1233
Flags: W
LayerCount: 2
Back
Fore
SplineSet
614 1438 m 1,0,-1
 614 1120 l 1,1,-1
 1032 1120 l 1,2,-1
 1032 977 l 1,3,-1
 614 977 l 1,4,-1
 614 369 l 2,5,6
 614 245 614 245 661 196 c 128,-1,7
 708 147 708 147 825 147 c 2,8,-1
 1032 147 l 1,9,-1
 1032 0 l 1,10,-1
 807 0 l 2,11,12
 600 0 600 0 515 83 c 128,-1,13
 430 166 430 166 430 369 c 2,14,-1
 430 977 l 1,15,-1
 131 977 l 1,16,-1
 131 1120 l 1,17,-1
 430 1120 l 1,18,-1
 430 1438 l 1,19,-1
 614 1438 l 1,0,-1
EndSplineSet
EndChar

StartChar: u
Encoding: 117 117 86
Width: 1233
Flags: W
LayerCount: 2
Back
Fore
SplineSet
195 424 m 2,0,-1
 195 1118 l 1,1,-1
 379 1118 l 1,2,-1
 379 424 l 2,3,4
 379 273 379 273 432.5 202 c 128,-1,5
 486 131 486 131 598 131 c 0,6,7
 728 131 728 131 797 222.5 c 128,-1,8
 866 314 866 314 866 485 c 2,9,-1
 866 1118 l 1,10,-1
 1051 1118 l 1,11,-1
 1051 0 l 1,12,-1
 866 0 l 1,13,-1
 866 168 l 1,14,15
 817 71 817 71 732.5 21 c 128,-1,16
 648 -29 648 -29 535 -29 c 0,17,18
 363 -29 363 -29 279 83.5 c 128,-1,19
 195 196 195 196 195 424 c 2,0,-1
EndSplineSet
EndChar

StartChar: v
Encoding: 118 118 87
Width: 1233
Flags: W
LayerCount: 2
Back
Fore
SplineSet
100 1120 m 1,0,-1
 291 1120 l 1,1,-1
 616 180 l 1,2,-1
 942 1120 l 1,3,-1
 1133 1120 l 1,4,-1
 735 0 l 1,5,-1
 498 0 l 1,6,-1
 100 1120 l 1,0,-1
EndSplineSet
EndChar

StartChar: w
Encoding: 119 119 88
Width: 1233
Flags: W
LayerCount: 2
Back
Fore
SplineSet
0 1120 m 1,0,-1
 182 1120 l 1,1,-1
 377 215 l 1,2,-1
 537 793 l 1,3,-1
 694 793 l 1,4,-1
 856 215 l 1,5,-1
 1051 1120 l 1,6,-1
 1233 1120 l 1,7,-1
 971 0 l 1,8,-1
 795 0 l 1,9,-1
 616 614 l 1,10,-1
 438 0 l 1,11,-1
 262 0 l 1,12,-1
 0 1120 l 1,0,-1
EndSplineSet
EndChar

StartChar: x
Encoding: 120 120 89
Width: 1233
Flags: W
LayerCount: 2
Back
Fore
SplineSet
1118 1120 m 1,0,-1
 717 584 l 1,1,-1
 1157 0 l 1,2,-1
 944 0 l 1,3,-1
 616 449 l 1,4,-1
 289 0 l 1,5,-1
 76 0 l 1,6,-1
 516 584 l 1,7,-1
 115 1120 l 1,8,-1
 319 1120 l 1,9,-1
 616 715 l 1,10,-1
 911 1120 l 1,11,-1
 1118 1120 l 1,0,-1
EndSplineSet
EndChar

StartChar: y
Encoding: 121 121 90
Width: 1233
Flags: W
LayerCount: 2
Back
Fore
SplineSet
858 360 m 2,0,1
 812 243 812 243 741 52 c 0,2,3
 642 -212 642 -212 608 -270 c 0,4,5
 562 -348 562 -348 493 -387 c 128,-1,6
 424 -426 424 -426 332 -426 c 2,7,-1
 184 -426 l 1,8,-1
 184 -272 l 1,9,-1
 293 -272 l 2,10,11
 374 -272 374 -272 420 -225 c 128,-1,12
 466 -178 466 -178 537 18 c 1,13,-1
 104 1120 l 1,14,-1
 299 1120 l 1,15,-1
 631 244 l 1,16,-1
 958 1120 l 1,17,-1
 1153 1120 l 1,18,-1
 858 360 l 2,0,1
EndSplineSet
EndChar

StartChar: z
Encoding: 122 122 91
Width: 1233
Flags: W
LayerCount: 2
Back
Fore
SplineSet
227 1122 m 1,0,-1
 1040 1122 l 1,1,-1
 1040 954 l 1,2,-1
 397 150 l 1,3,-1
 1040 150 l 1,4,-1
 1040 0 l 1,5,-1
 203 0 l 1,6,-1
 203 170 l 1,7,-1
 846 975 l 1,8,-1
 227 975 l 1,9,-1
 227 1122 l 1,0,-1
EndSplineSet
EndChar

StartChar: braceleft
Encoding: 123 123 92
Width: 1233
Flags: W
LayerCount: 2
Back
Fore
SplineSet
1032 -51 m 1,0,-1
 1032 -195 l 1,1,-1
 968 -195 l 2,2,3
 719 -195 719 -195 634.5 -121 c 128,-1,4
 550 -47 550 -47 550 174 c 2,5,-1
 550 374 l 2,6,7
 550 483 550 483 488.5 562 c 128,-1,8
 427 641 427 641 298 641 c 2,9,-1
 176 641 l 1,10,-1
 176 784 l 1,11,-1
 298 784 l 2,12,13
 439 784 439 784 494.5 851 c 128,-1,14
 550 918 550 918 550 1048 c 2,15,-1
 550 1308 l 2,16,17
 550 1529 550 1529 634.5 1602.5 c 128,-1,18
 719 1676 719 1676 968 1676 c 2,19,-1
 1032 1676 l 1,20,-1
 1032 1533 l 1,21,-1
 962 1533 l 2,22,23
 822 1533 822 1533 779.5 1489.5 c 128,-1,24
 737 1446 737 1446 737 1304 c 2,25,-1
 737 1036 l 2,26,27
 737 860 737 860 668 799.5 c 128,-1,28
 599 739 599 739 399 712 c 1,29,30
 593 689 593 689 665 623.5 c 128,-1,31
 737 558 737 558 737 387 c 2,32,-1
 737 178 l 2,33,34
 737 35 737 35 779.5 -8 c 128,-1,35
 822 -51 822 -51 962 -51 c 2,36,-1
 1032 -51 l 1,0,-1
EndSplineSet
EndChar

StartChar: bar
Encoding: 124 124 93
Width: 1233
Flags: W
LayerCount: 2
Back
Fore
SplineSet
742 1565 m 1,0,-1
 742 -483 l 1,1,-1
 570 -483 l 1,2,-1
 570 1565 l 1,3,-1
 742 1565 l 1,0,-1
EndSplineSet
EndChar

StartChar: braceright
Encoding: 125 125 94
Width: 1233
Flags: W
LayerCount: 2
Back
Fore
SplineSet
289 -51 m 2,0,1
 429 -51 429 -51 471.5 -8 c 128,-1,2
 514 35 514 35 514 178 c 2,3,-1
 514 387 l 2,4,5
 514 558 514 558 586 623.5 c 128,-1,6
 658 689 658 689 852 712 c 1,7,8
 652 739 652 739 583 799.5 c 128,-1,9
 514 860 514 860 514 1036 c 2,10,-1
 514 1304 l 2,11,12
 514 1446 514 1446 471.5 1489.5 c 128,-1,13
 429 1533 429 1533 289 1533 c 2,14,-1
 219 1533 l 1,15,-1
 219 1676 l 1,16,-1
 283 1676 l 2,17,18
 532 1676 532 1676 616.5 1602.5 c 128,-1,19
 701 1529 701 1529 701 1308 c 2,20,-1
 701 1048 l 2,21,22
 701 918 701 918 756.5 851 c 128,-1,23
 812 784 812 784 953 784 c 2,24,-1
 1075 784 l 1,25,-1
 1075 641 l 1,26,-1
 953 641 l 2,27,28
 824 641 824 641 762.5 562 c 128,-1,29
 701 483 701 483 701 374 c 2,30,-1
 701 174 l 2,31,32
 701 -47 701 -47 616.5 -121 c 128,-1,33
 532 -195 532 -195 283 -195 c 2,34,-1
 219 -195 l 1,35,-1
 219 -51 l 1,36,-1
 289 -51 l 2,0,1
EndSplineSet
EndChar

StartChar: asciitilde
Encoding: 126 126 95
Width: 1233
Flags: W
LayerCount: 2
Back
Fore
SplineSet
1087 784 m 1,0,-1
 1217 696 l 1,1,2
 1131 500 1131 500 1048 428.5 c 128,-1,3
 965 357 965 357 877 357 c 1,4,5
 737 365 737 365 624.5 502.5 c 128,-1,6
 512 640 512 640 466 697.5 c 128,-1,7
 420 755 420 755 347 754 c 0,8,9
 270 754 270 754 230 681.5 c 128,-1,10
 190 609 190 609 146 497 c 1,11,-1
 13 573 l 1,12,13
 71 758 71 758 163 846 c 128,-1,14
 255 934 255 934 348 934 c 0,15,16
 517 936 517 936 650.5 734 c 128,-1,17
 784 532 784 532 877 532 c 0,18,19
 956 532 956 532 1006 618.5 c 128,-1,20
 1056 705 1056 705 1087 784 c 1,0,-1
EndSplineSet
EndChar

StartChar: exclamdown
Encoding: 161 161 97
Width: 1233
Flags: W
LayerCount: 2
Back
Fore
SplineSet
516 1239 m 1,0,-1
 516 1493 l 1,1,-1
 719 1493 l 1,2,-1
 719 1239 l 1,3,-1
 516 1239 l 1,0,-1
516 0 m 1,4,-1
 516 655 l 1,5,-1
 537 1012 l 1,6,-1
 698 1012 l 1,7,-1
 719 655 l 1,8,-1
 719 0 l 1,9,-1
 516 0 l 1,4,-1
EndSplineSet
EndChar

StartChar: cent
Encoding: 162 162 98
Width: 1233
Flags: W
LayerCount: 2
Back
Fore
SplineSet
1061 1077 m 1,0,-1
 1061 905 l 1,1,2
 994 945 994 945 929 967 c 128,-1,3
 864 989 864 989 821 993 c 1,4,-1
 821 123 l 1,5,6
 864 128 864 128 929.5 150.5 c 128,-1,7
 995 173 995 173 1061 213 c 1,8,-1
 1061 41 l 1,9,10
 988 10 988 10 923 -7 c 128,-1,11
 858 -24 858 -24 821 -27 c 1,12,-1
 821 -313 l 1,13,-1
 698 -313 l 1,14,-1
 698 -27 l 1,15,16
 473 -5 473 -5 343 151.5 c 128,-1,17
 213 308 213 308 213 559 c 0,18,19
 213 809 213 809 344.5 967.5 c 128,-1,20
 476 1126 476 1126 698 1145 c 1,21,-1
 698 1432 l 1,22,-1
 821 1432 l 1,23,-1
 821 1145 l 1,24,25
 858 1142 858 1142 923 1125 c 128,-1,26
 988 1108 988 1108 1061 1077 c 1,0,-1
698 127 m 1,27,-1
 698 991 l 1,28,29
 566 979 566 979 486 861 c 128,-1,30
 406 743 406 743 406 559 c 256,31,32
 406 375 406 375 486 257.5 c 128,-1,33
 566 140 566 140 698 127 c 1,27,-1
EndSplineSet
EndChar

StartChar: sterling
Encoding: 163 163 99
Width: 1233
Flags: W
LayerCount: 2
Back
Fore
SplineSet
1092 1462 m 1,0,-1
 1092 1278 l 1,1,2
 1030 1322 1030 1322 966.5 1344 c 128,-1,3
 903 1366 903 1366 836 1366 c 0,4,5
 702 1366 702 1366 638.5 1276.5 c 128,-1,6
 575 1187 575 1187 575 995 c 2,7,-1
 575 778 l 1,8,-1
 946 778 l 1,9,-1
 946 635 l 1,10,-1
 575 635 l 1,11,-1
 575 170 l 1,12,-1
 1112 170 l 1,13,-1
 1112 0 l 1,14,-1
 139 0 l 1,15,-1
 139 170 l 1,16,-1
 375 170 l 1,17,-1
 375 635 l 1,18,-1
 176 635 l 1,19,-1
 176 778 l 1,20,-1
 375 778 l 1,21,-1
 375 1016 l 2,22,23
 375 1270 375 1270 484.5 1395 c 128,-1,24
 594 1520 594 1520 817 1520 c 0,25,26
 882 1520 882 1520 950.5 1505.5 c 128,-1,27
 1019 1491 1019 1491 1092 1462 c 1,0,-1
EndSplineSet
EndChar

StartChar: currency
Encoding: 164 164 100
Width: 1233
Flags: W
LayerCount: 2
Back
Fore
SplineSet
868 643 m 0,0,1
 868 733 868 733 806 794.5 c 128,-1,2
 744 856 744 856 653 856 c 0,3,4
 563 856 563 856 500.5 794.5 c 128,-1,5
 438 733 438 733 438 643 c 0,6,7
 438 551 438 551 500.5 488.5 c 128,-1,8
 563 426 563 426 653 426 c 0,9,10
 744 426 744 426 806 489 c 128,-1,11
 868 552 868 552 868 643 c 0,0,1
844 924 m 1,12,-1
 1010 1090 l 1,13,-1
 1100 997 l 1,14,-1
 934 831 l 1,15,16
 964 782 964 782 978.5 735.5 c 128,-1,17
 993 689 993 689 993 641 c 0,18,19
 993 591 993 591 978 545.5 c 128,-1,20
 963 500 963 500 932 455 c 1,21,-1
 1100 289 l 1,22,-1
 1006 195 l 1,23,-1
 840 362 l 1,24,25
 794 331 794 331 748.5 316 c 128,-1,26
 703 301 703 301 653 301 c 0,27,28
 605 301 605 301 557 315.5 c 128,-1,29
 509 330 509 330 461 358 c 1,30,-1
 297 195 l 1,31,-1
 205 285 l 1,32,-1
 371 451 l 1,33,34
 340 502 340 502 325.5 548.5 c 128,-1,35
 311 595 311 595 311 641 c 0,36,37
 311 691 311 691 326.5 737.5 c 128,-1,38
 342 784 342 784 373 829 c 1,39,-1
 205 995 l 1,40,-1
 299 1090 l 1,41,-1
 465 922 l 1,42,43
 511 953 511 953 556.5 968 c 128,-1,44
 602 983 602 983 653 983 c 0,45,46
 699 983 699 983 746 968.5 c 128,-1,47
 793 954 793 954 844 924 c 1,12,-1
EndSplineSet
EndChar

StartChar: yen
Encoding: 165 165 101
Width: 1233
Flags: W
LayerCount: 2
Back
Fore
SplineSet
37 1493 m 1,0,-1
 252 1493 l 1,1,-1
 616 834 l 1,2,-1
 979 1493 l 1,3,-1
 1196 1493 l 1,4,-1
 866 932 l 1,5,-1
 1118 932 l 1,6,-1
 1118 821 l 1,7,-1
 803 821 l 1,8,-1
 717 670 l 1,9,-1
 717 635 l 1,10,-1
 1118 635 l 1,11,-1
 1118 524 l 1,12,-1
 717 524 l 1,13,-1
 717 0 l 1,14,-1
 514 0 l 1,15,-1
 514 524 l 1,16,-1
 115 524 l 1,17,-1
 115 635 l 1,18,-1
 514 635 l 1,19,-1
 514 670 l 1,20,-1
 424 821 l 1,21,-1
 115 821 l 1,22,-1
 115 932 l 1,23,-1
 358 932 l 1,24,-1
 37 1493 l 1,0,-1
EndSplineSet
EndChar

StartChar: brokenbar
Encoding: 166 166 102
Width: 1233
Flags: W
LayerCount: 2
Back
Fore
SplineSet
702 1432 m 1,0,-1
 702 674 l 1,1,-1
 530 674 l 1,2,-1
 530 1432 l 1,3,-1
 702 1432 l 1,0,-1
702 408 m 1,4,-1
 702 -350 l 1,5,-1
 530 -350 l 1,6,-1
 530 408 l 1,7,-1
 702 408 l 1,4,-1
EndSplineSet
EndChar

StartChar: section
Encoding: 167 167 103
Width: 1233
Flags: W
LayerCount: 2
Back
Fore
SplineSet
936 1462 m 1,0,-1
 936 1298 l 1,1,2
 853 1337 853 1337 781.5 1356.5 c 128,-1,3
 710 1376 710 1376 653 1376 c 0,4,5
 556 1376 556 1376 502.5 1336 c 128,-1,6
 449 1296 449 1296 449 1225 c 0,7,8
 449 1135 449 1135 654 1020 c 0,9,10
 680 1005 680 1005 694 997 c 0,11,12
 906 878 906 878 971 801 c 128,-1,13
 1036 724 1036 724 1036 623 c 0,14,15
 1036 533 1036 533 990.5 463 c 128,-1,16
 945 393 945 393 852 340 c 1,17,18
 913 288 913 288 942 233.5 c 128,-1,19
 971 179 971 179 971 115 c 0,20,21
 971 -27 971 -27 869 -111 c 128,-1,22
 767 -195 767 -195 594 -195 c 0,23,24
 521 -195 521 -195 443.5 -180.5 c 128,-1,25
 366 -166 366 -166 279 -137 c 1,26,-1
 279 27 l 1,27,28
 366 -12 366 -12 440 -31.5 c 128,-1,29
 514 -51 514 -51 571 -51 c 0,30,31
 673 -51 673 -51 729.5 -9 c 128,-1,32
 786 33 786 33 786 109 c 0,33,34
 786 211 786 211 565 334 c 1,35,-1
 541 348 l 1,36,37
 327 468 327 468 263 544.5 c 128,-1,38
 199 621 199 621 199 723 c 0,39,40
 199 814 199 814 245.5 885.5 c 128,-1,41
 292 957 292 957 383 1006 c 1,42,43
 323 1050 323 1050 293.5 1106 c 128,-1,44
 264 1162 264 1162 264 1231 c 0,45,46
 264 1361 264 1361 364 1440.5 c 128,-1,47
 464 1520 464 1520 631 1520 c 0,48,49
 703 1520 703 1520 779.5 1505.5 c 128,-1,50
 856 1491 856 1491 936 1462 c 1,0,-1
485 936 m 1,51,52
 423 891 423 891 392.5 846 c 128,-1,53
 362 801 362 801 362 754 c 0,54,55
 362 678 362 678 432.5 610.5 c 128,-1,56
 503 543 503 543 750 410 c 1,57,58
 812 455 812 455 842 500 c 128,-1,59
 872 545 872 545 872 592 c 0,60,61
 872 668 872 668 800.5 736 c 128,-1,62
 729 804 729 804 485 936 c 1,51,52
EndSplineSet
EndChar

StartChar: dieresis
Encoding: 168 168 104
Width: 1233
Flags: W
LayerCount: 2
Back
Fore
SplineSet
319 1552 m 1,0,-1
 522 1552 l 1,1,-1
 522 1350 l 1,2,-1
 319 1350 l 1,3,-1
 319 1552 l 1,0,-1
711 1552 m 1,4,-1
 913 1552 l 1,5,-1
 913 1350 l 1,6,-1
 711 1350 l 1,7,-1
 711 1552 l 1,4,-1
EndSplineSet
EndChar

StartChar: copyright
Encoding: 169 169 105
Width: 1233
Flags: W
LayerCount: 2
Back
Fore
SplineSet
864 1071 m 1,0,-1
 864 963 l 1,1,2
 806 991 806 991 750.5 1004.5 c 128,-1,3
 695 1018 695 1018 637 1018 c 0,4,5
 520 1018 520 1018 452.5 943.5 c 128,-1,6
 385 869 385 869 385 741 c 0,7,8
 385 609 385 609 455 538 c 128,-1,9
 525 467 525 467 655 467 c 0,10,11
 711 467 711 467 762.5 479.5 c 128,-1,12
 814 492 814 492 864 518 c 1,13,-1
 864 414 l 1,14,15
 812 391 812 391 755 380 c 128,-1,16
 698 369 698 369 637 369 c 0,17,18
 457 369 457 369 353.5 469 c 128,-1,19
 250 569 250 569 250 741 c 0,20,21
 250 914 250 914 354 1015 c 128,-1,22
 458 1116 458 1116 637 1116 c 0,23,24
 698 1116 698 1116 755 1105 c 128,-1,25
 812 1094 812 1094 864 1071 c 1,0,-1
616 1255 m 0,26,27
 510 1255 510 1255 419.5 1218 c 128,-1,28
 329 1181 329 1181 254 1106 c 256,29,30
 179 1031 179 1031 140.5 939 c 128,-1,31
 102 847 102 847 102 741 c 0,32,33
 102 637 102 637 140.5 545.5 c 128,-1,34
 179 454 179 454 254 379 c 0,35,36
 330 303 330 303 420.5 265 c 128,-1,37
 511 227 511 227 616 227 c 0,38,39
 722 227 722 227 812.5 265 c 128,-1,40
 903 303 903 303 979 379 c 256,41,42
 1055 455 1055 455 1092.5 545.5 c 128,-1,43
 1130 636 1130 636 1130 741 c 0,44,45
 1130 847 1130 847 1092 939 c 128,-1,46
 1054 1031 1054 1031 979 1106 c 256,47,48
 904 1181 904 1181 813.5 1218 c 128,-1,49
 723 1255 723 1255 616 1255 c 0,26,27
616 1358 m 0,50,51
 743 1358 743 1358 852 1313 c 128,-1,52
 961 1268 961 1268 1051 1178 c 0,53,54
 1141 1087 1141 1087 1187 977 c 128,-1,55
 1233 867 1233 867 1233 741 c 0,56,57
 1233 616 1233 616 1187.5 507 c 128,-1,58
 1142 398 1142 398 1051 307 c 256,59,60
 960 216 960 216 851 170.5 c 128,-1,61
 742 125 742 125 616 125 c 0,62,63
 491 125 491 125 382 170.5 c 128,-1,64
 273 216 273 216 182 307 c 256,65,66
 91 398 91 398 45.5 507 c 128,-1,67
 0 616 0 616 0 741 c 0,68,69
 0 867 0 867 46 977 c 128,-1,70
 92 1087 92 1087 182 1178 c 0,71,72
 272 1268 272 1268 381 1313 c 128,-1,73
 490 1358 490 1358 616 1358 c 0,50,51
EndSplineSet
EndChar

StartChar: ordfeminine
Encoding: 170 170 106
Width: 1233
Flags: W
LayerCount: 2
Back
Fore
SplineSet
684 1104 m 2,0,1
 540 1104 540 1104 478 1070 c 128,-1,2
 416 1036 416 1036 416 958 c 0,3,4
 416 894 416 894 459.5 855.5 c 128,-1,5
 503 817 503 817 575 817 c 0,6,7
 680 817 680 817 745.5 888.5 c 128,-1,8
 811 960 811 960 811 1075 c 2,9,-1
 811 1104 l 1,10,-1
 684 1104 l 2,0,1
954 1165 m 2,11,-1
 954 717 l 1,12,-1
 811 717 l 1,13,-1
 811 829 l 1,14,15
 762 764 762 764 696.5 731 c 128,-1,16
 631 698 631 698 549 698 c 0,17,18
 420 698 420 698 345 766 c 128,-1,19
 270 834 270 834 270 950 c 0,20,21
 270 1079 270 1079 363.5 1149 c 128,-1,22
 457 1219 457 1219 629 1219 c 2,23,-1
 811 1219 l 1,24,-1
 811 1223 l 2,25,26
 811 1313 811 1313 751.5 1359 c 128,-1,27
 692 1405 692 1405 575 1405 c 0,28,29
 524 1405 524 1405 461.5 1387.5 c 128,-1,30
 399 1370 399 1370 332 1337 c 1,31,-1
 332 1464 l 1,32,33
 400 1492 400 1492 467.5 1506 c 128,-1,34
 535 1520 535 1520 598 1520 c 0,35,36
 782 1520 782 1520 868 1434 c 128,-1,37
 954 1348 954 1348 954 1165 c 2,11,-1
293 592 m 1,38,-1
 961 592 l 1,39,-1
 961 469 l 1,40,-1
 293 469 l 1,41,-1
 293 592 l 1,38,-1
EndSplineSet
EndChar

StartChar: guillemotleft
Encoding: 171 171 107
Width: 1233
Flags: W
LayerCount: 2
Back
Fore
SplineSet
588 1059 m 1,0,-1
 588 868 l 1,1,-1
 287 600 l 1,2,-1
 588 332 l 1,3,-1
 588 141 l 1,4,-1
 119 559 l 1,5,-1
 119 641 l 1,6,-1
 588 1059 l 1,0,-1
1042 1059 m 1,7,-1
 1042 868 l 1,8,-1
 741 600 l 1,9,-1
 1042 332 l 1,10,-1
 1042 141 l 1,11,-1
 573 559 l 1,12,-1
 573 641 l 1,13,-1
 1042 1059 l 1,7,-1
EndSplineSet
EndChar

StartChar: logicalnot
Encoding: 172 172 108
Width: 1233
Flags: W
LayerCount: 2
Back
Fore
SplineSet
88 862 m 1,0,-1
 1145 862 l 1,1,-1
 1145 371 l 1,2,-1
 977 371 l 1,3,-1
 977 690 l 1,4,-1
 88 690 l 1,5,-1
 88 862 l 1,0,-1
EndSplineSet
EndChar

StartChar: sfthyphen
Encoding: 173 173 109
Width: 1233
Flags: W
LayerCount: 2
Back
Fore
SplineSet
132 744 m 1,0,-1
 1122 744 l 1,1,-1
 1122 555 l 1,2,-1
 132 555 l 1,3,-1
 132 744 l 1,0,-1
EndSplineSet
EndChar

StartChar: registered
Encoding: 174 174 110
Width: 1233
Flags: W
LayerCount: 2
Back
Fore
SplineSet
600 1100 m 2,0,1
 747 1100 747 1100 819 1051 c 128,-1,2
 891 1002 891 1002 891 901 c 0,3,4
 891 830 891 830 847 783.5 c 128,-1,5
 803 737 803 737 723 723 c 1,6,7
 742 718 742 718 771 684.5 c 128,-1,8
 800 651 800 651 838 592 c 2,9,-1
 952 406 l 1,10,-1
 809 406 l 1,11,-1
 702 580 l 2,12,13
 653 660 653 660 622.5 681 c 128,-1,14
 592 702 592 702 547 702 c 2,15,-1
 492 702 l 1,16,-1
 492 406 l 1,17,-1
 362 406 l 1,18,-1
 362 1100 l 1,19,-1
 600 1100 l 2,0,1
594 1016 m 2,20,-1
 492 1016 l 1,21,-1
 492 784 l 1,22,-1
 594 784 l 2,23,24
 684 784 684 784 721 811 c 128,-1,25
 758 838 758 838 758 901 c 0,26,27
 758 963 758 963 721 989.5 c 128,-1,28
 684 1016 684 1016 594 1016 c 2,20,-1
616 1358 m 0,29,30
 743 1358 743 1358 852 1313 c 128,-1,31
 961 1268 961 1268 1051 1178 c 0,32,33
 1141 1087 1141 1087 1187 977 c 128,-1,34
 1233 867 1233 867 1233 741 c 0,35,36
 1233 616 1233 616 1187.5 507 c 128,-1,37
 1142 398 1142 398 1051 307 c 256,38,39
 960 216 960 216 851 170.5 c 128,-1,40
 742 125 742 125 616 125 c 0,41,42
 491 125 491 125 382 170.5 c 128,-1,43
 273 216 273 216 182 307 c 256,44,45
 91 398 91 398 45.5 507 c 128,-1,46
 0 616 0 616 0 741 c 0,47,48
 0 867 0 867 46 977 c 128,-1,49
 92 1087 92 1087 182 1178 c 0,50,51
 272 1268 272 1268 381 1313 c 128,-1,52
 490 1358 490 1358 616 1358 c 0,29,30
616 1255 m 0,53,54
 510 1255 510 1255 419.5 1218 c 128,-1,55
 329 1181 329 1181 254 1106 c 256,56,57
 179 1031 179 1031 140.5 939 c 128,-1,58
 102 847 102 847 102 741 c 0,59,60
 102 637 102 637 140.5 545.5 c 128,-1,61
 179 454 179 454 254 379 c 0,62,63
 330 303 330 303 420.5 265 c 128,-1,64
 511 227 511 227 616 227 c 0,65,66
 722 227 722 227 812.5 265 c 128,-1,67
 903 303 903 303 979 379 c 256,68,69
 1055 455 1055 455 1092.5 545.5 c 128,-1,70
 1130 636 1130 636 1130 741 c 0,71,72
 1130 847 1130 847 1092 939 c 128,-1,73
 1054 1031 1054 1031 979 1106 c 256,74,75
 904 1181 904 1181 813.5 1218 c 128,-1,76
 723 1255 723 1255 616 1255 c 0,53,54
EndSplineSet
EndChar

StartChar: macron
Encoding: 175 175 111
Width: 1233
Flags: W
LayerCount: 2
Back
Fore
SplineSet
117 1526 m 1,0,-1
 1115 1526 l 1,1,-1
 1115 1378 l 1,2,-1
 117 1378 l 1,3,-1
 117 1526 l 1,0,-1
EndSplineSet
EndChar

StartChar: degree
Encoding: 176 176 112
Width: 1233
Flags: W
LayerCount: 2
Back
Fore
SplineSet
616 1520 m 0,0,1
 681 1520 681 1520 739.5 1495.5 c 128,-1,2
 798 1471 798 1471 842 1425 c 0,3,4
 887 1380 887 1380 910.5 1323 c 128,-1,5
 934 1266 934 1266 934 1200 c 0,6,7
 934 1068 934 1068 841 976.5 c 128,-1,8
 748 885 748 885 614 885 c 0,9,10
 479 885 479 885 389 975 c 128,-1,11
 299 1065 299 1065 299 1200 c 0,12,13
 299 1334 299 1334 391 1427 c 128,-1,14
 483 1520 483 1520 616 1520 c 0,0,1
616 1391 m 256,15,16
 537 1391 537 1391 481.5 1335.5 c 128,-1,17
 426 1280 426 1280 426 1200 c 256,18,19
 426 1120 426 1120 480.5 1066 c 128,-1,20
 535 1012 535 1012 614 1012 c 0,21,22
 694 1012 694 1012 750.5 1067 c 128,-1,23
 807 1122 807 1122 807 1200 c 0,24,25
 807 1279 807 1279 751 1335 c 128,-1,26
 695 1391 695 1391 616 1391 c 256,15,16
EndSplineSet
EndChar

StartChar: plusminus
Encoding: 177 177 113
Width: 1233
Flags: W
LayerCount: 2
Back
Fore
SplineSet
88 170 m 1,0,-1
 1145 170 l 1,1,-1
 1145 0 l 1,2,-1
 88 0 l 1,3,-1
 88 170 l 1,0,-1
700 1291 m 1,4,-1
 700 922 l 1,5,-1
 1145 922 l 1,6,-1
 1145 752 l 1,7,-1
 700 752 l 1,8,-1
 700 380 l 1,9,-1
 532 380 l 1,10,-1
 532 752 l 1,11,-1
 88 752 l 1,12,-1
 88 922 l 1,13,-1
 532 922 l 1,14,-1
 532 1291 l 1,15,-1
 700 1291 l 1,4,-1
EndSplineSet
EndChar

StartChar: twosuperior
Encoding: 178 178 114
Width: 1233
Flags: W
LayerCount: 2
Back
Fore
SplineSet
483 782 m 1,0,-1
 893 782 l 1,1,-1
 893 668 l 1,2,-1
 322 668 l 1,3,-1
 322 778 l 1,4,-1
 553 1004 l 2,5,6
 654 1101 654 1101 694.5 1162 c 128,-1,7
 735 1223 735 1223 735 1274 c 0,8,9
 735 1335 735 1335 685 1373 c 128,-1,10
 635 1411 635 1411 553 1411 c 0,11,12
 504 1411 504 1411 447.5 1393 c 128,-1,13
 391 1375 391 1375 328 1339 c 1,14,-1
 328 1464 l 1,15,16
 393 1492 393 1492 453.5 1506 c 128,-1,17
 514 1520 514 1520 573 1520 c 0,18,19
 715 1520 715 1520 801 1453.5 c 128,-1,20
 887 1387 887 1387 887 1280 c 0,21,22
 887 1223 887 1223 850 1163.5 c 128,-1,23
 813 1104 813 1104 694 987 c 2,24,-1
 483 782 l 1,0,-1
EndSplineSet
EndChar

StartChar: threesuperior
Encoding: 179 179 115
Width: 1233
Flags: W
LayerCount: 2
Back
Fore
SplineSet
731 1120 m 1,0,1
 825 1099 825 1099 874.5 1045 c 128,-1,2
 924 991 924 991 924 911 c 0,3,4
 924 787 924 787 829 720 c 128,-1,5
 734 653 734 653 557 653 c 0,6,7
 499 653 499 653 442 663.5 c 128,-1,8
 385 674 385 674 326 694 c 1,9,-1
 326 815 l 1,10,11
 395 788 395 788 451.5 775 c 128,-1,12
 508 762 508 762 553 762 c 0,13,14
 654 762 654 762 713 802.5 c 128,-1,15
 772 843 772 843 772 911 c 0,16,17
 772 985 772 985 717 1023 c 128,-1,18
 662 1061 662 1061 553 1061 c 2,19,-1
 487 1061 l 1,20,-1
 487 1169 l 1,21,-1
 561 1169 l 2,22,23
 654 1169 654 1169 703 1200.5 c 128,-1,24
 752 1232 752 1232 752 1292 c 0,25,26
 752 1348 752 1348 704 1379.5 c 128,-1,27
 656 1411 656 1411 569 1411 c 0,28,29
 525 1411 525 1411 469 1399 c 128,-1,30
 413 1387 413 1387 354 1364 c 1,31,-1
 354 1485 l 1,32,33
 423 1502 423 1502 481.5 1511 c 128,-1,34
 540 1520 540 1520 590 1520 c 0,35,36
 735 1520 735 1520 819 1461 c 128,-1,37
 903 1402 903 1402 903 1303 c 0,38,39
 903 1232 903 1232 859 1185.5 c 128,-1,40
 815 1139 815 1139 731 1120 c 1,0,1
EndSplineSet
EndChar

StartChar: acute
Encoding: 180 180 116
Width: 1233
Flags: W
LayerCount: 2
Back
Fore
SplineSet
756 1638 m 1,0,-1
 954 1638 l 1,1,-1
 629 1262 l 1,2,-1
 475 1262 l 1,3,-1
 756 1638 l 1,0,-1
EndSplineSet
EndChar

StartChar: mu
Encoding: 181 181 117
Width: 1233
Flags: W
LayerCount: 2
Back
Fore
SplineSet
195 -428 m 1,0,-1
 195 1120 l 1,1,-1
 379 1120 l 1,2,-1
 379 424 l 2,3,4
 379 282 379 282 439 206.5 c 128,-1,5
 499 131 499 131 610 131 c 0,6,7
 737 131 737 131 801.5 216 c 128,-1,8
 866 301 866 301 866 467 c 2,9,-1
 866 1120 l 1,10,-1
 1051 1120 l 1,11,-1
 1051 256 l 2,12,13
 1051 197 1051 197 1067 169 c 128,-1,14
 1083 141 1083 141 1116 141 c 0,15,16
 1125 141 1125 141 1139.5 146 c 128,-1,17
 1154 151 1154 151 1182 164 c 1,18,-1
 1182 16 l 1,19,20
 1144 -7 1144 -7 1110 -18 c 128,-1,21
 1076 -29 1076 -29 1042 -29 c 0,22,23
 980 -29 980 -29 942.5 10.5 c 128,-1,24
 905 50 905 50 893 129 c 1,25,26
 847 49 847 49 780.5 10 c 128,-1,27
 714 -29 714 -29 625 -29 c 0,28,29
 533 -29 533 -29 469.5 9 c 128,-1,30
 406 47 406 47 362 127 c 1,31,-1
 362 -428 l 1,32,-1
 195 -428 l 1,0,-1
EndSplineSet
EndChar

StartChar: paragraph
Encoding: 182 182 118
Width: 1233
Flags: W
LayerCount: 2
Back
Fore
SplineSet
582 1493 m 2,0,-1
 1030 1493 l 1,1,-1
 1030 -197 l 1,2,-1
 889 -197 l 1,3,-1
 889 1370 l 1,4,-1
 698 1370 l 1,5,-1
 698 -197 l 1,6,-1
 557 -197 l 1,7,-1
 557 649 l 1,8,9
 342 666 342 666 224 776.5 c 128,-1,10
 106 887 106 887 106 1071 c 0,11,12
 106 1261 106 1261 236.5 1377 c 128,-1,13
 367 1493 367 1493 582 1493 c 2,0,-1
EndSplineSet
EndChar

StartChar: periodcentered
Encoding: 183 183 119
Width: 1233
Flags: W
LayerCount: 2
Back
Fore
SplineSet
489 864 m 1,0,-1
 741 864 l 1,1,-1
 741 559 l 1,2,-1
 489 559 l 1,3,-1
 489 864 l 1,0,-1
EndSplineSet
EndChar

StartChar: onesuperior
Encoding: 185 185 121
Width: 1233
Flags: W
LayerCount: 2
Back
Fore
SplineSet
362 778 m 1,0,-1
 567 778 l 1,1,-1
 567 1389 l 1,2,-1
 344 1348 l 1,3,-1
 344 1464 l 1,4,-1
 573 1503 l 1,5,-1
 711 1503 l 1,6,-1
 711 778 l 1,7,-1
 915 778 l 1,8,-1
 915 668 l 1,9,-1
 362 668 l 1,10,-1
 362 778 l 1,0,-1
EndSplineSet
EndChar

StartChar: ordmasculine
Encoding: 186 186 122
Width: 1233
Flags: W
LayerCount: 2
Back
Fore
SplineSet
616 1403 m 0,0,1
 514 1403 514 1403 456.5 1325 c 128,-1,2
 399 1247 399 1247 399 1108 c 256,3,4
 399 969 399 969 456.5 892 c 128,-1,5
 514 815 514 815 616 815 c 0,6,7
 717 815 717 815 775.5 893.5 c 128,-1,8
 834 972 834 972 834 1108 c 0,9,10
 834 1247 834 1247 776.5 1325 c 128,-1,11
 719 1403 719 1403 616 1403 c 0,0,1
616 1520 m 0,12,13
 786 1520 786 1520 887.5 1408 c 128,-1,14
 989 1296 989 1296 989 1108 c 0,15,16
 989 921 989 921 888 809.5 c 128,-1,17
 787 698 787 698 616 698 c 0,18,19
 446 698 446 698 345 809.5 c 128,-1,20
 244 921 244 921 244 1108 c 0,21,22
 244 1296 244 1296 345.5 1408 c 128,-1,23
 447 1520 447 1520 616 1520 c 0,12,13
276 592 m 1,24,-1
 952 592 l 1,25,-1
 952 469 l 1,26,-1
 276 469 l 1,27,-1
 276 592 l 1,24,-1
EndSplineSet
EndChar

StartChar: guillemotright
Encoding: 187 187 123
Width: 1233
Flags: W
LayerCount: 2
Back
Fore
SplineSet
647 1059 m 1,0,-1
 1116 641 l 1,1,-1
 1116 559 l 1,2,-1
 647 141 l 1,3,-1
 647 332 l 1,4,-1
 948 600 l 1,5,-1
 647 868 l 1,6,-1
 647 1059 l 1,0,-1
193 1059 m 1,7,-1
 662 641 l 1,8,-1
 662 559 l 1,9,-1
 193 141 l 1,10,-1
 193 332 l 1,11,-1
 494 600 l 1,12,-1
 193 868 l 1,13,-1
 193 1059 l 1,7,-1
EndSplineSet
EndChar

StartChar: questiondown
Encoding: 191 191 127
Width: 1233
Flags: W
LayerCount: 2
Back
Fore
SplineSet
549 1092 m 1,0,-1
 739 1092 l 1,1,-1
 739 938 l 2,2,3
 739 840 739 840 708.5 771.5 c 128,-1,4
 678 703 678 703 594 621 c 2,5,-1
 504 532 l 2,6,7
 442 473 442 473 418.5 429 c 128,-1,8
 395 385 395 385 395 336 c 0,9,10
 395 247 395 247 460.5 192 c 128,-1,11
 526 137 526 137 635 137 c 0,12,13
 713 137 713 137 802 171.5 c 128,-1,14
 891 206 891 206 989 274 c 1,15,-1
 989 86 l 1,16,17
 895 29 895 29 799.5 1 c 128,-1,18
 704 -27 704 -27 600 -27 c 0,19,20
 414 -27 414 -27 303.5 69 c 128,-1,21
 193 165 193 165 193 326 c 0,22,23
 193 402 193 402 226.5 467.5 c 128,-1,24
 260 533 260 533 354 625 c 2,25,-1
 442 711 l 2,26,27
 509 775 509 775 528 817 c 128,-1,28
 547 859 547 859 547 922 c 0,29,30
 547 923 547 923 547 927 c 0,31,32
 549 950 549 950 549 969 c 2,33,-1
 549 1092 l 1,0,-1
745 1239 m 1,34,-1
 543 1239 l 1,35,-1
 543 1493 l 1,36,-1
 745 1493 l 1,37,-1
 745 1239 l 1,34,-1
EndSplineSet
EndChar

StartChar: Aring
Encoding: 197 197 133
Width: 1233
Flags: W
LayerCount: 2
Back
Fore
SplineSet
768 1626 m 256,0,1
 768 1689 768 1689 723.5 1733.5 c 128,-1,2
 679 1778 679 1778 616 1778 c 0,3,4
 552 1778 552 1778 508.5 1734.5 c 128,-1,5
 465 1691 465 1691 465 1626 c 0,6,7
 465 1563 465 1563 509 1519 c 128,-1,8
 553 1475 553 1475 616 1475 c 256,9,10
 679 1475 679 1475 723.5 1519 c 128,-1,11
 768 1563 768 1563 768 1626 c 256,0,1
616 1311 m 1,12,-1
 403 551 l 1,13,-1
 829 551 l 1,14,-1
 616 1311 l 1,12,-1
465 1399 m 1,15,16
 407 1432 407 1432 374.5 1492.5 c 128,-1,17
 342 1553 342 1553 342 1626 c 0,18,19
 342 1740 342 1740 422 1820.5 c 128,-1,20
 502 1901 502 1901 616 1901 c 256,21,22
 730 1901 730 1901 810.5 1820.5 c 128,-1,23
 891 1740 891 1740 891 1626 c 0,24,25
 891 1553 891 1553 859 1494 c 128,-1,26
 827 1435 827 1435 768 1399 c 1,27,-1
 1196 0 l 1,28,-1
 987 0 l 1,29,-1
 877 389 l 1,30,-1
 354 389 l 1,31,-1
 246 0 l 1,32,-1
 37 0 l 1,33,-1
 465 1399 l 1,15,16
EndSplineSet
EndChar

StartChar: AE
Encoding: 198 198 134
Width: 1233
Flags: W
LayerCount: 2
Back
Fore
SplineSet
1161 1493 m 1,0,-1
 1161 1323 l 1,1,-1
 823 1323 l 1,2,-1
 823 881 l 1,3,-1
 1130 881 l 1,4,-1
 1130 711 l 1,5,-1
 823 711 l 1,6,-1
 823 170 l 1,7,-1
 1180 170 l 1,8,-1
 1180 0 l 1,9,-1
 637 0 l 1,10,-1
 637 383 l 1,11,-1
 285 383 l 1,12,-1
 184 0 l 1,13,-1
 0 0 l 1,14,-1
 410 1493 l 1,15,-1
 1161 1493 l 1,0,-1
530 1323 m 1,16,-1
 328 551 l 1,17,-1
 637 551 l 1,18,-1
 637 1323 l 1,19,-1
 530 1323 l 1,16,-1
EndSplineSet
EndChar

StartChar: Eth
Encoding: 208 208 144
Width: 1233
Flags: W
LayerCount: 2
Back
Fore
SplineSet
436 1493 m 2,0,1
 778 1493 778 1493 940 1311 c 128,-1,2
 1102 1129 1102 1129 1102 745 c 0,3,4
 1102 363 1102 363 939.5 181.5 c 128,-1,5
 777 0 777 0 436 0 c 2,6,-1
 133 0 l 1,7,-1
 133 709 l 1,8,-1
 8 709 l 1,9,-1
 8 858 l 1,10,-1
 133 858 l 1,11,-1
 133 1493 l 1,12,-1
 436 1493 l 2,0,1
436 166 m 2,13,14
 691 166 691 166 792 291.5 c 128,-1,15
 893 417 893 417 893 745 c 0,16,17
 893 1076 893 1076 792.5 1201.5 c 128,-1,18
 692 1327 692 1327 436 1327 c 2,19,-1
 340 1327 l 1,20,-1
 340 858 l 1,21,-1
 604 858 l 1,22,-1
 604 709 l 1,23,-1
 340 709 l 1,24,-1
 340 166 l 1,25,-1
 436 166 l 2,13,14
EndSplineSet
EndChar

StartChar: multiply
Encoding: 215 215 151
Width: 1233
Flags: W
LayerCount: 2
Back
Fore
SplineSet
150 293 m 1,0,-1
 500 641 l 1,1,-1
 150 991 l 1,2,-1
 266 1108 l 1,3,-1
 616 758 l 1,4,-1
 967 1108 l 1,5,-1
 1083 991 l 1,6,-1
 733 641 l 1,7,-1
 1081 293 l 1,8,-1
 965 174 l 1,9,-1
 616 524 l 1,10,-1
 268 174 l 1,11,-1
 150 293 l 1,0,-1
EndSplineSet
EndChar

StartChar: Oslash
Encoding: 216 216 152
Width: 1233
Flags: W
LayerCount: 2
Back
Fore
SplineSet
371 303 m 1,0,1
 401 225 401 225 466.5 180 c 128,-1,2
 532 135 532 135 616 135 c 0,3,4
 770 135 770 135 837.5 275.5 c 128,-1,5
 905 416 905 416 905 745 c 0,6,7
 905 855 905 855 900 923 c 128,-1,8
 895 991 895 991 885 1036 c 1,9,-1
 371 303 l 1,0,1
338 471 m 1,10,-1
 842 1190 l 1,11,12
 817 1271 817 1271 759.5 1313.5 c 128,-1,13
 702 1356 702 1356 616 1356 c 0,14,15
 459 1356 459 1356 393.5 1210 c 128,-1,16
 328 1064 328 1064 328 686 c 0,17,18
 328 606 328 606 330.5 555.5 c 128,-1,19
 333 505 333 505 338 471 c 1,10,-1
1032 1247 m 1,20,21
 1073 1166 1073 1166 1094.5 1037 c 128,-1,22
 1116 908 1116 908 1116 745 c 0,23,24
 1116 355 1116 355 992.5 163 c 128,-1,25
 869 -29 869 -29 616 -29 c 0,26,27
 495 -29 495 -29 405 11.5 c 128,-1,28
 315 52 315 52 254 133 c 1,29,-1
 111 -70 l 1,30,-1
 8 0 l 1,31,-1
 186 252 l 1,32,33
 154 325 154 325 135.5 456 c 128,-1,34
 117 587 117 587 117 745 c 0,35,36
 117 1136 117 1136 240.5 1328 c 128,-1,37
 364 1520 364 1520 616 1520 c 0,38,39
 731 1520 731 1520 817.5 1479 c 128,-1,40
 904 1438 904 1438 961 1358 c 1,41,-1
 1100 1559 l 1,42,-1
 1200 1485 l 1,43,-1
 1032 1247 l 1,20,21
EndSplineSet
EndChar

StartChar: Thorn
Encoding: 222 222 158
Width: 1233
Flags: W
LayerCount: 2
Back
Fore
SplineSet
403 1057 m 1,0,-1
 403 532 l 1,1,-1
 637 532 l 2,2,3
 795 532 795 532 873.5 598 c 128,-1,4
 952 664 952 664 952 795 c 256,5,6
 952 926 952 926 873.5 991.5 c 128,-1,7
 795 1057 795 1057 637 1057 c 2,8,-1
 403 1057 l 1,0,-1
201 1493 m 1,9,-1
 403 1493 l 1,10,-1
 403 1223 l 1,11,-1
 657 1223 l 2,12,13
 917 1223 917 1223 1041 1118 c 128,-1,14
 1165 1013 1165 1013 1165 795 c 0,15,16
 1165 576 1165 576 1041 471.5 c 128,-1,17
 917 367 917 367 657 367 c 2,18,-1
 403 367 l 1,19,-1
 403 0 l 1,20,-1
 201 0 l 1,21,-1
 201 1493 l 1,9,-1
EndSplineSet
EndChar

StartChar: germandbls
Encoding: 223 223 159
Width: 1233
Flags: W
LayerCount: 2
Back
Fore
SplineSet
188 1137 m 2,0,1
 188 1350 188 1350 293 1453 c 128,-1,2
 398 1556 398 1556 614 1556 c 0,3,4
 818 1556 818 1556 923 1445.5 c 128,-1,5
 1028 1335 1028 1335 1030 1119 c 1,6,7
 875 1105 875 1105 791 1043 c 128,-1,8
 707 981 707 981 707 881 c 0,9,10
 707 832 707 832 734.5 793.5 c 128,-1,11
 762 755 762 755 829 713 c 2,12,-1
 887 676 l 2,13,14
 1038 583 1038 583 1093.5 501 c 128,-1,15
 1149 419 1149 419 1149 303 c 0,16,17
 1149 149 1149 149 1037 60 c 128,-1,18
 925 -29 925 -29 729 -29 c 0,19,20
 660 -29 660 -29 592.5 -16.5 c 128,-1,21
 525 -4 525 -4 459 20 c 1,22,-1
 459 184 l 1,23,24
 535 153 535 153 601.5 138 c 128,-1,25
 668 123 668 123 727 123 c 0,26,27
 835 123 835 123 899 171.5 c 128,-1,28
 963 220 963 220 963 301 c 0,29,30
 963 372 963 372 930.5 419.5 c 128,-1,31
 898 467 898 467 778 541 c 2,32,-1
 711 580 l 2,33,34
 619 636 619 636 573.5 702.5 c 128,-1,35
 528 769 528 769 528 848 c 0,36,37
 528 976 528 976 609 1061.5 c 128,-1,38
 690 1147 690 1147 846 1182 c 1,39,40
 844 1289 844 1289 783.5 1346 c 128,-1,41
 723 1403 723 1403 610 1403 c 0,42,43
 489 1403 489 1403 432 1337.5 c 128,-1,44
 375 1272 375 1272 375 1133 c 2,45,-1
 375 0 l 1,46,-1
 188 0 l 1,47,-1
 188 1137 l 2,0,1
EndSplineSet
EndChar

StartChar: ae
Encoding: 230 230 166
Width: 1233
Flags: W
LayerCount: 2
Back
Fore
SplineSet
543 442 m 2,0,-1
 543 514 l 1,1,-1
 494 514 l 2,2,3
 325 514 325 514 265 469 c 128,-1,4
 205 424 205 424 205 311 c 0,5,6
 205 222 205 222 249.5 173.5 c 128,-1,7
 294 125 294 125 377 125 c 0,8,9
 469 125 469 125 506 191.5 c 128,-1,10
 543 258 543 258 543 442 c 2,0,-1
1036 657 m 1,11,-1
 1036 709 l 2,12,13
 1036 860 1036 860 997.5 926.5 c 128,-1,14
 959 993 959 993 872 993 c 256,15,16
 785 993 785 993 747 925 c 128,-1,17
 709 857 709 857 709 700 c 2,18,-1
 709 657 l 1,19,-1
 1036 657 l 1,11,-1
1200 514 m 1,20,-1
 709 514 l 1,21,22
 708 499 708 499 707.5 481.5 c 128,-1,23
 707 464 707 464 707 430 c 0,24,25
 707 269 707 269 757.5 197 c 128,-1,26
 808 125 808 125 920 125 c 0,27,28
 999 125 999 125 1063.5 150.5 c 128,-1,29
 1128 176 1128 176 1178 227 c 1,30,-1
 1178 55 l 1,31,32
 1123 14 1123 14 1057 -7.5 c 128,-1,33
 991 -29 991 -29 920 -29 c 0,34,35
 810 -29 810 -29 735.5 12 c 128,-1,36
 661 53 661 53 629 131 c 1,37,38
 590 51 590 51 523.5 11 c 128,-1,39
 457 -29 457 -29 360 -29 c 0,40,41
 204 -29 204 -29 122.5 57 c 128,-1,42
 41 143 41 143 41 307 c 0,43,44
 41 478 41 478 141 567.5 c 128,-1,45
 241 657 241 657 432 657 c 2,46,-1
 549 657 l 1,47,-1
 549 745 l 2,48,49
 549 865 549 865 499.5 929 c 128,-1,50
 450 993 450 993 356 993 c 0,51,52
 300 993 300 993 234 971.5 c 128,-1,53
 168 950 168 950 106 911 c 1,54,-1
 106 1079 l 1,55,56
 183 1114 183 1114 249 1130.5 c 128,-1,57
 315 1147 315 1147 375 1147 c 0,58,59
 466 1147 466 1147 528 1115.5 c 128,-1,60
 590 1084 590 1084 627 1020 c 1,61,62
 660 1081 660 1081 726 1114 c 128,-1,63
 792 1147 792 1147 881 1147 c 0,64,65
 1055 1147 1055 1147 1127.5 1028.5 c 128,-1,66
 1200 910 1200 910 1200 604 c 2,67,-1
 1200 514 l 1,20,-1
EndSplineSet
EndChar

StartChar: eth
Encoding: 240 240 176
Width: 1233
Flags: W
LayerCount: 2
Back
Fore
SplineSet
717 1327 m 1,0,1
 914 1115 914 1115 1005 925 c 128,-1,2
 1096 735 1096 735 1096 535 c 0,3,4
 1096 267 1096 267 970.5 119 c 128,-1,5
 845 -29 845 -29 616 -29 c 0,6,7
 388 -29 388 -29 262.5 119 c 128,-1,8
 137 267 137 267 137 535 c 0,9,10
 137 800 137 800 262.5 948 c 128,-1,11
 388 1096 388 1096 612 1096 c 0,12,13
 646 1096 646 1096 663.5 1095 c 128,-1,14
 681 1094 681 1094 696 1092 c 1,15,16
 663 1137 663 1137 627 1181.5 c 128,-1,17
 591 1226 591 1226 553 1270 c 1,18,-1
 274 1178 l 1,19,-1
 244 1276 l 1,20,-1
 481 1356 l 1,21,-1
 299 1556 l 1,22,-1
 518 1556 l 1,23,-1
 645 1411 l 1,24,-1
 934 1505 l 1,25,-1
 967 1407 l 1,26,-1
 717 1327 l 1,0,1
793 918 m 1,27,28
 758 931 758 931 717 937.5 c 128,-1,29
 676 944 676 944 631 944 c 0,30,31
 485 944 485 944 408.5 839 c 128,-1,32
 332 734 332 734 332 535 c 0,33,34
 332 339 332 339 406 233 c 128,-1,35
 480 127 480 127 616 127 c 0,36,37
 753 127 753 127 827 233 c 128,-1,38
 901 339 901 339 901 535 c 0,39,40
 901 645 901 645 872 746.5 c 128,-1,41
 843 848 843 848 793 918 c 1,27,28
EndSplineSet
EndChar

StartChar: divide
Encoding: 247 247 183
Width: 1233
Flags: W
LayerCount: 2
Back
Fore
SplineSet
494 395 m 1,0,-1
 739 395 l 1,1,-1
 739 150 l 1,2,-1
 494 150 l 1,3,-1
 494 395 l 1,0,-1
494 1135 m 1,4,-1
 739 1135 l 1,5,-1
 739 889 l 1,6,-1
 494 889 l 1,7,-1
 494 1135 l 1,4,-1
88 727 m 1,8,-1
 1145 727 l 1,9,-1
 1145 557 l 1,10,-1
 88 557 l 1,11,-1
 88 727 l 1,8,-1
EndSplineSet
EndChar

StartChar: oslash
Encoding: 248 248 184
Width: 1233
Flags: W
LayerCount: 2
Back
Fore
SplineSet
877 780 m 1,0,-1
 414 221 l 1,1,2
 450 174 450 174 500.5 150.5 c 128,-1,3
 551 127 551 127 616 127 c 0,4,5
 757 127 757 127 829 236.5 c 128,-1,6
 901 346 901 346 901 559 c 0,7,8
 901 611 901 611 895 666.5 c 128,-1,9
 889 722 889 722 877 780 c 1,0,-1
817 897 m 1,10,11
 782 945 782 945 732.5 968 c 128,-1,12
 683 991 683 991 616 991 c 0,13,14
 477 991 477 991 402.5 884 c 128,-1,15
 328 777 328 777 328 575 c 0,16,17
 328 527 328 527 335 469 c 128,-1,18
 342 411 342 411 356 340 c 1,19,-1
 817 897 l 1,10,11
217 180 m 1,20,21
 178 251 178 251 157.5 348.5 c 128,-1,22
 137 446 137 446 137 559 c 0,23,24
 137 845 137 845 260 996 c 128,-1,25
 383 1147 383 1147 616 1147 c 0,26,27
 716 1147 716 1147 795 1119.5 c 128,-1,28
 874 1092 874 1092 934 1036 c 1,29,-1
 1081 1212 l 1,30,-1
 1174 1135 l 1,31,-1
 1010 940 l 1,32,33
 1052 874 1052 874 1074 777.5 c 128,-1,34
 1096 681 1096 681 1096 559 c 0,35,36
 1096 272 1096 272 973 121.5 c 128,-1,37
 850 -29 850 -29 616 -29 c 0,38,39
 513 -29 513 -29 434.5 0.5 c 128,-1,40
 356 30 356 30 299 90 c 1,41,-1
 139 -96 l 1,42,-1
 47 -20 l 1,43,-1
 217 180 l 1,20,21
EndSplineSet
EndChar

StartChar: thorn
Encoding: 254 254 190
Width: 1233
Flags: W
LayerCount: 2
Back
Fore
SplineSet
375 141 m 1,0,-1
 375 -426 l 1,1,-1
 190 -426 l 1,2,-1
 190 1567 l 1,3,-1
 375 1567 l 1,4,-1
 375 977 l 1,5,6
 421 1060 421 1060 497.5 1103.5 c 128,-1,7
 574 1147 574 1147 674 1147 c 0,8,9
 877 1147 877 1147 992.5 990 c 128,-1,10
 1108 833 1108 833 1108 555 c 0,11,12
 1108 282 1108 282 992 126.5 c 128,-1,13
 876 -29 876 -29 674 -29 c 0,14,15
 572 -29 572 -29 495.5 14.5 c 128,-1,16
 419 58 419 58 375 141 c 1,0,-1
915 559 m 256,17,18
 915 773 915 773 847.5 882 c 128,-1,19
 780 991 780 991 647 991 c 0,20,21
 513 991 513 991 444 881.5 c 128,-1,22
 375 772 375 772 375 559 c 0,23,24
 375 347 375 347 444 237 c 128,-1,25
 513 127 513 127 647 127 c 0,26,27
 780 127 780 127 847.5 236 c 128,-1,28
 915 345 915 345 915 559 c 256,17,18
EndSplineSet
EndChar

StartChar: dcroat
Encoding: 273 273 209
Width: 1233
Flags: W
LayerCount: 2
Back
Fore
SplineSet
858 977 m 1,0,-1
 858 1286 l 1,1,-1
 553 1286 l 1,2,-1
 553 1407 l 1,3,-1
 858 1407 l 1,4,-1
 858 1556 l 1,5,-1
 1042 1556 l 1,6,-1
 1042 1407 l 1,7,-1
 1233 1407 l 1,8,-1
 1233 1286 l 1,9,-1
 1042 1286 l 1,10,-1
 1042 0 l 1,11,-1
 858 0 l 1,12,-1
 858 141 l 1,13,14
 812 58 812 58 735.5 14.5 c 128,-1,15
 659 -29 659 -29 559 -29 c 0,16,17
 356 -29 356 -29 239.5 128.5 c 128,-1,18
 123 286 123 286 123 563 c 0,19,20
 123 836 123 836 240 991.5 c 128,-1,21
 357 1147 357 1147 559 1147 c 0,22,23
 660 1147 660 1147 737 1103.5 c 128,-1,24
 814 1060 814 1060 858 977 c 1,0,-1
317 559 m 256,25,26
 317 345 317 345 385 236 c 128,-1,27
 453 127 453 127 586 127 c 256,28,29
 719 127 719 127 788.5 237 c 128,-1,30
 858 347 858 347 858 559 c 0,31,32
 858 772 858 772 788.5 881.5 c 128,-1,33
 719 991 719 991 586 991 c 256,34,35
 453 991 453 991 385 882 c 128,-1,36
 317 773 317 773 317 559 c 256,25,26
EndSplineSet
EndChar

StartChar: Hbar
Encoding: 294 294 230
Width: 1233
Flags: W
LayerCount: 2
Back
Fore
SplineSet
137 1493 m 1,0,-1
 339 1493 l 1,1,-1
 339 1269 l 1,2,-1
 893 1269 l 1,3,-1
 893 1493 l 1,4,-1
 1095 1493 l 1,5,-1
 1095 1269 l 1,6,-1
 1230 1269 l 1,7,-1
 1230 1105 l 1,8,-1
 1095 1105 l 1,9,-1
 1095 0 l 1,10,-1
 893 0 l 1,11,-1
 893 711 l 1,12,-1
 339 711 l 1,13,-1
 339 0 l 1,14,-1
 137 0 l 1,15,-1
 137 1105 l 1,16,-1
 3 1105 l 1,17,-1
 3 1269 l 1,18,-1
 137 1269 l 1,19,-1
 137 1493 l 1,0,-1
339 1105 m 1,20,-1
 339 881 l 1,21,-1
 893 881 l 1,22,-1
 893 1105 l 1,23,-1
 339 1105 l 1,20,-1
EndSplineSet
EndChar

StartChar: hbar
Encoding: 295 295 231
Width: 1233
Flags: W
LayerCount: 2
Back
Fore
SplineSet
1051 694 m 2,0,-1
 1051 0 l 1,1,-1
 866 0 l 1,2,-1
 866 694 l 2,3,4
 866 845 866 845 813 916 c 128,-1,5
 760 987 760 987 647 987 c 0,6,7
 518 987 518 987 448.5 895.5 c 128,-1,8
 379 804 379 804 379 633 c 2,9,-1
 379 0 l 1,10,-1
 195 0 l 1,11,-1
 195 1270 l 1,12,-1
 70 1270 l 1,13,-1
 70 1434 l 1,14,-1
 195 1434 l 1,15,-1
 195 1556 l 1,16,-1
 379 1556 l 1,17,-1
 379 1434 l 1,18,-1
 732 1434 l 1,19,-1
 732 1270 l 1,20,-1
 379 1270 l 1,21,-1
 379 952 l 1,22,23
 428 1048 428 1048 512 1097.5 c 128,-1,24
 596 1147 596 1147 711 1147 c 0,25,26
 882 1147 882 1147 966.5 1034.5 c 128,-1,27
 1051 922 1051 922 1051 694 c 2,0,-1
EndSplineSet
EndChar

StartChar: dotlessi
Encoding: 305 305 241
Width: 1233
Flags: W
LayerCount: 2
Back
Fore
SplineSet
256 1120 m 1,0,-1
 727 1120 l 1,1,-1
 727 143 l 1,2,-1
 1092 143 l 1,3,-1
 1092 0 l 1,4,-1
 178 0 l 1,5,-1
 178 143 l 1,6,-1
 543 143 l 1,7,-1
 543 977 l 1,8,-1
 256 977 l 1,9,-1
 256 1120 l 1,0,-1
EndSplineSet
EndChar

StartChar: IJ
Encoding: 306 306 242
Width: 1233
Flags: W
LayerCount: 2
Back
Fore
SplineSet
652 64 m 1,0,-1
 652 300 l 1,1,2
 713 219 713 219 779 178.5 c 128,-1,3
 845 138 845 138 916 138 c 0,4,5
 1013 138 1013 138 1052 212 c 0,6,7
 1090 287 1090 287 1090 490 c 2,8,-1
 1090 1326 l 1,9,-1
 831 1326 l 1,10,-1
 831 1496 l 1,11,-1
 1228 1496 l 1,12,-1
 1228 490 l 2,13,14
 1228 208 1228 208 1156 91 c 256,15,16
 1084 -26 1084 -26 916 -26 c 0,17,18
 851 -26 851 -26 786 -4 c 0,19,20
 722 18 722 18 652 64 c 1,0,-1
-1 1493 m 1,21,-1
 604 1493 l 1,22,-1
 604 1323 l 1,23,-1
 376 1323 l 1,24,-1
 376 170 l 1,25,-1
 604 170 l 1,26,-1
 604 0 l 1,27,-1
 -1 0 l 1,28,-1
 -1 170 l 1,29,-1
 227 170 l 1,30,-1
 227 1323 l 1,31,-1
 -1 1323 l 1,32,-1
 -1 1493 l 1,21,-1
EndSplineSet
EndChar

StartChar: ij
Encoding: 307 307 243
Width: 1233
Flags: W
LayerCount: 2
Back
Fore
SplineSet
978 -31 m 2,0,-1
 978 966 l 1,1,-1
 661 966 l 1,2,-1
 661 1109 l 1,3,-1
 1162 1109 l 1,4,-1
 1162 -31 l 2,5,6
 1162 -226 1162 -226 1072.5 -331.5 c 128,-1,7
 983 -437 983 -437 818 -437 c 2,8,-1
 564 -437 l 1,9,-1
 564 -281 l 1,10,-1
 798 -281 l 2,11,12
 888 -281 888 -281 933 -218.5 c 128,-1,13
 978 -156 978 -156 978 -31 c 2,0,-1
978 1545 m 1,14,-1
 1162 1545 l 1,15,-1
 1162 1312 l 1,16,-1
 978 1312 l 1,17,-1
 978 1545 l 1,14,-1
59 1120 m 1,18,-1
 445 1120 l 1,19,-1
 445 143 l 1,20,-1
 745 143 l 1,21,-1
 745 0 l 1,22,-1
 -5 0 l 1,23,-1
 -5 143 l 1,24,-1
 294 143 l 1,25,-1
 294 977 l 1,26,-1
 59 977 l 1,27,-1
 59 1120 l 1,18,-1
294 1556 m 1,28,-1
 445 1556 l 1,29,-1
 445 1323 l 1,30,-1
 294 1323 l 1,31,-1
 294 1556 l 1,28,-1
EndSplineSet
EndChar

StartChar: kgreenlandic
Encoding: 312 312 248
Width: 1233
Flags: W
LayerCount: 2
Back
Fore
SplineSet
236 1120 m 1,0,-1
 426 1120 l 1,1,-1
 426 655 l 1,2,-1
 909 1120 l 1,3,-1
 1133 1120 l 1,4,-1
 692 698 l 1,5,-1
 1202 0 l 1,6,-1
 977 0 l 1,7,-1
 563 578 l 1,8,-1
 426 449 l 1,9,-1
 426 0 l 1,10,-1
 236 0 l 1,11,-1
 236 1120 l 1,0,-1
EndSplineSet
EndChar

StartChar: Eng
Encoding: 330 330 258
Width: 1233
Flags: W
LayerCount: 2
Back
Fore
SplineSet
1085 999 m 2,0,-1
 1085 -20 l 2,1,2
 1085 -215 1085 -215 996 -320 c 0,3,4
 906 -426 906 -426 741 -426 c 2,5,-1
 536 -426 l 1,6,-1
 536 -270 l 1,7,-1
 703 -270 l 2,8,9
 793 -270 793 -270 838 -208 c 0,10,11
 882 -146 882 -146 882 0 c 2,12,-1
 882 1009 l 2,13,14
 882 1189 882 1189 824 1273.5 c 128,-1,15
 766 1358 766 1358 642 1358 c 0,16,17
 501 1358 501 1358 425 1249 c 128,-1,18
 349 1140 349 1140 349 937 c 2,19,-1
 349 0 l 1,20,-1
 147 0 l 1,21,-1
 147 1493 l 1,22,-1
 349 1493 l 1,23,-1
 349 1295 l 1,24,25
 403 1406 403 1406 495 1464 c 128,-1,26
 587 1522 587 1522 713 1522 c 0,27,28
 900 1522 900 1522 992.5 1391.5 c 128,-1,29
 1085 1261 1085 1261 1085 999 c 2,0,-1
EndSplineSet
EndChar

StartChar: eng
Encoding: 331 331 259
Width: 1233
Flags: W
LayerCount: 2
Back
Fore
SplineSet
1051 694 m 2,0,-1
 1051 -20 l 2,1,2
 1051 -215 1051 -215 962 -320 c 0,3,4
 872 -426 872 -426 707 -426 c 2,5,-1
 502 -426 l 1,6,-1
 502 -270 l 1,7,-1
 687 -270 l 2,8,9
 777 -270 777 -270 822 -208 c 0,10,11
 866 -146 866 -146 866 -20 c 2,12,-1
 866 694 l 2,13,14
 866 845 866 845 813 916 c 128,-1,15
 760 987 760 987 647 987 c 0,16,17
 518 987 518 987 448 896 c 0,18,19
 379 804 379 804 379 633 c 2,20,-1
 379 0 l 1,21,-1
 195 0 l 1,22,-1
 195 1120 l 1,23,-1
 379 1120 l 1,24,-1
 379 952 l 1,25,26
 428 1048 428 1048 512 1098 c 0,27,28
 596 1147 596 1147 711 1147 c 0,29,30
 882 1147 882 1147 966 1034 c 0,31,32
 1051 922 1051 922 1051 694 c 2,0,-1
EndSplineSet
EndChar

StartChar: OE
Encoding: 338 338 266
Width: 1233
Flags: W
LayerCount: 2
Back
Fore
SplineSet
1217 170 m 1,0,-1
 1217 0 l 1,1,-1
 612 0 l 2,2,3
 317 0 317 0 194.5 166.5 c 128,-1,4
 72 333 72 333 72 745 c 0,5,6
 72 1162 72 1162 194 1327.5 c 128,-1,7
 316 1493 316 1493 612 1493 c 2,8,-1
 1206 1493 l 1,9,-1
 1206 1323 l 1,10,-1
 848 1323 l 1,11,-1
 848 881 l 1,12,-1
 1176 881 l 1,13,-1
 1176 711 l 1,14,-1
 848 711 l 1,15,-1
 848 170 l 1,16,-1
 1217 170 l 1,0,-1
590 1323 m 2,17,18
 413 1323 413 1323 343.5 1208 c 128,-1,19
 274 1093 274 1093 274 745 c 0,20,21
 274 399 274 399 343.5 284.5 c 128,-1,22
 413 170 413 170 590 170 c 2,23,-1
 651 170 l 1,24,-1
 651 1323 l 1,25,-1
 590 1323 l 2,17,18
EndSplineSet
EndChar

StartChar: oe
Encoding: 339 339 267
Width: 1233
Flags: W
LayerCount: 2
Back
Fore
SplineSet
1047 657 m 1,0,1
 1047 668 1047 668 1048 687 c 128,-1,2
 1049 706 1049 706 1049 715 c 0,3,4
 1049 860 1049 860 1009 927.5 c 128,-1,5
 969 995 969 995 883 995 c 0,6,7
 796 995 796 995 757.5 926.5 c 128,-1,8
 719 858 719 858 719 700 c 2,9,-1
 719 657 l 1,10,-1
 1047 657 l 1,0,1
373 123 m 0,11,12
 475 123 475 123 516 207 c 128,-1,13
 557 291 557 291 557 530 c 0,14,15
 557 821 557 821 517 908 c 128,-1,16
 477 995 477 995 373 995 c 0,17,18
 270 995 270 995 230 911.5 c 128,-1,19
 190 828 190 828 190 559 c 256,20,21
 190 290 190 290 230 206.5 c 128,-1,22
 270 123 270 123 373 123 c 0,11,12
1210 514 m 1,23,-1
 719 514 l 1,24,-1
 719 430 l 2,25,26
 719 267 719 267 768.5 195 c 128,-1,27
 818 123 818 123 930 123 c 0,28,29
 1010 123 1010 123 1075.5 149.5 c 128,-1,30
 1141 176 1141 176 1188 227 c 1,31,-1
 1188 55 l 1,32,33
 1129 12 1129 12 1066.5 -8.5 c 128,-1,34
 1004 -29 1004 -29 930 -29 c 0,35,36
 832 -29 832 -29 758.5 4.5 c 128,-1,37
 685 38 685 38 637 104 c 1,38,39
 585 36 585 36 521 3.5 c 128,-1,40
 457 -29 457 -29 373 -29 c 0,41,42
 184 -29 184 -29 99 109 c 128,-1,43
 14 247 14 247 14 559 c 256,44,45
 14 871 14 871 99 1009 c 128,-1,46
 184 1147 184 1147 373 1147 c 0,47,48
 462 1147 462 1147 526 1116 c 128,-1,49
 590 1085 590 1085 637 1020 c 1,50,51
 674 1082 674 1082 739 1114.5 c 128,-1,52
 804 1147 804 1147 891 1147 c 0,53,54
 1066 1147 1066 1147 1138 1028.5 c 128,-1,55
 1210 910 1210 910 1210 604 c 2,56,-1
 1210 514 l 1,23,-1
EndSplineSet
EndChar

StartChar: Tbar
Encoding: 358 358 286
Width: 1233
Flags: W
LayerCount: 2
Back
Fore
SplineSet
47 1493 m 1,0,-1
 1186 1493 l 1,1,-1
 1186 1323 l 1,2,-1
 719 1323 l 1,3,-1
 719 747 l 1,4,-1
 984 747 l 1,5,-1
 984 577 l 1,6,-1
 719 577 l 1,7,-1
 719 0 l 1,8,-1
 516 0 l 1,9,-1
 516 577 l 1,10,-1
 251 577 l 1,11,-1
 251 747 l 1,12,-1
 516 747 l 1,13,-1
 516 1323 l 1,14,-1
 47 1323 l 1,15,-1
 47 1493 l 1,0,-1
EndSplineSet
EndChar

StartChar: tbar
Encoding: 359 359 287
Width: 1233
Flags: W
LayerCount: 2
Back
Fore
SplineSet
614 1438 m 1,0,-1
 614 1120 l 1,1,-1
 1032 1120 l 1,2,-1
 1032 977 l 1,3,-1
 614 977 l 1,4,-1
 614 744 l 1,5,-1
 843 744 l 1,6,-1
 843 602 l 1,7,-1
 614 602 l 1,8,-1
 614 369 l 2,9,10
 614 245 614 245 661 196 c 128,-1,11
 708 147 708 147 825 147 c 2,12,-1
 1032 147 l 1,13,-1
 1032 0 l 1,14,-1
 807 0 l 2,15,16
 600 0 600 0 515 83 c 128,-1,17
 430 166 430 166 430 369 c 2,18,-1
 430 602 l 1,19,-1
 201 602 l 1,20,-1
 201 744 l 1,21,-1
 430 744 l 1,22,-1
 430 977 l 1,23,-1
 131 977 l 1,24,-1
 131 1120 l 1,25,-1
 430 1120 l 1,26,-1
 430 1438 l 1,27,-1
 614 1438 l 1,0,-1
EndSplineSet
EndChar

StartChar: longs
Encoding: 383 383 311
Width: 1233
Flags: W
LayerCount: 2
Back
Fore
SplineSet
678 1219 m 2,0,-1
 678 0 l 1,1,-1
 494 0 l 1,2,-1
 494 977 l 1,3,-1
 195 977 l 1,4,-1
 195 1120 l 1,5,-1
 494 1120 l 1,6,-1
 494 1198 l 2,7,8
 494 1382 494 1382 578.5 1469 c 128,-1,9
 663 1556 663 1556 842 1556 c 2,10,-1
 1063 1556 l 1,11,-1
 1063 1403 l 1,12,-1
 854 1403 l 2,13,14
 755 1403 755 1403 716.5 1362.5 c 128,-1,15
 678 1322 678 1322 678 1219 c 2,0,-1
EndSplineSet
EndChar

StartChar: uni0180
Encoding: 384 384 312
Width: 1233
Flags: W
LayerCount: 2
Back
Fore
SplineSet
377 977 m 1,0,1
 421 1059 421 1059 498.5 1103 c 128,-1,2
 576 1147 576 1147 678 1147 c 0,3,4
 880 1147 880 1147 996 991.5 c 128,-1,5
 1112 836 1112 836 1112 563 c 0,6,7
 1112 286 1112 286 995.5 128.5 c 128,-1,8
 879 -29 879 -29 676 -29 c 0,9,10
 576 -29 576 -29 499.5 14.5 c 128,-1,11
 423 58 423 58 377 141 c 1,12,-1
 377 0 l 1,13,-1
 193 0 l 1,14,-1
 193 1270 l 1,15,-1
 70 1270 l 1,16,-1
 70 1434 l 1,17,-1
 193 1434 l 1,18,-1
 193 1556 l 1,19,-1
 377 1556 l 1,20,-1
 377 1434 l 1,21,-1
 379 1434 l 1,22,-1
 732 1434 l 1,23,-1
 732 1270 l 1,24,-1
 379 1270 l 1,25,-1
 377 1270 l 1,26,-1
 377 977 l 1,0,1
918 559 m 128,-1,28
 918 773 918 773 850 882 c 128,-1,29
 782 991 782 991 649 991 c 0,30,31
 515 991 515 991 446 881.5 c 128,-1,32
 377 772 377 772 377 559 c 0,33,34
 377 347 377 347 446 237 c 128,-1,35
 515 127 515 127 649 127 c 0,36,37
 782 127 782 127 850 236 c 128,-1,27
 918 345 918 345 918 559 c 128,-1,28
EndSplineSet
EndChar

StartChar: uni0181
Encoding: 385 385 313
Width: 1233
Flags: W
LayerCount: 2
Back
Fore
SplineSet
540 713 m 1,0,-1
 540 166 l 1,1,-1
 660 166 l 2,2,3
 836 166 836 166 911 227.5 c 128,-1,4
 986 289 986 289 986 430 c 0,5,6
 986 576 986 576 907 644.5 c 128,-1,7
 828 713 828 713 660 713 c 2,8,-1
 540 713 l 1,0,-1
540 1327 m 1,9,-1
 540 877 l 1,10,-1
 656 877 l 2,11,12
 802 877 802 877 867.5 933 c 128,-1,13
 933 989 933 989 933 1114 c 0,14,15
 933 1227 933 1227 868.5 1277 c 128,-1,16
 804 1327 804 1327 656 1327 c 2,17,-1
 540 1327 l 1,9,-1
338 1493 m 2,18,-1
 660 1493 l 2,19,20
 889 1493 889 1493 1013 1394 c 128,-1,21
 1137 1295 1137 1295 1137 1114 c 0,22,23
 1137 977 1137 977 1071.5 898 c 128,-1,24
 1006 819 1006 819 875 799 c 1,25,26
 1022 777 1022 777 1105.5 673.5 c 128,-1,27
 1189 570 1189 570 1189 410 c 0,28,29
 1189 207 1189 207 1056 103.5 c 128,-1,30
 923 0 923 0 660 0 c 2,31,-1
 338 0 l 1,32,-1
 338 1327 l 1,33,34
 276 1327 276 1327 226 1283.5 c 128,-1,35
 176 1240 176 1240 176 1128 c 2,36,-1
 176 1079 l 1,37,-1
 20 1079 l 1,38,-1
 20 1149 l 2,39,40
 20 1308 20 1308 104.5 1400.5 c 128,-1,41
 189 1493 189 1493 338 1493 c 2,18,-1
EndSplineSet
EndChar

StartChar: uni0183
Encoding: 387 387 315
Width: 1233
Flags: W
LayerCount: 2
Back
Fore
SplineSet
377 977 m 1,0,1
 421 1059 421 1059 498.5 1103 c 128,-1,2
 576 1147 576 1147 678 1147 c 0,3,4
 880 1147 880 1147 996 991.5 c 128,-1,5
 1112 836 1112 836 1112 563 c 0,6,7
 1112 286 1112 286 995.5 128.5 c 128,-1,8
 879 -29 879 -29 676 -29 c 0,9,10
 576 -29 576 -29 499.5 14.5 c 128,-1,11
 423 58 423 58 377 141 c 1,12,-1
 377 0 l 1,13,-1
 193 0 l 1,14,-1
 193 1556 l 1,15,-1
 945 1556 l 1,16,-1
 945 1372 l 1,17,-1
 377 1372 l 1,18,-1
 377 977 l 1,0,1
918 559 m 128,-1,20
 918 773 918 773 850 882 c 128,-1,21
 782 991 782 991 649 991 c 0,22,23
 515 991 515 991 446 881.5 c 128,-1,24
 377 772 377 772 377 559 c 0,25,26
 377 347 377 347 446 237 c 128,-1,27
 515 127 515 127 649 127 c 0,28,29
 782 127 782 127 850 236 c 128,-1,19
 918 345 918 345 918 559 c 128,-1,20
EndSplineSet
EndChar

StartChar: uni0184
Encoding: 388 388 316
Width: 1233
Flags: W
LayerCount: 2
Back
Fore
SplineSet
417 713 m 1,0,-1
 417 166 l 1,1,-1
 656 166 l 2,2,3
 832 166 832 166 907 228 c 0,4,5
 982 289 982 289 982 430 c 0,6,7
 982 576 982 576 903 644 c 0,8,9
 824 713 824 713 656 713 c 2,10,-1
 417 713 l 1,0,-1
417 877 m 1,11,-1
 652 877 l 1,12,13
 1031 862 1031 862 1132 671 c 0,14,15
 1185 571 1185 571 1185 410 c 0,16,17
 1185 207 1185 207 1052 104 c 0,18,19
 919 0 919 0 656 0 c 2,20,-1
 214 0 l 1,21,-1
 214 948 l 1,22,-1
 48 1176 l 1,23,-1
 417 1493 l 1,24,-1
 417 877 l 1,11,-1
EndSplineSet
EndChar

StartChar: uni0185
Encoding: 389 389 317
Width: 1233
Flags: W
LayerCount: 2
Back
Fore
SplineSet
978 559 m 128,-1,1
 978 773 978 773 910 882 c 128,-1,2
 842 991 842 991 710 991 c 0,3,4
 576 991 576 991 506 882 c 0,5,6
 438 772 438 772 438 559 c 0,7,8
 438 347 438 347 506 237 c 0,9,10
 576 127 576 127 710 127 c 0,11,12
 842 127 842 127 910 236 c 128,-1,0
 978 345 978 345 978 559 c 128,-1,1
438 977 m 1,13,14
 482 1059 482 1059 559 1103 c 128,-1,15
 636 1147 636 1147 738 1147 c 0,16,17
 940 1147 940 1147 1056 992 c 0,18,19
 1172 836 1172 836 1172 563 c 0,20,21
 1172 286 1172 286 1056 128 c 0,22,23
 940 -29 940 -29 736 -29 c 0,24,25
 636 -29 636 -29 560 14 c 0,26,27
 484 58 484 58 438 141 c 1,28,-1
 438 0 l 1,29,-1
 254 0 l 1,30,-1
 254 948 l 1,31,-1
 60 1176 l 1,32,-1
 438 1556 l 1,33,-1
 438 977 l 1,13,14
EndSplineSet
EndChar

StartChar: uni0186
Encoding: 390 390 318
Width: 1233
Flags: W
LayerCount: 2
Back
Fore
SplineSet
139 1438 m 1,0,1
 216 1479 216 1479 297 1499.5 c 128,-1,2
 378 1520 378 1520 469 1520 c 0,3,4
 754 1520 754 1520 913.5 1315.5 c 128,-1,5
 1073 1111 1073 1111 1073 745 c 0,6,7
 1073 377 1073 377 914.5 174 c 128,-1,8
 756 -29 756 -29 469 -29 c 0,9,10
 378 -29 378 -29 297 -8.5 c 128,-1,11
 216 12 216 12 139 53 c 1,12,-1
 139 260 l 1,13,14
 212 199 212 199 296.5 167 c 128,-1,15
 381 135 381 135 469 135 c 0,16,17
 666 135 666 135 764 287 c 128,-1,18
 862 439 862 439 862 745 c 0,19,20
 862 1052 862 1052 764 1204 c 128,-1,21
 666 1356 666 1356 469 1356 c 0,22,23
 383 1356 383 1356 298 1324 c 128,-1,24
 213 1292 213 1292 139 1231 c 1,25,-1
 139 1438 l 1,0,1
EndSplineSet
EndChar

StartChar: uni0187
Encoding: 391 391 319
Width: 1233
Flags: W
LayerCount: 2
Back
Fore
SplineSet
994 53 m 1,0,1
 917 12 917 12 836 -8.5 c 128,-1,2
 755 -29 755 -29 664 -29 c 0,3,4
 377 -29 377 -29 218.5 174 c 128,-1,5
 60 377 60 377 60 745 c 0,6,7
 60 1043 60 1043 219.5 1247.5 c 128,-1,8
 379 1452 379 1452 664 1452 c 0,9,10
 754 1452 754 1452 833 1432 c 1,11,12
 856 1483 856 1483 898 1533 c 0,13,14
 988 1639 988 1639 1153 1639 c 2,15,-1
 1173 1639 l 1,16,-1
 1173 1483 l 1,17,18
 1089 1483 1089 1483 1038 1421 c 0,19,20
 994 1368 994 1368 994 1233 c 2,21,-1
 994 1163 l 1,22,23
 920 1224 920 1224 835 1256 c 128,-1,24
 750 1288 750 1288 664 1288 c 0,25,26
 467 1288 467 1288 369 1136 c 128,-1,27
 271 984 271 984 271 745 c 0,28,29
 271 439 271 439 369 287 c 128,-1,30
 467 135 467 135 664 135 c 0,31,32
 752 135 752 135 836.5 167 c 128,-1,33
 921 199 921 199 994 260 c 1,34,-1
 994 53 l 1,0,1
EndSplineSet
EndChar

StartChar: uni0188
Encoding: 392 392 320
Width: 1233
Flags: W
LayerCount: 2
Back
Fore
SplineSet
960 57 m 1,0,1
 886 14 886 14 807.5 -7.5 c 128,-1,2
 729 -29 729 -29 647 -29 c 0,3,4
 387 -29 387 -29 240.5 127 c 128,-1,5
 94 283 94 283 94 559 c 128,-1,6
 94 835 94 835 240.5 991 c 128,-1,7
 387 1147 387 1147 647 1147 c 0,8,9
 717 1147 717 1147 784 1131 c 1,10,11
 803 1245 803 1245 864 1316 c 0,12,13
 954 1422 954 1422 1119 1422 c 2,14,-1
 1139 1422 l 1,15,-1
 1139 1266 l 1,16,17
 1049 1266 1049 1266 1004 1204 c 0,18,19
 960 1142 960 1142 960 1016 c 2,20,-1
 960 868 l 1,21,22
 887 933 887 933 813.5 962 c 128,-1,23
 740 991 740 991 647 991 c 0,24,25
 474 991 474 991 381 879 c 128,-1,26
 288 767 288 767 288 559 c 0,27,28
 288 352 288 352 381.5 239.5 c 128,-1,29
 475 127 475 127 647 127 c 0,30,31
 743 127 743 127 819 156.5 c 128,-1,32
 895 186 895 186 960 248 c 1,33,-1
 960 57 l 1,0,1
EndSplineSet
EndChar

StartChar: uni018A
Encoding: 394 394 322
Width: 1233
Flags: W
LayerCount: 2
Back
Fore
SplineSet
326 1493 m 2,0,-1
 559 1493 l 2,1,2
 901 1493 901 1493 1063 1311 c 128,-1,3
 1225 1129 1225 1129 1225 745 c 0,4,5
 1225 363 1225 363 1063 181.5 c 128,-1,6
 901 0 901 0 559 0 c 2,7,-1
 326 0 l 1,8,-1
 326 1327 l 1,9,10
 272 1327 272 1327 212 1280 c 0,11,12
 164 1242 164 1242 164 1128 c 2,13,-1
 164 1079 l 1,14,-1
 8 1079 l 1,15,-1
 8 1149 l 2,16,17
 8 1330 8 1330 104 1411.5 c 128,-1,18
 200 1493 200 1493 326 1493 c 2,0,-1
555 166 m 2,19,20
 810 166 810 166 911 291.5 c 128,-1,21
 1012 417 1012 417 1012 745 c 0,22,23
 1012 1076 1012 1076 911.5 1201.5 c 128,-1,24
 811 1327 811 1327 555 1327 c 2,25,-1
 529 1327 l 1,26,-1
 529 166 l 1,27,-1
 555 166 l 2,19,20
EndSplineSet
EndChar

StartChar: uni018B
Encoding: 395 395 323
Width: 1233
Flags: W
LayerCount: 2
Back
Fore
SplineSet
899 713 m 1,0,-1
 660 713 l 2,1,2
 492 713 492 713 413 644.5 c 128,-1,3
 334 576 334 576 334 430 c 0,4,5
 334 289 334 289 409 227.5 c 128,-1,6
 484 166 484 166 660 166 c 2,7,-1
 899 166 l 1,8,-1
 899 713 l 1,0,-1
200 1327 m 1,9,-1
 200 1493 l 1,10,-1
 1102 1493 l 1,11,-1
 1102 0 l 1,12,-1
 660 0 l 2,13,14
 397 0 397 0 264 103.5 c 128,-1,15
 131 207 131 207 131 410 c 0,16,17
 131 571 131 571 184 671 c 0,18,19
 285 862 285 862 664 877 c 1,20,-1
 899 877 l 1,21,-1
 899 1327 l 1,22,-1
 200 1327 l 1,9,-1
EndSplineSet
EndChar

StartChar: uni018C
Encoding: 396 396 324
Width: 1233
Flags: W
LayerCount: 2
Back
Fore
SplineSet
351 559 m 128,-1,1
 351 345 351 345 419 236 c 128,-1,2
 487 127 487 127 620 127 c 0,3,4
 754 127 754 127 823 237 c 128,-1,5
 892 347 892 347 892 559 c 0,6,7
 892 772 892 772 823 881.5 c 128,-1,8
 754 991 754 991 620 991 c 0,9,10
 487 991 487 991 419 882 c 128,-1,0
 351 773 351 773 351 559 c 128,-1,1
324 1372 m 1,11,-1
 324 1556 l 1,12,-1
 1076 1556 l 1,13,-1
 1076 0 l 1,14,-1
 892 0 l 1,15,-1
 892 141 l 1,16,17
 846 58 846 58 769.5 14.5 c 128,-1,18
 693 -29 693 -29 593 -29 c 0,19,20
 390 -29 390 -29 273.5 128.5 c 128,-1,21
 157 286 157 286 157 563 c 0,22,23
 157 836 157 836 273 991.5 c 128,-1,24
 389 1147 389 1147 591 1147 c 0,25,26
 693 1147 693 1147 770.5 1103 c 128,-1,27
 848 1059 848 1059 892 977 c 1,28,-1
 892 1372 l 1,29,-1
 324 1372 l 1,11,-1
EndSplineSet
EndChar

StartChar: uni018D
Encoding: 397 397 325
Width: 1233
Flags: W
LayerCount: 2
Back
Fore
SplineSet
616 127 m 0,0,1
 756 127 756 127 828 236 c 128,-1,2
 900 345 900 345 900 559 c 0,3,4
 900 772 900 772 828 881.5 c 128,-1,5
 756 991 756 991 616 991 c 0,6,7
 475 991 475 991 403 881.5 c 128,-1,8
 331 772 331 772 331 559 c 0,9,10
 331 345 331 345 403 236 c 128,-1,11
 475 127 475 127 616 127 c 0,0,1
898 51 m 1,12,13
 917 42 917 42 957 2 c 0,14,15
 1019 -59 1019 -59 1019 -151 c 0,16,17
 1019 -287 1019 -287 901 -369 c 0,18,19
 782 -451 782 -451 585 -451 c 0,20,21
 483 -451 483 -451 433 -439 c 2,22,-1
 282 -403 l 1,23,-1
 282 -230 l 1,24,25
 348 -254 348 -254 418 -269 c 0,26,27
 493 -284 493 -284 566 -284 c 0,28,29
 575 -284 575 -284 585 -284 c 2,30,-1
 617 -283 l 2,31,32
 690 -281 690 -281 750 -238 c 2,33,-1
 789 -210 l 2,34,35
 816 -186 816 -186 816 -140 c 0,36,37
 816 -107 816 -107 803 -88 c 0,38,39
 786 -64 786 -64 745 -43 c 0,40,41
 721 -30 721 -30 616 -29 c 0,42,43
 381 -26 381 -26 260 122 c 0,44,45
 136 273 136 273 136 559 c 0,46,47
 136 846 136 846 259 996.5 c 128,-1,48
 382 1147 382 1147 616 1147 c 0,49,50
 849 1147 849 1147 972 996.5 c 128,-1,51
 1095 846 1095 846 1095 559 c 0,52,53
 1095 273 1095 273 972 122 c 0,54,55
 941 84 941 84 898 51 c 1,12,13
EndSplineSet
EndChar

StartChar: uni018E
Encoding: 398 398 326
Width: 1233
Flags: W
LayerCount: 2
Back
Fore
SplineSet
1102 1493 m 1,0,-1
 1102 0 l 1,1,-1
 197 0 l 1,2,-1
 197 170 l 1,3,-1
 900 170 l 1,4,-1
 900 711 l 1,5,-1
 246 711 l 1,6,-1
 246 881 l 1,7,-1
 900 881 l 1,8,-1
 900 1323 l 1,9,-1
 216 1323 l 1,10,-1
 216 1493 l 1,11,-1
 1102 1493 l 1,0,-1
EndSplineSet
EndChar

StartChar: uni018F
Encoding: 399 399 327
Width: 1233
Flags: W
LayerCount: 2
Back
Fore
SplineSet
117 745 m 2,0,-1
 117 828 l 1,1,-1
 904 828 l 1,2,-1
 904 836 l 2,3,4
 904 1077 904 1077 835 1216.5 c 128,-1,5
 766 1356 766 1356 616 1356 c 0,6,7
 530 1356 530 1356 445 1324 c 128,-1,8
 360 1292 360 1292 286 1231 c 1,9,-1
 286 1438 l 1,10,11
 363 1479 363 1479 444 1499.5 c 128,-1,12
 525 1520 525 1520 616 1520 c 0,13,14
 869 1520 869 1520 992.5 1328 c 128,-1,15
 1116 1136 1116 1136 1116 745 c 0,16,17
 1116 355 1116 355 992.5 163 c 128,-1,18
 869 -29 869 -29 616 -29 c 256,19,20
 363 -29 363 -29 240 162 c 128,-1,21
 117 353 117 353 117 745 c 2,0,-1
332 644 m 1,22,23
 332 396 332 396 402 265.5 c 128,-1,24
 472 135 472 135 620 135 c 256,25,26
 768 135 768 135 831 262.5 c 128,-1,27
 894 390 894 390 903 644 c 1,28,-1
 332 644 l 1,22,23
EndSplineSet
EndChar

StartChar: uni0190
Encoding: 400 400 328
Width: 1233
Flags: W
LayerCount: 2
Back
Fore
SplineSet
440 799 m 1,0,1
 309 833 309 833 240.5 914 c 128,-1,2
 172 995 172 995 172 1118 c 0,3,4
 172 1299 172 1299 302.5 1409.5 c 128,-1,5
 433 1520 433 1520 651 1520 c 0,6,7
 724 1520 724 1520 818.5 1504 c 128,-1,8
 913 1488 913 1488 1034 1456 c 1,9,-1
 1034 1270 l 1,10,11
 930 1310 930 1310 835 1330 c 128,-1,12
 740 1350 740 1350 651 1350 c 0,13,14
 517 1350 517 1350 444.5 1288.5 c 128,-1,15
 372 1227 372 1227 372 1112 c 0,16,17
 372 1003 372 1003 450 942 c 128,-1,18
 528 881 528 881 667 881 c 2,19,-1
 821 881 l 1,20,-1
 821 715 l 1,21,-1
 667 715 l 2,22,23
 515 715 515 715 426 638.5 c 128,-1,24
 337 562 337 562 337 432 c 0,25,26
 337 291 337 291 426 216 c 128,-1,27
 515 141 515 141 681 141 c 0,28,29
 779 141 779 141 878 167 c 128,-1,30
 977 193 977 193 1079 246 c 1,31,-1
 1079 45 l 1,32,33
 976 9 976 9 869 -10 c 128,-1,34
 762 -29 762 -29 659 -29 c 0,35,36
 414 -29 414 -29 275.5 88.5 c 128,-1,37
 137 206 137 206 137 412 c 0,38,39
 137 561 137 561 215 660.5 c 128,-1,40
 293 760 293 760 440 799 c 1,0,1
EndSplineSet
EndChar

StartChar: uni0191
Encoding: 401 401 329
Width: 1233
Flags: W
LayerCount: 2
Back
Fore
SplineSet
380 1493 m 1,0,-1
 1170 1493 l 1,1,-1
 1170 1323 l 1,2,-1
 583 1323 l 1,3,-1
 583 883 l 1,4,-1
 1107 883 l 1,5,-1
 1107 713 l 1,6,-1
 583 713 l 1,7,-1
 583 -20 l 2,8,9
 583 -215 583 -215 494 -320 c 0,10,11
 404 -426 404 -426 239 -426 c 2,12,-1
 63 -426 l 1,13,-1
 63 -270 l 1,14,-1
 201 -270 l 2,15,16
 291 -270 291 -270 336 -208 c 0,17,18
 380 -146 380 -146 380 -20 c 2,19,-1
 380 1493 l 1,0,-1
EndSplineSet
EndChar

StartChar: florin
Encoding: 402 402 330
Width: 1233
Flags: W
LayerCount: 2
Back
Fore
SplineSet
1063 1556 m 1,0,-1
 1063 1403 l 1,1,-1
 854 1403 l 1,2,-1
 852 1403 l 2,3,4
 755 1403 755 1403 716 1362 c 0,5,6
 678 1322 678 1322 678 1219 c 2,7,-1
 678 1120 l 1,8,-1
 1063 1120 l 1,9,-1
 1063 977 l 1,10,-1
 678 977 l 1,11,-1
 678 -20 l 2,12,13
 678 -234 678 -234 597 -330 c 0,14,15
 515 -426 515 -426 334 -426 c 2,16,-1
 264 -426 l 1,17,-1
 264 -270 l 1,18,-1
 313 -270 l 2,19,20
 418 -270 418 -270 456 -222 c 0,21,22
 494 -173 494 -173 494 -20 c 2,23,-1
 492 977 l 1,24,-1
 195 977 l 1,25,-1
 195 1120 l 1,26,-1
 491 1120 l 1,27,-1
 491 1198 l 2,28,29
 491 1378 491 1378 578 1470 c 0,30,31
 615 1509 615 1509 675 1530 c 0,32,33
 745 1556 745 1556 842 1556 c 2,34,-1
 851 1556 l 1,35,-1
 854 1556 l 1,36,-1
 1063 1556 l 1,0,-1
EndSplineSet
EndChar

StartChar: uni0193
Encoding: 403 403 331
Width: 1233
Flags: W
LayerCount: 2
Back
Fore
SplineSet
1054 123 m 1,0,1
 972 48 972 48 871 9.5 c 128,-1,2
 770 -29 770 -29 652 -29 c 0,3,4
 368 -29 368 -29 210 174.5 c 128,-1,5
 52 378 52 378 52 745 c 0,6,7
 52 1111 52 1111 212 1315.5 c 128,-1,8
 372 1520 372 1520 656 1520 c 0,9,10
 750 1520 750 1520 836 1494 c 0,11,12
 853 1488 853 1488 870 1482 c 1,13,14
 885 1508 885 1508 906 1533 c 0,15,16
 996 1639 996 1639 1162 1639 c 2,17,-1
 1181 1639 l 1,18,-1
 1181 1483 l 1,19,20
 1097 1483 1097 1483 1046 1421 c 0,21,22
 1003 1367 1003 1367 1002 1233 c 2,23,-1
 1002 1206 l 1,24,25
 922 1283 922 1283 837 1319.5 c 128,-1,26
 752 1356 752 1356 656 1356 c 0,27,28
 460 1356 460 1356 361 1203.5 c 128,-1,29
 262 1051 262 1051 262 745 c 0,30,31
 262 434 262 434 358 284.5 c 128,-1,32
 454 135 454 135 652 135 c 0,33,34
 718 135 718 135 769 150.5 c 128,-1,35
 820 166 820 166 860 199 c 1,36,-1
 860 600 l 1,37,-1
 644 600 l 1,38,-1
 644 766 l 1,39,-1
 1054 766 l 1,40,-1
 1054 123 l 1,0,1
EndSplineSet
EndChar

StartChar: uni0194
Encoding: 404 404 332
Width: 1233
Flags: W
LayerCount: 2
Back
Fore
SplineSet
730 650 m 1,0,1
 1054 201 1054 201 1054 -194 c 0,2,3
 1054 -430 1054 -430 638 -430 c 0,4,5
 198 -430 198 -430 198 -194 c 0,6,7
 198 173 198 173 492 657 c 1,8,-1
 28 1353 l 1,9,-1
 244 1353 l 1,10,-1
 616 798 l 1,11,-1
 988 1353 l 1,12,-1
 1206 1353 l 1,13,-1
 730 650 l 1,0,1
600 495 m 1,14,15
 402 194 402 194 402 -130 c 0,16,17
 402 -268 402 -268 618 -268 c 0,18,19
 822 -268 822 -268 822 -130 c 0,20,21
 822 195 822 195 600 495 c 1,14,15
EndSplineSet
EndChar

StartChar: uni0195
Encoding: 405 405 333
Width: 1233
Flags: W
LayerCount: 2
Back
Fore
SplineSet
755 694 m 2,0,-1
 755 406 l 1,1,-1
 754 406 l 1,2,3
 754 253 754 253 788 204 c 0,4,5
 826 152 826 152 881 156 c 0,6,7
 900 158 900 158 954 231 c 0,8,9
 1001 297 1001 297 1001 453 c 2,10,-1
 1001 864 l 1,11,-1
 1168 864 l 1,12,-1
 1168 453 l 2,13,14
 1168 225 1168 225 1092 112.5 c 128,-1,15
 1016 0 1016 0 862 0 c 0,16,17
 735 0 735 0 661 96 c 0,18,19
 588 192 588 192 588 406 c 2,20,-1
 588 694 l 2,21,22
 588 845 588 845 540.5 916 c 128,-1,23
 493 987 493 987 427 987 c 0,24,25
 356 987 356 987 293.5 895.5 c 128,-1,26
 231 804 231 804 231 633 c 2,27,-1
 231 0 l 1,28,-1
 65 0 l 1,29,-1
 65 1556 l 1,30,-1
 231 1556 l 1,31,-1
 231 952 l 1,32,33
 308 1086 308 1086 325 1098 c 0,34,35
 400 1147 400 1147 485 1147 c 0,36,37
 603 1147 603 1147 679 1034.5 c 128,-1,38
 755 922 755 922 755 694 c 2,0,-1
EndSplineSet
EndChar

StartChar: uni0196
Encoding: 406 406 334
Width: 1233
Flags: W
LayerCount: 2
Back
Fore
SplineSet
514 1323 m 1,0,-1
 201 1323 l 1,1,-1
 201 1493 l 1,2,-1
 1030 1493 l 1,3,-1
 1030 1323 l 1,4,-1
 717 1323 l 1,5,-1
 717 421 l 2,6,7
 717 294 717 294 761 233 c 0,8,9
 806 171 806 171 896 171 c 2,10,-1
 1081 171 l 1,11,-1
 1082 0 l 1,12,-1
 865 0 l 2,13,14
 695 0 695 0 603 106 c 0,15,16
 514 208 514 208 514 406 c 2,17,-1
 514 1323 l 1,0,-1
EndSplineSet
EndChar

StartChar: uni0197
Encoding: 407 407 335
Width: 1233
Flags: W
LayerCount: 2
Back
Fore
SplineSet
201 1493 m 1,0,-1
 1030 1493 l 1,1,-1
 1030 1323 l 1,2,-1
 717 1323 l 1,3,-1
 717 747 l 1,4,-1
 719 747 l 1,5,-1
 984 747 l 1,6,-1
 984 577 l 1,7,-1
 719 577 l 1,8,-1
 717 577 l 1,9,-1
 717 170 l 1,10,-1
 1030 170 l 1,11,-1
 1030 0 l 1,12,-1
 201 0 l 1,13,-1
 201 170 l 1,14,-1
 514 170 l 1,15,-1
 514 577 l 1,16,-1
 251 577 l 1,17,-1
 251 747 l 1,18,-1
 514 747 l 1,19,-1
 514 1323 l 1,20,-1
 201 1323 l 1,21,-1
 201 1493 l 1,0,-1
EndSplineSet
EndChar

StartChar: uni0198
Encoding: 408 408 336
Width: 1233
Flags: W
LayerCount: 2
Back
Fore
SplineSet
647 1180 m 2,0,1
 808 1350 808 1350 913 1362 c 0,2,3
 934 1365 934 1365 954 1365 c 0,4,5
 1080 1365 1080 1365 1172 1266 c 2,6,-1
 1219 1215 l 1,7,-1
 1113 1101 l 1,8,-1
 1080 1138 l 2,9,10
 1035 1189 1035 1189 975 1189 c 0,11,12
 958 1189 958 1189 939 1185 c 0,13,14
 873 1170 873 1170 764 1055 c 2,15,-1
 600 883 l 1,16,-1
 1198 0 l 1,17,-1
 954 0 l 1,18,-1
 467 748 l 1,19,-1
 313 584 l 1,20,-1
 313 0 l 1,21,-1
 110 0 l 1,22,-1
 110 1493 l 1,23,-1
 313 1493 l 1,24,-1
 313 829 l 1,25,-1
 647 1180 l 2,0,1
EndSplineSet
EndChar

StartChar: uni0199
Encoding: 409 409 337
Width: 1233
Flags: W
LayerCount: 2
Back
Fore
SplineSet
236 1002 m 1,0,-1
 236 1150 l 2,1,2
 236 1345 236 1345 325 1450 c 0,3,4
 415 1556 415 1556 580 1556 c 2,5,-1
 785 1556 l 1,6,-1
 785 1400 l 1,7,-1
 600 1400 l 2,8,9
 510 1400 510 1400 465 1338 c 0,10,11
 421 1276 421 1276 421 1150 c 1,12,-1
 426 1150 l 1,13,-1
 426 655 l 1,14,-1
 909 1120 l 1,15,-1
 1133 1120 l 1,16,-1
 692 698 l 1,17,-1
 1202 0 l 1,18,-1
 977 0 l 1,19,-1
 563 578 l 1,20,-1
 426 449 l 1,21,-1
 426 0 l 1,22,-1
 236 0 l 1,23,-1
 236 1002 l 1,0,-1
EndSplineSet
EndChar

StartChar: uni019A
Encoding: 410 410 338
Width: 1233
Flags: W
LayerCount: 2
Back
Fore
SplineSet
639 406 m 2,0,1
 639 282 639 282 684.5 219 c 128,-1,2
 730 156 730 156 819 156 c 2,3,-1
 1034 156 l 1,4,-1
 1034 0 l 1,5,-1
 801 0 l 2,6,7
 636 0 636 0 545.5 106 c 128,-1,8
 455 212 455 212 455 406 c 2,9,-1
 455 602 l 1,10,-1
 227 602 l 1,11,-1
 227 744 l 1,12,-1
 455 744 l 1,13,-1
 455 1423 l 1,14,-1
 160 1423 l 1,15,-1
 160 1567 l 1,16,-1
 639 1567 l 1,17,-1
 639 744 l 1,18,-1
 648 744 l 1,19,-1
 869 744 l 1,20,-1
 869 602 l 1,21,-1
 648 602 l 1,22,-1
 639 602 l 1,23,-1
 639 406 l 2,0,1
EndSplineSet
EndChar

StartChar: uni019B
Encoding: 411 411 339
Width: 1233
Flags: W
LayerCount: 2
Back
Fore
SplineSet
579 1213 m 1,0,-1
 927 1455 l 1,1,-1
 1007 1345 l 1,2,-1
 636 1087 l 1,3,-1
 1133 0 l 1,4,-1
 942 0 l 1,5,-1
 621 704 l 1,6,-1
 291 0 l 1,7,-1
 100 0 l 1,8,-1
 525 913 l 1,9,-1
 491 987 l 1,10,-1
 129 736 l 1,11,-1
 49 847 l 1,12,-1
 434 1113 l 1,13,-1
 260 1493 l 1,14,-1
 451 1493 l 1,15,-1
 579 1213 l 1,0,-1
EndSplineSet
EndChar

StartChar: uni019C
Encoding: 412 412 340
Width: 1233
Flags: W
LayerCount: 2
Back
Fore
SplineSet
568 114 m 1,0,1
 534 42 534 42 481.5 7.5 c 128,-1,2
 429 -27 429 -27 355 -27 c 0,3,4
 220 -27 220 -27 164.5 77.5 c 128,-1,5
 109 182 109 182 109 471 c 2,6,-1
 109 1493 l 1,7,-1
 277 1493 l 1,8,-1
 277 479 l 2,9,10
 277 242 277 242 303.5 184.5 c 128,-1,11
 330 127 330 127 400 127 c 0,12,13
 480 127 480 127 509.5 188.5 c 128,-1,14
 539 250 539 250 539 479 c 2,15,-1
 539 1493 l 1,16,-1
 707 1493 l 1,17,-1
 707 479 l 2,18,19
 707 239 707 239 735.5 183 c 128,-1,20
 764 127 764 127 838 127 c 0,21,22
 911 127 911 127 939.5 188.5 c 128,-1,23
 968 250 968 250 968 479 c 2,24,-1
 968 1493 l 1,25,-1
 1135 1493 l 1,26,-1
 1135 0 l 1,27,-1
 968 0 l 1,28,-1
 968 96 l 1,29,30
 935 36 935 36 885.5 4.5 c 128,-1,31
 836 -27 836 -27 773 -27 c 0,32,33
 697 -27 697 -27 646.5 8 c 128,-1,34
 596 43 596 43 568 114 c 1,0,1
EndSplineSet
EndChar

StartChar: uni019D
Encoding: 413 413 341
Width: 1233
Flags: W
LayerCount: 2
Back
Fore
SplineSet
190 1493 m 1,0,-1
 420 1493 l 1,1,-1
 874 264 l 1,2,-1
 874 1493 l 1,3,-1
 1049 1493 l 1,4,-1
 1049 0 l 1,5,-1
 819 0 l 1,6,-1
 366 1229 l 1,7,-1
 366 -20 l 2,8,9
 366 -215 366 -215 285 -320 c 0,10,11
 204 -426 204 -426 56 -426 c 2,12,-1
 29 -426 l 1,13,-1
 29 -270 l 1,14,15
 110 -270 110 -270 150 -208 c 0,16,17
 190 -147 190 -147 190 -20 c 2,18,-1
 190 1493 l 1,0,-1
EndSplineSet
EndChar

StartChar: uni019E
Encoding: 414 414 342
Width: 1233
Flags: W
LayerCount: 2
Back
Fore
SplineSet
1051 694 m 2,0,-1
 1051 -430 l 1,1,-1
 866 -430 l 1,2,-1
 866 694 l 2,3,4
 866 845 866 845 813 916 c 128,-1,5
 760 987 760 987 647 987 c 0,6,7
 518 987 518 987 448.5 895.5 c 128,-1,8
 379 804 379 804 379 633 c 2,9,-1
 379 0 l 1,10,-1
 195 0 l 1,11,-1
 195 1120 l 1,12,-1
 379 1120 l 1,13,-1
 379 952 l 1,14,15
 428 1048 428 1048 512 1097.5 c 128,-1,16
 596 1147 596 1147 711 1147 c 0,17,18
 882 1147 882 1147 966.5 1034.5 c 128,-1,19
 1051 922 1051 922 1051 694 c 2,0,-1
EndSplineSet
EndChar

StartChar: uni019F
Encoding: 415 415 343
Width: 1233
Flags: W
LayerCount: 2
Back
Fore
SplineSet
1116 745 m 0,0,1
 1116 355 1116 355 992.5 163 c 128,-1,2
 869 -29 869 -29 616 -29 c 128,-1,3
 363 -29 363 -29 240 162 c 128,-1,4
 117 353 117 353 117 745 c 0,5,6
 117 1136 117 1136 240.5 1328 c 128,-1,7
 364 1520 364 1520 616 1520 c 0,8,9
 869 1520 869 1520 992.5 1328 c 128,-1,10
 1116 1136 1116 1136 1116 745 c 0,0,1
904 828 m 1,11,12
 896 1092 896 1092 838 1215 c 0,13,14
 770 1356 770 1356 616 1356 c 0,15,16
 463 1356 463 1356 396 1215 c 0,17,18
 337 1092 337 1092 329 828 c 1,19,-1
 904 828 l 1,11,12
330 644 m 1,20,21
 339 394 339 394 396 276 c 0,22,23
 463 135 463 135 616 135 c 0,24,25
 770 135 770 135 838 276 c 0,26,27
 894 393 894 393 903 644 c 1,28,-1
 330 644 l 1,20,21
EndSplineSet
EndChar

StartChar: uni01A2
Encoding: 418 418 346
Width: 1233
Flags: W
LayerCount: 2
Back
Fore
SplineSet
45 745 m 0,0,1
 45 1417 45 1417 379 1506 c 0,2,3
 432 1520 432 1520 494 1520 c 0,4,5
 700 1520 700 1520 811 1362 c 1,6,-1
 958 1493 l 1,7,-1
 1188 1493 l 1,8,-1
 1188 0 l 1,9,-1
 1013 0 l 1,10,-1
 1013 1229 l 1,11,-1
 833 1069 l 1,12,-1
 833 163 l 1,13,14
 722 -29 722 -29 494 -29 c 128,-1,15
 266 -29 266 -29 155.5 162 c 128,-1,16
 45 353 45 353 45 745 c 0,0,1
693 1215 m 1,17,18
 632 1356 632 1356 494 1356 c 256,19,20
 356 1356 356 1356 295.5 1215 c 128,-1,21
 235 1074 235 1074 235 745 c 0,22,23
 235 417 235 417 295.5 276 c 128,-1,24
 356 135 356 135 494 135 c 256,25,26
 632 135 632 135 693 276 c 1,27,-1
 693 1215 l 1,17,18
EndSplineSet
EndChar

StartChar: uni01A3
Encoding: 419 419 347
Width: 1233
Flags: W
LayerCount: 2
Back
Fore
SplineSet
86 559 m 0,0,1
 86 995 86 995 336 1110 c 0,2,3
 416 1147 416 1147 517 1147 c 0,4,5
 727 1147 727 1147 838 996 c 1,6,-1
 838 953 l 1,7,-1
 964 1063 l 1,8,-1
 1195 1063 l 1,9,-1
 1195 -430 l 1,10,-1
 1019 -430 l 1,11,-1
 1019 799 l 1,12,-1
 838 642 l 1,13,-1
 838 122 l 1,14,15
 728 -29 728 -29 517 -29 c 0,16,17
 283 -29 283 -29 172 159 c 0,18,19
 86 305 86 305 86 559 c 0,0,1
262 559 m 0,20,21
 262 164 262 164 477 130 c 0,22,23
 496 127 496 127 517 127 c 0,24,25
 644 127 644 127 709 236 c 1,26,-1
 709 882 l 1,27,28
 644 991 644 991 517 991 c 0,29,30
 311 991 311 991 271 705 c 0,31,32
 262 639 262 639 262 559 c 0,20,21
EndSplineSet
EndChar

StartChar: uni01A4
Encoding: 420 420 348
Width: 1233
Flags: W
LayerCount: 2
Back
Fore
SplineSet
1177 1047 m 0,0,1
 1177 699 1177 699 865 622 c 0,2,3
 779 600 779 600 669 600 c 2,4,-1
 576 600 l 1,5,-1
 576 0 l 1,6,-1
 374 0 l 1,7,-1
 374 1327 l 1,8,9
 320 1327 320 1327 260 1280 c 0,10,11
 212 1242 212 1242 212 1128 c 2,12,-1
 212 1079 l 1,13,-1
 56 1079 l 1,14,-1
 56 1149 l 2,15,16
 56 1330 56 1330 152 1412 c 0,17,18
 248 1493 248 1493 374 1493 c 2,19,-1
 669 1493 l 2,20,21
 1076 1493 1076 1493 1158 1201 c 0,22,23
 1177 1132 1177 1132 1177 1047 c 0,0,1
669 766 m 2,24,25
 880 766 880 766 944 923 c 0,26,27
 966 979 966 979 966 1047 c 0,28,29
 966 1180 966 1180 888 1253.5 c 128,-1,30
 810 1327 810 1327 669 1327 c 2,31,-1
 576 1327 l 1,32,-1
 576 766 l 1,33,-1
 669 766 l 2,24,25
EndSplineSet
EndChar

StartChar: uni01A5
Encoding: 421 421 349
Width: 1233
Flags: W
LayerCount: 2
Back
Fore
SplineSet
375 559 m 0,0,1
 375 184 375 184 584 134 c 0,2,3
 613 127 613 127 647 127 c 0,4,5
 780 127 780 127 847.5 236 c 128,-1,6
 915 345 915 345 915 559 c 0,7,8
 915 977 915 977 664 991 c 0,9,10
 655 991 655 991 647 991 c 0,11,12
 433 991 433 991 387 718 c 0,13,14
 375 648 375 648 375 559 c 0,0,1
375 977 m 1,15,16
 466 1141 466 1141 660 1147 c 0,17,18
 667 1147 667 1147 674 1147 c 0,19,20
 877 1147 877 1147 992.5 990 c 128,-1,21
 1108 833 1108 833 1108 555 c 0,22,23
 1108 282 1108 282 992 126.5 c 128,-1,24
 876 -29 876 -29 674 -29 c 0,25,26
 572 -29 572 -29 495.5 14.5 c 128,-1,27
 419 58 419 58 375 141 c 1,28,-1
 375 -426 l 1,29,-1
 190 -426 l 1,30,-1
 190 1026 l 2,31,32
 190 1328 190 1328 393 1407 c 0,33,34
 456 1432 456 1432 534 1432 c 2,35,-1
 739 1432 l 1,36,-1
 739 1276 l 1,37,-1
 554 1276 l 2,38,39
 385 1276 385 1276 376 1055 c 0,40,41
 375 1041 375 1041 375 1026 c 2,42,-1
 375 977 l 1,15,16
EndSplineSet
EndChar

StartChar: uni01A6
Encoding: 422 422 350
Width: 1233
Flags: W
LayerCount: 2
Back
Fore
SplineSet
760 441 m 1,0,1
 838 421 838 421 893 366 c 0,2,3
 947 311 947 311 1030 144 c 2,4,-1
 1233 -264 l 1,5,-1
 1016 -264 l 1,6,-1
 838 113 l 2,7,8
 761 274 761 274 699.5 320.5 c 128,-1,9
 638 367 638 367 539 367 c 2,10,-1
 346 367 l 1,11,-1
 346 0 l 1,12,-1
 143 0 l 1,13,-1
 143 1493 l 1,14,-1
 346 1493 l 1,15,-1
 346 1229 l 1,16,-1
 559 1229 l 2,17,18
 805 1229 805 1229 936 1118 c 128,-1,19
 1067 1007 1067 1007 1067 797 c 0,20,21
 1067 649 1067 649 986.5 555.5 c 128,-1,22
 906 462 906 462 760 441 c 1,0,1
346 1063 m 1,23,-1
 346 533 l 1,24,-1
 567 533 l 2,25,26
 712 533 712 533 783 598 c 128,-1,27
 854 663 854 663 854 797 c 0,28,29
 854 926 854 926 778.5 994.5 c 128,-1,30
 703 1063 703 1063 559 1063 c 2,31,-1
 346 1063 l 1,23,-1
EndSplineSet
EndChar

StartChar: uni01A7
Encoding: 423 423 351
Width: 1233
Flags: W
LayerCount: 2
Back
Fore
SplineSet
225 1442 m 1,0,1
 330 1481 330 1481 425 1500.5 c 128,-1,2
 520 1520 520 1520 606 1520 c 0,3,4
 829 1520 829 1520 963.5 1399.5 c 128,-1,5
 1098 1279 1098 1279 1098 1079 c 0,6,7
 1098 919 1098 919 1004 824 c 128,-1,8
 910 729 910 729 702 682 c 2,9,-1
 594 657 l 2,10,11
 449 625 449 625 390.5 566 c 128,-1,12
 332 507 332 507 332 395 c 0,13,14
 332 272 332 272 417 203.5 c 128,-1,15
 502 135 502 135 655 135 c 0,16,17
 759 135 759 135 861.5 169 c 128,-1,18
 964 203 964 203 1079 276 c 1,19,-1
 1079 61 l 1,20,21
 972 16 972 16 866 -6.5 c 128,-1,22
 760 -29 760 -29 655 -29 c 0,23,24
 403 -29 403 -29 271 83 c 128,-1,25
 139 195 139 195 139 408 c 0,26,27
 139 589 139 589 235 694 c 128,-1,28
 331 799 331 799 541 848 c 2,29,-1
 647 872 l 2,30,31
 796 907 796 907 850.5 959 c 128,-1,32
 905 1011 905 1011 905 1110 c 0,33,34
 905 1223 905 1223 822 1289.5 c 128,-1,35
 739 1356 739 1356 596 1356 c 0,36,37
 502 1356 502 1356 409.5 1326 c 128,-1,38
 317 1296 317 1296 225 1237 c 1,39,-1
 225 1442 l 1,0,1
EndSplineSet
EndChar

StartChar: uni01A8
Encoding: 424 424 352
Width: 1233
Flags: W
LayerCount: 2
Back
Fore
SplineSet
270 1081 m 1,0,1
 350 1114 350 1114 433 1130.5 c 128,-1,2
 516 1147 516 1147 606 1147 c 0,3,4
 808 1147 808 1147 917 1059.5 c 128,-1,5
 1026 972 1026 972 1026 811 c 0,6,7
 1026 684 1026 684 953 610.5 c 128,-1,8
 880 537 880 537 721 506 c 2,9,-1
 652 492 l 1,10,-1
 644 490 l 1,11,12
 399 441 399 441 399 313 c 0,13,14
 399 224 399 224 466 174.5 c 128,-1,15
 533 125 533 125 655 125 c 0,16,17
 739 125 739 125 833 151.5 c 128,-1,18
 927 178 927 178 1030 231 c 1,19,-1
 1030 41 l 1,20,21
 924 6 924 6 833 -11.5 c 128,-1,22
 742 -29 742 -29 659 -29 c 0,23,24
 449 -29 449 -29 331 64.5 c 128,-1,25
 213 158 213 158 213 324 c 0,26,27
 213 449 213 449 283.5 527 c 128,-1,28
 354 605 354 605 491 631 c 2,29,-1
 565 645 l 2,30,31
 748 680 748 680 794 717 c 128,-1,32
 840 754 840 754 840 829 c 0,33,34
 840 912 840 912 778.5 952.5 c 128,-1,35
 717 993 717 993 592 993 c 0,36,37
 509 993 509 993 429 970 c 128,-1,38
 349 947 349 947 270 901 c 1,39,-1
 270 1081 l 1,0,1
EndSplineSet
EndChar

StartChar: uni01AA
Encoding: 426 426 354
Width: 1233
Flags: W
LayerCount: 2
Back
Fore
SplineSet
568 1284 m 1,0,1
 561 1329 561 1329 543 1352 c 0,2,3
 510 1400 510 1400 400 1400 c 0,4,5
 276 1400 276 1400 273 1335 c 0,6,7
 270 1284 270 1284 389 1284 c 2,8,-1
 568 1284 l 1,0,1
765 1130 m 1,9,-1
 763 -89 l 2,10,11
 763 -192 763 -192 802 -233 c 0,12,13
 839 -273 839 -273 939 -273 c 2,14,-1
 1115 -273 l 1,15,-1
 1115 -426 l 1,16,-1
 941 -426 l 2,17,18
 746 -426 746 -426 665 -340 c 0,19,20
 578 -248 578 -248 578 -68 c 2,21,-1
 578 1130 l 1,22,-1
 388 1130 l 2,23,24
 118 1130 118 1130 118 1340 c 0,25,26
 118 1556 118 1556 421 1556 c 0,27,28
 602 1556 602 1556 684 1460 c 0,29,30
 737 1396 737 1396 755 1285 c 1,31,-1
 946 1285 l 1,32,-1
 946 1130 l 1,33,-1
 765 1130 l 1,9,-1
EndSplineSet
EndChar

StartChar: uni01AB
Encoding: 427 427 355
Width: 1233
Flags: W
LayerCount: 2
Back
Fore
SplineSet
614 1438 m 1,0,-1
 614 1120 l 1,1,-1
 1032 1120 l 1,2,-1
 1032 977 l 1,3,-1
 614 977 l 1,4,-1
 614 369 l 2,5,6
 614 245 614 245 661 196 c 128,-1,7
 708 147 708 147 825 147 c 2,8,-1
 1032 147 l 1,9,-1
 1032 0 l 1,10,-1
 1032 -20 l 2,11,12
 1032 -215 1032 -215 943 -320 c 0,13,14
 853 -426 853 -426 688 -426 c 2,15,-1
 483 -426 l 1,16,-1
 483 -270 l 1,17,-1
 668 -270 l 2,18,19
 758 -270 758 -270 803 -208 c 0,20,21
 847 -146 847 -146 847 -20 c 2,22,-1
 847 0 l 1,23,-1
 807 0 l 2,24,25
 600 0 600 0 515 83 c 128,-1,26
 430 166 430 166 430 369 c 2,27,-1
 430 977 l 1,28,-1
 131 977 l 1,29,-1
 131 1120 l 1,30,-1
 430 1120 l 1,31,-1
 430 1438 l 1,32,-1
 614 1438 l 1,0,-1
EndSplineSet
EndChar

StartChar: uni01AC
Encoding: 428 428 356
Width: 1233
Flags: W
LayerCount: 2
Back
Fore
SplineSet
453 1327 m 2,0,1
 322 1335 322 1335 252 1280 c 0,2,3
 203 1242 203 1242 203 1128 c 2,4,-1
 203 1079 l 1,5,-1
 47 1079 l 1,6,-1
 47 1149 l 2,7,8
 47 1330 47 1330 143 1411.5 c 128,-1,9
 239 1493 239 1493 453 1493 c 2,10,-1
 1186 1493 l 1,11,-1
 1186 1323 l 1,12,-1
 719 1323 l 1,13,-1
 719 0 l 1,14,-1
 516 0 l 1,15,-1
 516 1323 l 1,16,-1
 453 1327 l 2,0,1
EndSplineSet
EndChar

StartChar: uni01AD
Encoding: 429 429 357
Width: 1233
Flags: W
LayerCount: 2
Back
Fore
SplineSet
614 1120 m 1,0,-1
 1032 1120 l 1,1,-1
 1032 977 l 1,2,-1
 614 977 l 1,3,-1
 614 369 l 2,4,5
 614 245 614 245 661 196 c 128,-1,6
 708 147 708 147 825 147 c 2,7,-1
 1032 147 l 1,8,-1
 1032 0 l 1,9,-1
 807 0 l 2,10,11
 600 0 600 0 515 83 c 128,-1,12
 430 166 430 166 430 369 c 2,13,-1
 430 977 l 1,14,-1
 131 977 l 1,15,-1
 131 1120 l 1,16,-1
 429 1120 l 1,17,-1
 429 1150 l 2,18,19
 429 1345 429 1345 518 1450 c 0,20,21
 608 1556 608 1556 773 1556 c 2,22,-1
 978 1556 l 1,23,-1
 978 1400 l 1,24,-1
 793 1400 l 2,25,26
 703 1400 703 1400 658 1338 c 0,27,28
 614 1276 614 1276 614 1150 c 2,29,-1
 614 1120 l 1,0,-1
EndSplineSet
EndChar

StartChar: uni01AE
Encoding: 430 430 358
Width: 1233
Flags: W
LayerCount: 2
Back
Fore
SplineSet
47 1493 m 1,0,-1
 1186 1493 l 1,1,-1
 1186 1323 l 1,2,-1
 719 1323 l 1,3,-1
 719 -20 l 2,4,5
 719 -146 719 -146 763 -208 c 0,6,7
 808 -270 808 -270 898 -270 c 2,8,-1
 1083 -270 l 1,9,-1
 1083 -426 l 1,10,-1
 860 -426 l 2,11,12
 695 -426 695 -426 605 -320 c 0,13,14
 516 -215 516 -215 516 -20 c 2,15,-1
 516 1323 l 1,16,-1
 47 1323 l 1,17,-1
 47 1493 l 1,0,-1
EndSplineSet
EndChar

StartChar: uni01B1
Encoding: 433 433 361
Width: 1233
Flags: W
LayerCount: 2
Back
Fore
SplineSet
1159 1460 m 1,0,-1
 1159 1288 l 1,1,-1
 914 1288 l 1,2,3
 1037 1154 1037 1154 1092 1010 c 128,-1,4
 1147 866 1147 866 1147 678 c 0,5,6
 1147 367 1147 367 1003 183.5 c 128,-1,7
 859 0 859 0 619 0 c 0,8,9
 377 0 377 0 232.5 183 c 128,-1,10
 88 366 88 366 88 678 c 0,11,12
 88 866 88 866 143.5 1010.5 c 128,-1,13
 199 1155 199 1155 322 1288 c 1,14,-1
 74 1288 l 1,15,-1
 74 1460 l 1,16,-1
 537 1460 l 1,17,-1
 537 1288 l 1,18,19
 417 1212 417 1212 350 1047.5 c 128,-1,20
 283 883 283 883 283 661 c 0,21,22
 283 431 283 431 373 298.5 c 128,-1,23
 463 166 463 166 617 166 c 128,-1,24
 771 166 771 166 860.5 298.5 c 128,-1,25
 950 431 950 431 950 661 c 0,26,27
 950 883 950 883 883 1047.5 c 128,-1,28
 816 1212 816 1212 696 1288 c 1,29,-1
 696 1460 l 1,30,-1
 1159 1460 l 1,0,-1
EndSplineSet
EndChar

StartChar: uni01B2
Encoding: 434 434 362
Width: 1233
Flags: W
LayerCount: 2
Back
Fore
SplineSet
506 0 m 0,0,1
 336 0 336 0 244 106 c 0,2,3
 154 208 154 208 154 406 c 2,4,-1
 154 1493 l 1,5,-1
 358 1493 l 1,6,-1
 358 421 l 2,7,8
 358 295 358 295 402 233 c 256,9,10
 446 171 446 171 536 171 c 0,11,12
 690 171 690 171 780 303.5 c 128,-1,13
 870 436 870 436 870 666 c 0,14,15
 870 888 870 888 803 1052.5 c 128,-1,16
 736 1217 736 1217 616 1293 c 1,17,-1
 834 1293 l 1,18,19
 956 1159 956 1159 1011 1015 c 128,-1,20
 1066 871 1066 871 1066 683 c 0,21,22
 1066 372 1066 372 922 188 c 0,23,24
 775 0 775 0 506 0 c 0,0,1
EndSplineSet
EndChar

StartChar: uni01B3
Encoding: 435 435 363
Width: 1233
Flags: W
LayerCount: 2
Back
Fore
SplineSet
875 1140 m 2,0,-1
 629 670 l 1,1,-1
 629 0 l 1,2,-1
 446 0 l 1,3,-1
 446 670 l 1,4,-1
 17 1493 l 1,5,-1
 210 1493 l 1,6,-1
 538 834 l 1,7,-1
 737 1235 l 2,8,9
 836 1435 836 1435 945 1477 c 0,10,11
 991 1495 991 1495 1036 1495 c 0,12,13
 1116 1495 1116 1495 1191 1438 c 2,14,-1
 1216 1419 l 1,15,-1
 1145 1285 l 1,16,-1
 1135 1294 l 2,17,18
 1101 1325 1101 1325 1061 1325 c 0,19,20
 1033 1325 1033 1325 1002 1309 c 0,21,22
 951 1285 951 1285 875 1140 c 2,0,-1
EndSplineSet
EndChar

StartChar: uni01B4
Encoding: 436 436 364
Width: 1233
Flags: W
LayerCount: 2
Back
Fore
SplineSet
622 -104 m 2,0,1
 541 -307 541 -307 470 -365 c 0,2,3
 396 -426 396 -426 272 -426 c 2,4,-1
 125 -426 l 1,5,-1
 125 -272 l 1,6,-1
 233 -272 l 2,7,8
 309 -272 309 -272 351 -236 c 128,-1,9
 393 -200 393 -200 444 -66 c 2,10,-1
 477 18 l 1,11,-1
 24 1120 l 1,12,-1
 219 1120 l 1,13,-1
 569 244 l 1,14,-1
 848 943 l 2,15,16
 898 1069 898 1069 979 1110 c 0,17,18
 1022 1132 1022 1132 1073 1132 c 0,19,20
 1122 1132 1122 1132 1177 1112 c 2,21,-1
 1225 1095 l 1,22,-1
 1172 948 l 1,23,-1
 1144 958 l 2,24,25
 1116 969 1116 969 1094 969 c 0,26,27
 1051 969 1051 969 1035 928 c 2,28,-1
 622 -104 l 2,0,1
EndSplineSet
EndChar

StartChar: uni01B5
Encoding: 437 437 365
Width: 1233
Flags: W
LayerCount: 2
Back
Fore
SplineSet
178 1493 m 1,0,-1
 1147 1493 l 1,1,-1
 1147 1339 l 1,2,-1
 752 747 l 1,3,-1
 984 747 l 1,4,-1
 984 577 l 1,5,-1
 719 577 l 1,6,-1
 639 577 l 1,7,-1
 367 170 l 1,8,-1
 1169 170 l 1,9,-1
 1169 0 l 1,10,-1
 156 0 l 1,11,-1
 156 154 l 1,12,-1
 431 577 l 1,13,-1
 251 577 l 1,14,-1
 251 747 l 1,15,-1
 541 747 l 1,16,-1
 915 1323 l 1,17,-1
 178 1323 l 1,18,-1
 178 1493 l 1,0,-1
EndSplineSet
EndChar

StartChar: uni01B6
Encoding: 438 438 366
Width: 1233
Flags: W
LayerCount: 2
Back
Fore
SplineSet
222 1122 m 1,0,-1
 1035 1122 l 1,1,-1
 1035 954 l 1,2,-1
 765 616 l 1,3,-1
 1077 616 l 1,4,-1
 1077 452 l 1,5,-1
 723 452 l 1,6,-1
 634 452 l 1,7,-1
 392 150 l 1,8,-1
 1035 150 l 1,9,-1
 1035 0 l 1,10,-1
 198 0 l 1,11,-1
 198 170 l 1,12,-1
 423 452 l 1,13,-1
 156 452 l 1,14,-1
 156 616 l 1,15,-1
 554 616 l 1,16,-1
 841 975 l 1,17,-1
 222 975 l 1,18,-1
 222 1122 l 1,0,-1
EndSplineSet
EndChar

StartChar: uni01B7
Encoding: 439 439 367
Width: 1233
Flags: W
LayerCount: 2
Back
Fore
SplineSet
228 435 m 1,0,1
 228 292 228 292 328 217 c 0,2,3
 427 142 427 142 616.5 142 c 128,-1,4
 806 142 806 142 906 217 c 256,5,6
 1006 292 1006 292 1006 435 c 0,7,8
 1006 569 1006 569 914 642 c 0,9,10
 820 716 820 716 656 716 c 2,11,-1
 482 716 l 1,12,-1
 482 882 l 1,13,-1
 852 1323 l 1,14,-1
 114 1323 l 1,15,-1
 114 1493 l 1,16,-1
 1084 1493 l 1,17,-1
 1084 1325 l 1,18,-1
 708 884 l 1,19,20
 812 884 812 884 942 828 c 0,21,22
 1040 785 1040 785 1126 677 c 0,23,24
 1206 573 1206 573 1206 435 c 0,25,26
 1206 214 1206 214 1054 93 c 128,-1,27
 902 -28 902 -28 622 -28 c 0,28,29
 330 -28 330 -28 178 93 c 128,-1,30
 26 214 26 214 26 435 c 1,31,-1
 228 435 l 1,0,1
EndSplineSet
EndChar

StartChar: uni01B8
Encoding: 440 440 368
Width: 1233
Flags: W
LayerCount: 2
Back
Fore
SplineSet
1006 435 m 1,0,-1
 1206 435 l 1,1,2
 1206 214 1206 214 1054 93 c 128,-1,3
 902 -28 902 -28 610 -28 c 0,4,5
 330 -28 330 -28 178 93 c 128,-1,6
 26 214 26 214 26 435 c 0,7,8
 26 573 26 573 108 677 c 0,9,10
 193 785 193 785 292 828 c 0,11,12
 421 884 421 884 526 884 c 1,13,-1
 150 1325 l 1,14,-1
 150 1493 l 1,15,-1
 1118 1493 l 1,16,-1
 1118 1323 l 1,17,-1
 382 1323 l 1,18,-1
 752 882 l 1,19,-1
 752 716 l 1,20,-1
 578 716 l 2,21,22
 412 716 412 716 320 642 c 0,23,24
 228 569 228 569 228 435 c 0,25,26
 228 292 228 292 328 217 c 0,27,28
 427 142 427 142 616.5 142 c 128,-1,29
 806 142 806 142 906 217 c 256,30,31
 1006 292 1006 292 1006 435 c 1,0,-1
EndSplineSet
EndChar

StartChar: uni01B9
Encoding: 441 441 369
Width: 1233
Flags: W
LayerCount: 2
Back
Fore
SplineSet
624 476 m 1,0,-1
 213 952 l 1,1,-1
 213 1120 l 1,2,-1
 1087 1120 l 1,3,-1
 1087 973 l 1,4,-1
 420 973 l 1,5,-1
 850 474 l 1,6,-1
 850 308 l 1,7,-1
 676 308 l 2,8,9
 511 308 511 308 418 234 c 0,10,11
 326 159 326 159 326 27 c 0,12,13
 326 -116 326 -116 426 -191 c 0,14,15
 525 -266 525 -266 715 -266 c 0,16,17
 824 -266 824 -266 924 -241 c 128,-1,18
 1024 -216 1024 -216 1108 -167 c 1,19,-1
 1108 -362 l 1,20,21
 1002 -399 1002 -399 902 -418 c 0,22,23
 803 -436 803 -436 709 -436 c 0,24,25
 429 -436 429 -436 277 -315 c 128,-1,26
 125 -194 125 -194 125 27 c 0,27,28
 125 165 125 165 206 269 c 0,29,30
 292 378 292 378 390 420 c 0,31,32
 518 476 518 476 624 476 c 1,0,-1
EndSplineSet
EndChar

StartChar: uni01BA
Encoding: 442 442 370
Width: 1233
Flags: W
LayerCount: 2
Back
Fore
SplineSet
699 -274 m 0,0,1
 783 -274 783 -274 860 -253 c 0,2,3
 939 -232 939 -232 1020 -188 c 1,4,-1
 1020 -367 l 1,5,6
 933 -399 933 -399 853 -412 c 0,7,8
 767 -426 767 -426 670 -426 c 0,9,10
 190 -426 190 -426 190 -145 c 0,11,12
 190 93 190 93 596 146 c 0,13,14
 880 183 880 183 880 281 c 0,15,16
 880 405 880 405 645 405 c 2,17,18
 645 405 645 405 355 405 c 1,19,-1
 840 973 l 1,20,-1
 173 973 l 1,21,-1
 173 1120 l 1,22,-1
 1047 1120 l 1,23,-1
 1047 952 l 1,24,-1
 693 540 l 1,25,26
 1060 540 1060 540 1060 311 c 0,27,28
 1060 35 1060 35 596 -14 c 0,29,30
 370 -38 370 -38 370 -135 c 0,31,32
 370 -274 370 -274 699 -274 c 0,0,1
EndSplineSet
EndChar

StartChar: uni01BB
Encoding: 443 443 371
Width: 1233
Flags: W
LayerCount: 2
Back
Fore
SplineSet
164 1421 m 1,0,1
 372 1520 372 1520 563 1520 c 0,2,3
 782 1520 782 1520 915.5 1403.5 c 128,-1,4
 1049 1287 1049 1287 1049 1098 c 0,5,6
 1049 1002 1049 1002 1004 906 c 0,7,8
 970 832 970 832 904 747 c 1,9,-1
 984 747 l 1,10,-1
 984 577 l 1,11,-1
 754 577 l 1,12,-1
 698 514 l 1,13,-1
 373 170 l 1,14,-1
 1059 170 l 1,15,-1
 1059 0 l 1,16,-1
 152 0 l 1,17,-1
 152 170 l 1,18,-1
 534 577 l 1,19,-1
 251 577 l 1,20,-1
 251 747 l 1,21,-1
 685 747 l 1,22,23
 790 877 790 877 820 961 c 0,24,25
 842 1021 842 1021 842 1083 c 0,26,27
 842 1268 842 1268 692 1328 c 0,28,29
 635 1350 635 1350 567 1350 c 0,30,31
 386 1350 386 1350 164 1217 c 1,32,-1
 164 1421 l 1,0,1
EndSplineSet
EndChar

StartChar: uni01BC
Encoding: 444 444 372
Width: 1233
Flags: W
LayerCount: 2
Back
Fore
SplineSet
616 142 m 0,0,1
 932 142 932 142 993 341 c 0,2,3
 1006 384 1006 384 1006 435 c 0,4,5
 1006 569 1006 569 914 642 c 0,6,7
 820 716 820 716 656 716 c 2,8,-1
 215 716 l 1,9,-1
 215 1493 l 1,10,-1
 1139 1493 l 1,11,-1
 1139 1323 l 1,12,-1
 418 1323 l 1,13,-1
 418 884 l 1,14,-1
 708 884 l 2,15,16
 813 884 813 884 942 828 c 0,17,18
 1041 785 1041 785 1126 677 c 0,19,20
 1206 576 1206 576 1206 435 c 0,21,22
 1206 214 1206 214 1054 93 c 128,-1,23
 902 -28 902 -28 622 -28 c 0,24,25
 192 -28 192 -28 70 228 c 0,26,27
 26 319 26 319 26 435 c 1,28,-1
 228 435 l 1,29,30
 228 254 228 254 386 183 c 0,31,32
 477 142 477 142 616 142 c 0,0,1
EndSplineSet
EndChar

StartChar: uni01BD
Encoding: 445 445 373
Width: 1233
Flags: W
LayerCount: 2
Back
Fore
SplineSet
518 -266 m 0,0,1
 829 -266 829 -266 892 -71 c 0,2,3
 907 -26 907 -26 907 27 c 0,4,5
 907 161 907 161 815 234 c 0,6,7
 722 308 722 308 557 308 c 2,8,-1
 257 308 l 1,9,-1
 257 1120 l 1,10,-1
 1009 1120 l 1,11,-1
 1009 936 l 1,12,-1
 441 936 l 1,13,-1
 441 475 l 1,14,-1
 609 476 l 2,15,16
 712 477 712 477 843 420 c 0,17,18
 942 377 942 377 1027 269 c 0,19,20
 1108 165 1108 165 1108 27 c 0,21,22
 1108 -194 1108 -194 956 -315 c 128,-1,23
 804 -436 804 -436 524 -436 c 0,24,25
 337 -436 337 -436 125 -362 c 1,26,-1
 125 -167 l 1,27,28
 295 -266 295 -266 518 -266 c 0,0,1
EndSplineSet
EndChar

StartChar: uni01BE
Encoding: 446 446 374
Width: 1233
Flags: W
LayerCount: 2
Back
Fore
SplineSet
845 439 m 0,0,1
 845 553 845 553 771 632 c 0,2,3
 682 727 682 727 509 727 c 2,4,-1
 447 727 l 1,5,-1
 447 998 l 1,6,-1
 218 998 l 1,7,-1
 218 1162 l 1,8,-1
 447 1162 l 1,9,-1
 447 1438 l 1,10,-1
 649 1438 l 1,11,-1
 649 1162 l 1,12,-1
 880 1162 l 1,13,-1
 880 998 l 1,14,-1
 649 998 l 1,15,-1
 649 873 l 1,16,17
 814 844 814 844 922 734 c 0,18,19
 1039 615 1039 615 1039 439 c 0,20,21
 1039 254 1039 254 929 128 c 0,22,23
 791 -29 791 -29 517 -29 c 0,24,25
 346 -29 346 -29 194 41 c 1,26,-1
 194 213 l 1,27,28
 350 127 350 127 509 127 c 0,29,30
 688 127 688 127 787 241 c 0,31,32
 844 306 844 306 845 439 c 0,0,1
EndSplineSet
EndChar

StartChar: uni01BF
Encoding: 447 447 375
Width: 1233
Flags: W
LayerCount: 2
Back
Fore
SplineSet
310 -122 m 1,0,-1
 310 -426 l 1,1,-1
 125 -426 l 1,2,-1
 125 1120 l 1,3,-1
 310 1120 l 1,4,-1
 310 950 l 1,5,6
 362 1016 362 1016 497 1098 c 0,7,8
 578 1147 578 1147 788 1147 c 0,9,10
 972 1147 972 1147 1049 1035 c 0,11,12
 1127 922 1127 922 1127 769 c 0,13,14
 1127 344 1127 344 310 -122 c 1,0,-1
310 60 m 1,15,16
 936 460 936 460 936 709 c 0,17,18
 936 842 936 842 879 908 c 0,19,20
 823 973 823 973 703 973 c 0,21,22
 483 973 483 973 310 734 c 1,23,-1
 310 60 l 1,15,16
EndSplineSet
EndChar

StartChar: uni01C0
Encoding: 448 448 376
Width: 1233
Flags: W
LayerCount: 2
Back
Fore
SplineSet
516 1493 m 1,0,-1
 718 1493 l 1,1,-1
 718 0 l 1,2,-1
 516 0 l 1,3,-1
 516 1493 l 1,0,-1
EndSplineSet
EndChar

StartChar: uni01C2
Encoding: 450 450 378
Width: 1233
Flags: W
LayerCount: 2
Back
Fore
SplineSet
516 1493 m 1,0,-1
 718 1493 l 1,1,-1
 718 1089 l 1,2,-1
 1068 1089 l 1,3,-1
 1068 921 l 1,4,-1
 718 921 l 1,5,-1
 718 681 l 1,6,-1
 1068 681 l 1,7,-1
 1068 511 l 1,8,-1
 718 511 l 1,9,-1
 718 0 l 1,10,-1
 516 0 l 1,11,-1
 516 511 l 1,12,-1
 164 511 l 1,13,-1
 164 681 l 1,14,-1
 516 681 l 1,15,-1
 516 921 l 1,16,-1
 164 921 l 1,17,-1
 164 1089 l 1,18,-1
 516 1089 l 1,19,-1
 516 1493 l 1,0,-1
EndSplineSet
EndChar

StartChar: uni01F6
Encoding: 502 502 416
Width: 1233
Flags: W
LayerCount: 2
Back
Fore
SplineSet
877 135 m 0,0,1
 931 135 931 135 956 214 c 0,2,3
 989 316 989 316 989 586 c 2,4,-1
 989 881 l 1,5,-1
 1171 881 l 1,6,-1
 1171 561 l 2,7,8
 1171 188 1171 188 1067 48 c 0,9,10
 1010 -29 1010 -29 877 -29 c 0,11,12
 749 -29 749 -29 677 54 c 0,13,14
 543 207 543 207 543 561 c 2,15,-1
 543 711 l 1,16,-1
 244 711 l 1,17,-1
 244 0 l 1,18,-1
 62 0 l 1,19,-1
 62 1493 l 1,20,-1
 244 1493 l 1,21,-1
 244 881 l 1,22,-1
 543 881 l 1,23,-1
 543 1493 l 1,24,-1
 726 1493 l 1,25,-1
 726 586 l 2,26,27
 726 313 726 313 808 174 c 0,28,29
 831 135 831 135 877 135 c 0,0,1
EndSplineSet
EndChar

StartChar: uni021C
Encoding: 540 540 451
Width: 1233
Flags: W
LayerCount: 2
Back
Fore
SplineSet
800 674 m 1,0,1
 1108 607 1108 607 1108 314 c 0,2,3
 1108 202 1108 202 1052.5 99 c 128,-1,4
 997 -4 997 -4 904.5 -84 c 128,-1,5
 812 -164 812 -164 684 -232 c 128,-1,6
 556 -300 556 -300 417 -348 c 128,-1,7
 278 -396 278 -396 125 -430 c 1,8,-1
 125 -270 l 1,9,10
 325 -215 325 -215 477.5 -145 c 128,-1,11
 630 -75 630 -75 722.5 1.5 c 128,-1,12
 815 78 815 78 861 156.5 c 128,-1,13
 907 235 907 235 907 314 c 0,14,15
 907 415 907 415 844.5 481 c 128,-1,16
 782 547 782 547 670 547 c 0,17,18
 575 547 575 547 460 496 c 2,19,-1
 297 424 l 1,20,-1
 297 595 l 1,21,-1
 545 701 l 2,22,23
 605 727 605 727 656 759.5 c 128,-1,24
 707 792 707 792 759 841.5 c 128,-1,25
 811 891 811 891 841.5 960.5 c 128,-1,26
 872 1030 872 1030 872 1112 c 0,27,28
 872 1167 872 1167 854.5 1210 c 128,-1,29
 837 1253 837 1253 809.5 1278.5 c 128,-1,30
 782 1304 782 1304 744.5 1321 c 128,-1,31
 707 1338 707 1338 671 1344 c 128,-1,32
 635 1350 635 1350 597 1350 c 0,33,34
 413 1350 413 1350 170 1166 c 1,35,-1
 170 1356 l 1,36,37
 409 1520 409 1520 615 1520 c 0,38,39
 746 1520 746 1520 847.5 1477 c 128,-1,40
 949 1434 949 1434 1011 1343 c 128,-1,41
 1073 1252 1073 1252 1073 1124 c 0,42,43
 1073 1064 1073 1064 1061.5 1013 c 128,-1,44
 1050 962 1050 962 1021 905.5 c 128,-1,45
 992 849 992 849 937 791 c 128,-1,46
 882 733 882 733 800 674 c 1,0,1
EndSplineSet
EndChar

StartChar: uni021D
Encoding: 541 541 452
Width: 1233
Flags: W
LayerCount: 2
Back
Fore
SplineSet
782 461 m 1,0,1
 852 453 852 453 908 419 c 128,-1,2
 964 385 964 385 995 340 c 128,-1,3
 1026 295 1026 295 1042.5 251 c 128,-1,4
 1059 207 1059 207 1059 170 c 0,5,6
 1059 95 1059 95 1026 26 c 128,-1,7
 993 -43 993 -43 939 -97 c 128,-1,8
 885 -151 885 -151 809 -199.5 c 128,-1,9
 733 -248 733 -248 654.5 -283 c 128,-1,10
 576 -318 576 -318 486.5 -348.5 c 128,-1,11
 397 -379 397 -379 322.5 -398.5 c 128,-1,12
 248 -418 248 -418 174 -433 c 1,13,-1
 174 -303 l 1,14,15
 336 -257 336 -257 458.5 -209 c 128,-1,16
 581 -161 581 -161 660 -115.5 c 128,-1,17
 739 -70 739 -70 788.5 -21 c 128,-1,18
 838 28 838 28 858 73.5 c 128,-1,19
 878 119 878 119 878 170 c 0,20,21
 878 258 878 258 819 314 c 128,-1,22
 760 370 760 370 667 370 c 0,23,24
 608 370 608 370 545 345 c 2,25,-1
 329 259 l 1,26,-1
 329 398 l 1,27,-1
 552 483 l 2,28,29
 586 496 586 496 618.5 512 c 128,-1,30
 651 528 651 528 694.5 558 c 128,-1,31
 738 588 738 588 769.5 622.5 c 128,-1,32
 801 657 801 657 823.5 708 c 128,-1,33
 846 759 846 759 846 816 c 0,34,35
 846 860 846 860 830.5 895 c 128,-1,36
 815 930 815 930 790.5 951 c 128,-1,37
 766 972 766 972 732.5 985.5 c 128,-1,38
 699 999 699 999 666.5 1004 c 128,-1,39
 634 1009 634 1009 599 1009 c 0,40,41
 530 1009 530 1009 446 979.5 c 128,-1,42
 362 950 362 950 215 860 c 1,43,-1
 215 1014 l 1,44,45
 481 1147 481 1147 615 1147 c 0,46,47
 727 1147 727 1147 819 1111.5 c 128,-1,48
 911 1076 911 1076 969 1003 c 128,-1,49
 1027 930 1027 930 1027 833 c 0,50,51
 1027 723 1027 723 975.5 646.5 c 128,-1,52
 924 570 924 570 782 461 c 1,0,1
EndSplineSet
EndChar

StartChar: uni0220
Encoding: 544 544 455
Width: 1233
Flags: W
LayerCount: 2
Back
Fore
SplineSet
1085 999 m 2,0,-1
 1085 -430 l 1,1,-1
 882 -430 l 1,2,-1
 882 1009 l 2,3,4
 882 1189 882 1189 824 1273.5 c 128,-1,5
 766 1358 766 1358 642 1358 c 0,6,7
 501 1358 501 1358 425 1249 c 128,-1,8
 349 1140 349 1140 349 937 c 2,9,-1
 349 0 l 1,10,-1
 147 0 l 1,11,-1
 147 1493 l 1,12,-1
 349 1493 l 1,13,-1
 349 1295 l 1,14,15
 403 1406 403 1406 495 1464 c 128,-1,16
 587 1522 587 1522 713 1522 c 0,17,18
 900 1522 900 1522 992.5 1391.5 c 128,-1,19
 1085 1261 1085 1261 1085 999 c 2,0,-1
EndSplineSet
EndChar

StartChar: uni0221
Encoding: 545 545 456
Width: 1233
Flags: W
LayerCount: 2
Back
Fore
SplineSet
877 144 m 1,0,1
 889 126 889 126 955 127 c 0,2,3
 1078 127 1078 127 1081 282 c 0,4,5
 1085 344 1085 344 1021 344 c 128,-1,6
 957 344 957 344 877 144 c 1,0,1
788 406 m 2,7,8
 788 290 788 290 801 255 c 1,9,10
 915 499 915 499 1019 500 c 0,11,12
 1183 502 1183 502 1183 284 c 0,13,14
 1183 -29 1183 -29 933 -29 c 0,15,16
 862 -29 862 -29 814 -12 c 1,17,18
 784 -91 784 -91 764 -148 c 1,19,-1
 645 -148 l 1,20,-1
 713 46 l 1,21,22
 681 59 681 59 643 148 c 2,23,-1
 627 185 l 1,24,25
 599 95 599 95 543 42 c 0,26,27
 466 -30 466 -30 366 -29 c 0,28,29
 203 -27 203 -27 111 128 c 0,30,31
 18 286 18 286 18 563 c 0,32,33
 18 836 18 836 111.5 991.5 c 128,-1,34
 205 1147 205 1147 366 1147 c 0,35,36
 446 1147 446 1147 507.5 1103.5 c 128,-1,37
 569 1060 569 1060 604 977 c 1,38,-1
 604 1556 l 1,39,-1
 788 1556 l 1,40,-1
 788 406 l 2,7,8
173 559 m 128,-1,42
 173 345 173 345 227 236 c 128,-1,43
 281 127 281 127 387 127 c 128,-1,44
 493 127 493 127 548.5 237 c 128,-1,45
 604 347 604 347 604 559 c 0,46,47
 604 772 604 772 548.5 881.5 c 128,-1,48
 493 991 493 991 387 991 c 128,-1,49
 281 991 281 991 227 882 c 128,-1,41
 173 773 173 773 173 559 c 128,-1,42
EndSplineSet
EndChar

StartChar: uni0224
Encoding: 548 548 457
Width: 1233
Flags: W
LayerCount: 2
Back
Fore
SplineSet
178 1493 m 1,0,-1
 1147 1493 l 1,1,-1
 1147 1339 l 1,2,-1
 367 170 l 1,3,-1
 1169 170 l 1,4,-1
 1169 128 l 1,5,-1
 1170 128 l 1,6,-1
 1170 -20 l 2,7,8
 1170 -215 1170 -215 1081 -320 c 0,9,10
 991 -426 991 -426 826 -426 c 2,11,-1
 621 -426 l 1,12,-1
 621 -270 l 1,13,-1
 806 -270 l 2,14,15
 896 -270 896 -270 941 -208 c 0,16,17
 985 -146 985 -146 985 -20 c 2,18,-1
 985 0 l 1,19,-1
 156 0 l 1,20,-1
 156 154 l 1,21,-1
 915 1323 l 1,22,-1
 178 1323 l 1,23,-1
 178 1493 l 1,0,-1
EndSplineSet
EndChar

StartChar: uni0225
Encoding: 549 549 458
Width: 1233
Flags: W
LayerCount: 2
Back
Fore
SplineSet
227 1122 m 1,0,-1
 1040 1122 l 1,1,-1
 1040 954 l 1,2,-1
 397 150 l 1,3,-1
 1040 150 l 1,4,-1
 1040 0 l 1,5,-1
 1032 0 l 1,6,-1
 1032 -20 l 2,7,8
 1032 -215 1032 -215 943 -320 c 0,9,10
 853 -426 853 -426 688 -426 c 2,11,-1
 483 -426 l 1,12,-1
 483 -270 l 1,13,-1
 668 -270 l 2,14,15
 758 -270 758 -270 803 -208 c 0,16,17
 847 -146 847 -146 847 -20 c 2,18,-1
 847 0 l 1,19,-1
 203 0 l 1,20,-1
 203 170 l 1,21,-1
 846 975 l 1,22,-1
 227 975 l 1,23,-1
 227 1122 l 1,0,-1
EndSplineSet
EndChar

StartChar: uni0234
Encoding: 564 564 473
Width: 1233
Flags: W
LayerCount: 2
Back
Fore
SplineSet
728 144 m 1,0,1
 740 126 740 126 806 127 c 0,2,3
 929 127 929 127 932 282 c 0,4,5
 936 344 936 344 872 344 c 128,-1,6
 808 344 808 344 728 144 c 1,0,1
664 -12 m 1,7,8
 635 -91 635 -91 615 -148 c 1,9,-1
 496 -148 l 1,10,-1
 564 46 l 1,11,12
 545 51 545 51 494 148 c 0,13,14
 455 222 455 222 455 406 c 2,15,-1
 455 1423 l 1,16,-1
 160 1423 l 1,17,-1
 160 1567 l 1,18,-1
 639 1567 l 1,19,-1
 639 406 l 2,20,21
 639 290 639 290 652 255 c 1,22,23
 766 499 766 499 870 500 c 0,24,25
 1034 502 1034 502 1034 284 c 0,26,27
 1034 -29 1034 -29 784 -29 c 0,28,29
 714 -29 714 -29 664 -12 c 1,7,8
EndSplineSet
EndChar

StartChar: uni0235
Encoding: 565 565 474
Width: 1233
Flags: W
LayerCount: 2
Back
Fore
SplineSet
820 144 m 1,0,1
 832 126 832 126 898 127 c 0,2,3
 1021 127 1021 127 1024 282 c 0,4,5
 1028 344 1028 344 964 344 c 128,-1,6
 900 344 900 344 820 144 c 1,0,1
715 406 m 2,7,8
 715 292 715 292 737 246 c 1,9,10
 859 498 859 498 962 500 c 0,11,12
 1121 502 1121 502 1126 296 c 0,13,14
 1126 290 1126 290 1126 284 c 0,15,16
 1126 -28 1126 -28 876 -29 c 0,17,18
 805 -29 805 -29 756 -12 c 1,19,20
 727 -91 727 -91 707 -148 c 1,21,-1
 588 -148 l 1,22,-1
 656 46 l 1,23,24
 637 51 637 51 586 148 c 0,25,26
 547 222 547 222 547 406 c 2,27,-1
 547 641 l 2,28,29
 547 878 547 878 520.5 935.5 c 128,-1,30
 494 993 494 993 404 993 c 0,31,32
 331 993 331 993 302.5 931.5 c 128,-1,33
 274 870 274 870 274 641 c 2,34,-1
 274 0 l 1,35,-1
 107 0 l 1,36,-1
 107 1120 l 1,37,-1
 274 1120 l 1,38,-1
 274 1024 l 1,39,40
 307 1084 307 1084 356.5 1115.5 c 128,-1,41
 406 1147 406 1147 469 1147 c 0,42,43
 602 1147 602 1147 659 1042 c 0,44,45
 715 941 715 941 715 649 c 2,46,-1
 715 406 l 2,7,8
EndSplineSet
EndChar

StartChar: uni0236
Encoding: 566 566 475
Width: 1233
Flags: W
LayerCount: 2
Back
Fore
SplineSet
703 144 m 1,0,1
 715 126 715 126 781 127 c 0,2,3
 904 127 904 127 907 282 c 0,4,5
 911 344 911 344 847 344 c 128,-1,6
 783 344 783 344 703 144 c 1,0,1
614 406 m 2,7,8
 614 290 614 290 627 255 c 1,9,10
 741 499 741 499 845 500 c 0,11,12
 1009 502 1009 502 1009 284 c 0,13,14
 1009 -29 1009 -29 759 -29 c 0,15,16
 688 -29 688 -29 640 -12 c 1,17,18
 610 -91 610 -91 590 -148 c 1,19,-1
 471 -148 l 1,20,-1
 539 46 l 1,21,22
 520 51 520 51 469 148 c 0,23,24
 430 222 430 222 430 406 c 2,25,-1
 430 977 l 1,26,-1
 131 977 l 1,27,-1
 131 1120 l 1,28,-1
 430 1120 l 1,29,-1
 430 1438 l 1,30,-1
 614 1438 l 1,31,-1
 614 1120 l 1,32,-1
 1032 1120 l 1,33,-1
 1032 977 l 1,34,-1
 614 977 l 1,35,-1
 614 406 l 2,7,8
EndSplineSet
EndChar

StartChar: dotlessj
Encoding: 567 567 476
Width: 1233
Flags: W
LayerCount: 2
Back
Fore
SplineSet
600 -20 m 2,0,-1
 600 977 l 1,1,-1
 283 977 l 1,2,-1
 283 1120 l 1,3,-1
 784 1120 l 1,4,-1
 784 -20 l 2,5,6
 784 -215 784 -215 694.5 -320.5 c 128,-1,7
 605 -426 605 -426 440 -426 c 2,8,-1
 186 -426 l 1,9,-1
 186 -270 l 1,10,-1
 420 -270 l 2,11,12
 510 -270 510 -270 555 -207.5 c 128,-1,13
 600 -145 600 -145 600 -20 c 2,0,-1
EndSplineSet
EndChar

StartChar: uni0238
Encoding: 568 568 477
Width: 1233
Flags: W
LayerCount: 2
Back
Fore
SplineSet
237 559 m 128,-1,1
 237 345 237 345 277.5 236 c 128,-1,2
 318 127 318 127 398 127 c 128,-1,3
 478 127 478 127 519.5 237 c 128,-1,4
 561 347 561 347 561 559 c 0,5,6
 561 772 561 772 519.5 881.5 c 128,-1,7
 478 991 478 991 398 991 c 128,-1,8
 318 991 318 991 277.5 882 c 128,-1,0
 237 773 237 773 237 559 c 128,-1,1
996 559 m 128,-1,10
 996 773 996 773 955.5 882 c 128,-1,11
 915 991 915 991 835 991 c 0,12,13
 754 991 754 991 713 881.5 c 128,-1,14
 672 772 672 772 672 559 c 0,15,16
 672 347 672 347 713 237 c 128,-1,17
 754 127 754 127 835 127 c 0,18,19
 915 127 915 127 955.5 236 c 128,-1,9
 996 345 996 345 996 559 c 128,-1,10
672 977 m 1,20,21
 698 1059 698 1059 744.5 1103 c 128,-1,22
 791 1147 791 1147 852 1147 c 0,23,24
 974 1147 974 1147 1043.5 991.5 c 128,-1,25
 1113 836 1113 836 1113 563 c 0,26,27
 1113 286 1113 286 1043 128.5 c 128,-1,28
 973 -29 973 -29 851 -29 c 0,29,30
 791 -29 791 -29 745 14.5 c 128,-1,31
 699 58 699 58 672 141 c 1,32,-1
 672 0 l 1,33,-1
 561 0 l 1,34,-1
 561 141 l 1,35,36
 534 58 534 58 488 14.5 c 128,-1,37
 442 -29 442 -29 382 -29 c 0,38,39
 260 -29 260 -29 190 128.5 c 128,-1,40
 120 286 120 286 120 563 c 0,41,42
 120 836 120 836 190.5 991.5 c 128,-1,43
 261 1147 261 1147 382 1147 c 0,44,45
 442 1147 442 1147 488.5 1103.5 c 128,-1,46
 535 1060 535 1060 561 977 c 1,47,-1
 561 1556 l 1,48,-1
 672 1556 l 1,49,-1
 672 977 l 1,20,21
EndSplineSet
EndChar

StartChar: uni0239
Encoding: 569 569 478
Width: 1233
Flags: W
LayerCount: 2
Back
Fore
SplineSet
996 559 m 128,-1,1
 996 773 996 773 955.5 882 c 128,-1,2
 915 991 915 991 835 991 c 128,-1,3
 755 991 755 991 713.5 881 c 128,-1,4
 672 771 672 771 672 559 c 0,5,6
 672 346 672 346 713.5 236.5 c 128,-1,7
 755 127 755 127 835 127 c 128,-1,8
 915 127 915 127 955.5 236 c 128,-1,0
 996 345 996 345 996 559 c 128,-1,1
237 559 m 128,-1,10
 237 345 237 345 277.5 236 c 128,-1,11
 318 127 318 127 398 127 c 256,12,13
 478 127 478 127 519.5 236.5 c 128,-1,14
 561 346 561 346 561 559 c 0,15,16
 561 771 561 771 519.5 881 c 128,-1,17
 478 991 478 991 398 991 c 256,18,19
 318 991 318 991 277.5 882 c 128,-1,9
 237 773 237 773 237 559 c 128,-1,10
561 141 m 1,20,21
 535 59 535 59 488.5 15 c 128,-1,22
 442 -29 442 -29 381 -29 c 0,23,24
 260 -29 260 -29 190 126.5 c 128,-1,25
 120 282 120 282 120 555 c 0,26,27
 120 832 120 832 190 989.5 c 128,-1,28
 260 1147 260 1147 382 1147 c 0,29,30
 442 1147 442 1147 488 1103.5 c 128,-1,31
 534 1060 534 1060 561 977 c 1,32,-1
 561 1118 l 1,33,-1
 672 1118 l 1,34,-1
 672 977 l 1,35,36
 699 1060 699 1060 745 1103.5 c 128,-1,37
 791 1147 791 1147 851 1147 c 0,38,39
 973 1147 973 1147 1043 989.5 c 128,-1,40
 1113 832 1113 832 1113 555 c 0,41,42
 1113 282 1113 282 1042.5 126.5 c 128,-1,43
 972 -29 972 -29 851 -29 c 0,44,45
 790 -29 790 -29 744 14.5 c 128,-1,46
 698 58 698 58 672 141 c 1,47,-1
 672 -438 l 1,48,-1
 561 -438 l 1,49,-1
 561 141 l 1,20,21
EndSplineSet
EndChar

StartChar: uni023A
Encoding: 570 570 479
Width: 1233
Flags: W
LayerCount: 2
Back
Fore
SplineSet
494 1493 m 1,0,-1
 739 1493 l 1,1,-1
 835 1180 l 1,2,-1
 1100 1559 l 1,3,-1
 1200 1485 l 1,4,-1
 881 1029 l 1,5,-1
 1196 0 l 1,6,-1
 987 0 l 1,7,-1
 877 389 l 1,8,-1
 432 389 l 1,9,-1
 302 203 l 1,10,-1
 246 0 l 1,11,-1
 160 0 l 1,12,-1
 111 -70 l 1,13,-1
 8 0 l 1,14,-1
 60 74 l 1,15,-1
 494 1493 l 1,0,-1
546 551 m 1,16,-1
 829 551 l 1,17,-1
 748 840 l 1,18,-1
 546 551 l 1,16,-1
705 995 m 1,19,-1
 616 1315 l 1,20,-1
 409 572 l 1,21,-1
 705 995 l 1,19,-1
EndSplineSet
EndChar

StartChar: uni023B
Encoding: 571 571 480
Width: 1233
Flags: W
LayerCount: 2
Back
Fore
SplineSet
368 514 m 1,0,-1
 932 1318 l 1,1,-1
 914 1324 l 2,2,3
 829 1356 829 1356 743 1356 c 0,4,5
 546 1356 546 1356 448 1204 c 128,-1,6
 350 1052 350 1052 350 745 c 0,7,8
 350 619 350 619 368 514 c 1,0,-1
1073 53 m 1,9,10
 996 12 996 12 915 -8.5 c 128,-1,11
 834 -29 834 -29 743 -29 c 0,12,13
 456 -29 456 -29 298 174 c 1,14,-1
 289 185 l 1,15,-1
 111 -70 l 1,16,-1
 8 0 l 1,17,-1
 220 303 l 1,18,19
 139 482 139 482 139 745 c 0,20,21
 139 1111 139 1111 298.5 1315.5 c 128,-1,22
 458 1520 458 1520 743 1520 c 0,23,24
 834 1520 834 1520 915 1500 c 0,25,26
 974 1485 974 1485 1030 1459 c 1,27,-1
 1100 1559 l 1,28,-1
 1200 1485 l 1,29,-1
 1073 1304 l 1,30,-1
 1073 1231 l 1,31,32
 1057 1244 1057 1244 1040 1256 c 1,33,-1
 411 358 l 1,34,35
 427 319 427 319 448 287 c 0,36,37
 546 135 546 135 743 135 c 0,38,39
 831 135 831 135 915.5 167 c 128,-1,40
 1000 199 1000 199 1073 260 c 1,41,-1
 1073 53 l 1,9,10
EndSplineSet
EndChar

StartChar: uni023C
Encoding: 572 572 481
Width: 1233
Flags: W
LayerCount: 2
Back
Fore
SplineSet
405 406 m 1,0,-1
 881 973 l 1,1,2
 819 991 819 991 748 991 c 0,3,4
 575 991 575 991 482 879 c 128,-1,5
 389 767 389 767 389 559 c 0,6,7
 389 476 389 476 405 406 c 1,0,-1
1061 57 m 1,8,9
 987 14 987 14 908.5 -7.5 c 128,-1,10
 830 -29 830 -29 748 -29 c 0,11,12
 488 -29 488 -29 342 127 c 1,13,-1
 334 136 l 1,14,-1
 139 -96 l 1,15,-1
 47 -20 l 1,16,-1
 263 238 l 1,17,18
 195 370 195 370 195 559 c 0,19,20
 195 835 195 835 341.5 991 c 128,-1,21
 488 1147 488 1147 748 1147 c 0,22,23
 829 1147 829 1147 906 1126 c 0,24,25
 946 1115 946 1115 986 1098 c 1,26,-1
 1081 1212 l 1,27,-1
 1174 1135 l 1,28,-1
 1061 1001 l 1,29,-1
 1061 868 l 1,30,31
 1027 898 1027 898 994 920 c 1,32,-1
 454 279 l 1,33,34
 467 258 467 258 482 240 c 0,35,36
 576 127 576 127 748 127 c 0,37,38
 844 127 844 127 920 156.5 c 128,-1,39
 996 186 996 186 1061 248 c 1,40,-1
 1061 57 l 1,8,9
EndSplineSet
EndChar

StartChar: uni023D
Encoding: 573 573 482
Width: 1233
Flags: W
LayerCount: 2
Back
Fore
SplineSet
288 1493 m 1,0,-1
 491 1493 l 1,1,-1
 491 747 l 1,2,-1
 754 747 l 1,3,-1
 754 577 l 1,4,-1
 491 577 l 1,5,-1
 491 170 l 1,6,-1
 1212 170 l 1,7,-1
 1212 0 l 1,8,-1
 288 0 l 1,9,-1
 288 577 l 1,10,-1
 21 577 l 1,11,-1
 21 747 l 1,12,-1
 288 747 l 1,13,-1
 288 1493 l 1,0,-1
EndSplineSet
EndChar

StartChar: uni023E
Encoding: 574 574 483
Width: 1233
Flags: W
LayerCount: 2
Back
Fore
SplineSet
717 976 m 1,0,-1
 960 1323 l 1,1,-1
 717 1323 l 1,2,-1
 717 976 l 1,0,-1
514 687 m 1,3,-1
 514 1323 l 1,4,-1
 47 1323 l 1,5,-1
 47 1493 l 1,6,-1
 1079 1493 l 1,7,-1
 1125 1559 l 1,8,-1
 1225 1485 l 1,9,-1
 1186 1429 l 1,10,-1
 1186 1323 l 1,11,-1
 1112 1323 l 1,12,-1
 717 760 l 1,13,-1
 717 0 l 1,14,-1
 514 0 l 1,15,-1
 514 470 l 1,16,-1
 136 -70 l 1,17,-1
 33 0 l 1,18,-1
 514 687 l 1,3,-1
EndSplineSet
EndChar

StartChar: uni023F
Encoding: 575 575 484
Width: 1233
Flags: W
LayerCount: 2
Back
Fore
SplineSet
973 1081 m 1,0,-1
 973 901 l 1,1,2
 894 947 894 947 814 970 c 128,-1,3
 734 993 734 993 651 993 c 0,4,5
 526 993 526 993 464.5 952.5 c 128,-1,6
 403 912 403 912 403 829 c 0,7,8
 403 754 403 754 449 717 c 128,-1,9
 495 680 495 680 678 645 c 2,10,-1
 752 631 l 2,11,12
 889 605 889 605 959.5 527 c 128,-1,13
 1030 449 1030 449 1030 324 c 0,14,15
 1030 158 1030 158 912 64 c 0,16,17
 808 -18 808 -18 632 -28 c 1,18,-1
 784 -180 l 1,19,-1
 931 -306 l 2,20,21
 973 -342 973 -342 1049 -342 c 1,22,-1
 1049 -496 l 1,23,-1
 1010 -496 l 2,24,25
 926 -496 926 -496 812 -435 c 0,26,27
 741 -397 741 -397 652 -306 c 2,28,-1
 415 -63 l 2,29,30
 364 -10 364 -10 263 25 c 2,31,-1
 213 41 l 1,32,-1
 213 231 l 1,33,34
 336 236 336 236 458 140 c 1,35,36
 526 125 526 125 588 125 c 0,37,38
 710 125 710 125 777 174.5 c 128,-1,39
 844 224 844 224 844 313 c 0,40,41
 844 441 844 441 599 490 c 1,42,-1
 591 492 l 1,43,-1
 522 506 l 2,44,45
 361 539 361 539 290 610 c 0,46,47
 217 684 217 684 217 811 c 0,48,49
 217 972 217 972 326 1059.5 c 128,-1,50
 435 1147 435 1147 637 1147 c 0,51,52
 727 1147 727 1147 810 1130.5 c 128,-1,53
 893 1114 893 1114 973 1081 c 1,0,-1
EndSplineSet
EndChar

StartChar: uni0240
Encoding: 576 576 485
Width: 1233
Flags: W
LayerCount: 2
Back
Fore
SplineSet
227 1122 m 1,0,-1
 1040 1122 l 1,1,-1
 1040 954 l 1,2,-1
 378 133 l 1,3,4
 427 116 427 116 459 84 c 2,5,-1
 723 -180 l 1,6,-1
 870 -306 l 2,7,8
 912 -342 912 -342 988 -342 c 2,9,-1
 1040 -342 l 1,10,-1
 1040 -496 l 1,11,-1
 949 -496 l 2,12,13
 865 -496 865 -496 751 -435 c 0,14,15
 680 -397 680 -397 591 -306 c 2,16,-1
 354 -63 l 2,17,18
 293 0 293 0 203 0 c 1,19,-1
 203 156 l 1,20,-1
 203 170 l 1,21,-1
 846 975 l 1,22,-1
 227 975 l 1,23,-1
 227 1122 l 1,0,-1
EndSplineSet
EndChar

StartChar: uni0241
Encoding: 577 577 486
Width: 1233
Flags: W
LayerCount: 2
Back
Fore
SplineSet
374 1327 m 2,0,1
 320 1327 320 1327 260 1280 c 0,2,3
 212 1242 212 1242 212 1128 c 2,4,-1
 212 1079 l 1,5,-1
 56 1079 l 1,6,-1
 56 1149 l 2,7,8
 56 1330 56 1330 152 1411.5 c 128,-1,9
 248 1493 248 1493 374 1493 c 2,10,-1
 669 1493 l 2,11,12
 919 1493 919 1493 1048 1379.5 c 128,-1,13
 1177 1266 1177 1266 1177 1047 c 0,14,15
 1177 826 1177 826 1048.5 713 c 128,-1,16
 920 600 920 600 669 600 c 1,17,-1
 669 0 l 1,18,-1
 467 0 l 1,19,-1
 467 766 l 1,20,-1
 669 766 l 2,21,22
 809 766 809 766 887.5 840 c 128,-1,23
 966 914 966 914 966 1047 c 128,-1,24
 966 1180 966 1180 888 1253.5 c 128,-1,25
 810 1327 810 1327 669 1327 c 2,26,-1
 374 1327 l 2,0,1
EndSplineSet
EndChar

StartChar: uni0244
Encoding: 580 580 487
Width: 1233
Flags: W
LayerCount: 2
Back
Fore
SplineSet
21 577 m 1,0,-1
 21 747 l 1,1,-1
 147 747 l 1,2,-1
 147 1493 l 1,3,-1
 350 1493 l 1,4,-1
 350 747 l 1,5,-1
 883 747 l 1,6,-1
 883 1493 l 1,7,-1
 1085 1493 l 1,8,-1
 1085 747 l 1,9,-1
 1212 747 l 1,10,-1
 1212 577 l 1,11,-1
 1085 577 l 1,12,-1
 1085 573 l 2,13,14
 1085 344 1085 344 1056.5 247.5 c 128,-1,15
 1028 151 1028 151 958 88 c 0,16,17
 892 29 892 29 807 0 c 128,-1,18
 722 -29 722 -29 616 -29 c 0,19,20
 511 -29 511 -29 426 0 c 128,-1,21
 341 29 341 29 274 88 c 0,22,23
 205 150 205 150 176 248.5 c 128,-1,24
 147 347 147 347 147 573 c 2,25,-1
 147 577 l 1,26,-1
 21 577 l 1,0,-1
883 577 m 1,27,-1
 350 577 l 1,28,-1
 350 481 l 2,29,30
 350 372 350 372 356 325.5 c 128,-1,31
 362 279 362 279 377 254 c 0,32,33
 409 195 409 195 469.5 165 c 128,-1,34
 530 135 530 135 616 135 c 0,35,36
 703 135 703 135 763 165 c 128,-1,37
 823 195 823 195 856 254 c 0,38,39
 871 279 871 279 877 325 c 128,-1,40
 883 371 883 371 883 479 c 2,41,-1
 883 577 l 1,27,-1
EndSplineSet
EndChar

StartChar: uni0245
Encoding: 581 581 488
Width: 1233
Flags: W
LayerCount: 2
Back
Fore
SplineSet
617 1323 m 1,0,-1
 266 0 l 1,1,-1
 57 0 l 1,2,-1
 494 1493 l 1,3,-1
 739 1493 l 1,4,-1
 1176 0 l 1,5,-1
 967 0 l 1,6,-1
 617 1323 l 1,0,-1
EndSplineSet
EndChar

StartChar: uni024C
Encoding: 588 588 489
Width: 1233
Flags: W
LayerCount: 2
Back
Fore
SplineSet
227 1493 m 1,0,-1
 559 1493 l 2,1,2
 805 1493 805 1493 936 1382 c 128,-1,3
 1067 1271 1067 1271 1067 1061 c 0,4,5
 1067 913 1067 913 986.5 819.5 c 128,-1,6
 906 726 906 726 760 705 c 1,7,8
 838 685 838 685 893 630 c 0,9,10
 947 575 947 575 1030 408 c 2,11,-1
 1233 0 l 1,12,-1
 1016 0 l 1,13,-1
 838 377 l 2,14,15
 761 538 761 538 699.5 584.5 c 128,-1,16
 638 631 638 631 539 631 c 2,17,-1
 430 631 l 1,18,-1
 430 0 l 1,19,-1
 227 0 l 1,20,-1
 227 631 l 1,21,-1
 21 631 l 1,22,-1
 21 797 l 1,23,-1
 227 797 l 1,24,-1
 227 1493 l 1,0,-1
430 1327 m 1,25,-1
 430 797 l 1,26,-1
 567 797 l 2,27,28
 712 797 712 797 783 862 c 128,-1,29
 854 927 854 927 854 1061 c 0,30,31
 854 1190 854 1190 778.5 1258.5 c 128,-1,32
 703 1327 703 1327 559 1327 c 2,33,-1
 430 1327 l 1,25,-1
EndSplineSet
EndChar

StartChar: uni024D
Encoding: 589 589 490
Width: 1233
Flags: W
LayerCount: 2
Back
Fore
SplineSet
1155 889 m 1,0,1
 1096 935 1096 935 1035 956 c 128,-1,2
 974 977 974 977 901 977 c 0,3,4
 729 977 729 977 638 869 c 0,5,6
 561 777 561 777 549 616 c 1,7,-1
 1062 616 l 1,8,-1
 1062 452 l 1,9,-1
 547 452 l 1,10,-1
 547 0 l 1,11,-1
 362 0 l 1,12,-1
 362 452 l 1,13,-1
 142 452 l 1,14,-1
 142 616 l 1,15,-1
 362 616 l 1,16,-1
 362 1120 l 1,17,-1
 547 1120 l 1,18,-1
 547 901 l 1,19,20
 593 1020 593 1020 688.5 1083.5 c 128,-1,21
 784 1147 784 1147 915 1147 c 0,22,23
 983 1147 983 1147 1042 1130 c 128,-1,24
 1101 1113 1101 1113 1155 1077 c 1,25,-1
 1155 889 l 1,0,1
EndSplineSet
EndChar

StartChar: uni0250
Encoding: 592 592 491
Width: 1233
Flags: W
LayerCount: 2
Back
Fore
SplineSet
510 555 m 1,0,-1
 572 555 l 2,1,2
 732 555 732 555 814 611.5 c 128,-1,3
 896 668 896 668 896 780 c 0,4,5
 896 881 896 881 835 937 c 128,-1,6
 774 993 774 993 666 993 c 0,7,8
 514 993 514 993 426 887.5 c 128,-1,9
 338 782 338 782 338 596 c 2,10,-1
 338 555 l 1,11,-1
 510 555 l 1,0,-1
154 479 m 2,12,-1
 154 1118 l 1,13,-1
 338 1118 l 1,14,-1
 338 952 l 1,15,16
 398 1052 398 1052 487 1099.5 c 128,-1,17
 576 1147 576 1147 704 1147 c 0,18,19
 876 1147 876 1147 978 1050.5 c 128,-1,20
 1080 954 1080 954 1080 792 c 0,21,22
 1080 605 1080 605 954 508 c 128,-1,23
 828 411 828 411 586 411 c 2,24,-1
 338 411 l 1,25,-1
 338 382 l 2,26,27
 338 248 338 248 406 187.5 c 128,-1,28
 474 127 474 127 620 127 c 0,29,30
 714 127 714 127 810 154 c 128,-1,31
 906 181 906 181 998 233 c 1,32,-1
 998 49 l 1,33,34
 896 10 896 10 802 -9.5 c 128,-1,35
 708 -29 708 -29 620 -29 c 0,36,37
 482 -29 482 -29 383 12 c 128,-1,38
 284 53 284 53 224 135 c 0,39,40
 186 185 186 185 170 258.5 c 128,-1,41
 154 332 154 332 154 479 c 2,12,-1
EndSplineSet
EndChar

StartChar: uni0251
Encoding: 593 593 492
Width: 1233
Flags: W
LayerCount: 2
Back
Fore
SplineSet
858 977 m 1,0,-1
 858 1118 l 1,1,-1
 1042 1118 l 1,2,-1
 1042 0 l 1,3,-1
 858 0 l 1,4,-1
 858 141 l 1,5,6
 812 58 812 58 735.5 14.5 c 128,-1,7
 659 -29 659 -29 559 -29 c 0,8,9
 356 -29 356 -29 239.5 128.5 c 128,-1,10
 123 286 123 286 123 563 c 0,11,12
 123 836 123 836 240 991.5 c 128,-1,13
 357 1147 357 1147 559 1147 c 0,14,15
 660 1147 660 1147 737 1103.5 c 128,-1,16
 814 1060 814 1060 858 977 c 1,0,-1
317 559 m 256,17,18
 317 345 317 345 385 236 c 128,-1,19
 453 127 453 127 586 127 c 256,20,21
 719 127 719 127 788.5 237 c 128,-1,22
 858 347 858 347 858 559 c 0,23,24
 858 772 858 772 788.5 881.5 c 128,-1,25
 719 991 719 991 586 991 c 256,26,27
 453 991 453 991 385 882 c 128,-1,28
 317 773 317 773 317 559 c 256,17,18
EndSplineSet
EndChar

StartChar: uni0252
Encoding: 594 594 493
Width: 1233
Flags: W
LayerCount: 2
Back
Fore
SplineSet
917 557 m 256,0,1
 917 771 917 771 849 880 c 128,-1,2
 781 989 781 989 648 989 c 256,3,4
 515 989 515 989 445.5 879 c 128,-1,5
 376 769 376 769 376 557 c 0,6,7
 376 344 376 344 445.5 234.5 c 128,-1,8
 515 125 515 125 648 125 c 256,9,10
 781 125 781 125 849 234 c 128,-1,11
 917 343 917 343 917 557 c 256,0,1
376 975 m 1,12,13
 422 1058 422 1058 498.5 1101.5 c 128,-1,14
 575 1145 575 1145 675 1145 c 0,15,16
 878 1145 878 1145 994.5 987.5 c 128,-1,17
 1111 830 1111 830 1111 553 c 0,18,19
 1111 280 1111 280 994 124.5 c 128,-1,20
 877 -31 877 -31 675 -31 c 0,21,22
 574 -31 574 -31 497 12.5 c 128,-1,23
 420 56 420 56 376 139 c 1,24,-1
 376 0 l 1,25,-1
 192 0 l 1,26,-1
 192 1118 l 1,27,-1
 376 1118 l 1,28,-1
 376 975 l 1,12,13
EndSplineSet
EndChar

StartChar: uni0253
Encoding: 595 595 494
Width: 1233
Flags: W
LayerCount: 2
Back
Fore
SplineSet
918 559 m 256,0,1
 918 773 918 773 850 882 c 128,-1,2
 782 991 782 991 649 991 c 0,3,4
 515 991 515 991 446 881.5 c 128,-1,5
 377 772 377 772 377 559 c 0,6,7
 377 347 377 347 446 237 c 128,-1,8
 515 127 515 127 649 127 c 0,9,10
 782 127 782 127 850 236 c 128,-1,11
 918 345 918 345 918 559 c 256,0,1
377 977 m 1,12,13
 421 1059 421 1059 498.5 1103 c 128,-1,14
 576 1147 576 1147 678 1147 c 0,15,16
 880 1147 880 1147 996 991.5 c 128,-1,17
 1112 836 1112 836 1112 563 c 0,18,19
 1112 286 1112 286 995.5 128.5 c 128,-1,20
 879 -29 879 -29 676 -29 c 0,21,22
 576 -29 576 -29 499.5 14.5 c 128,-1,23
 423 58 423 58 377 141 c 1,24,-1
 377 0 l 1,25,-1
 193 0 l 1,26,-1
 193 1150 l 2,27,28
 193 1345 193 1345 282.5 1450.5 c 128,-1,29
 372 1556 372 1556 537 1556 c 2,30,-1
 741 1556 l 1,31,-1
 741 1400 l 1,32,-1
 557 1400 l 2,33,34
 467 1400 467 1400 422 1337.5 c 128,-1,35
 377 1275 377 1275 377 1150 c 2,36,-1
 377 977 l 1,12,13
EndSplineSet
EndChar

StartChar: uni0254
Encoding: 596 596 495
Width: 1233
Flags: W
LayerCount: 2
Back
Fore
SplineSet
184 1061 m 1,0,1
 258 1104 258 1104 336 1125.5 c 128,-1,2
 414 1147 414 1147 496 1147 c 0,3,4
 756 1147 756 1147 903 991 c 128,-1,5
 1050 835 1050 835 1050 559 c 256,6,7
 1050 283 1050 283 903 127 c 128,-1,8
 756 -29 756 -29 496 -29 c 0,9,10
 416 -29 416 -29 339 -8 c 128,-1,11
 262 13 262 13 184 57 c 1,12,-1
 184 250 l 1,13,14
 256 185 256 185 330 156 c 128,-1,15
 404 127 404 127 496 127 c 0,16,17
 670 127 670 127 763 239 c 128,-1,18
 856 351 856 351 856 559 c 0,19,20
 856 766 856 766 762 878.5 c 128,-1,21
 668 991 668 991 496 991 c 0,22,23
 400 991 400 991 324 961.5 c 128,-1,24
 248 932 248 932 184 870 c 1,25,-1
 184 1061 l 1,0,1
EndSplineSet
EndChar

StartChar: uni0255
Encoding: 597 597 496
Width: 1233
Flags: W
LayerCount: 2
Back
Fore
SplineSet
436 -141 m 1,0,1
 436 -37 436 -37 449 44 c 1,2,3
 392 79 392 79 344 130 c 0,4,5
 195 291 195 291 195 559 c 0,6,7
 195 835 195 835 341.5 991 c 128,-1,8
 488 1147 488 1147 748 1147 c 0,9,10
 829 1147 829 1147 906 1126 c 128,-1,11
 983 1105 983 1105 1061 1061 c 1,12,-1
 1061 868 l 1,13,14
 988 933 988 933 914.5 962 c 128,-1,15
 841 991 841 991 748 991 c 0,16,17
 575 991 575 991 482 879 c 128,-1,18
 389 767 389 767 389 559 c 0,19,20
 389 339 389 339 488 240 c 0,21,22
 495 233 495 233 501 226 c 1,23,24
 586 402 586 402 781 402 c 0,25,26
 1082 402 1082 402 1082 156 c 0,27,28
 1082 -33 1082 -33 748 -33 c 0,29,30
 666 -33 666 -33 595 -16 c 1,31,32
 589 -73 589 -73 589 -141 c 1,33,-1
 436 -141 l 1,0,1
632 146 m 1,34,35
 692 127 692 127 766 127 c 0,36,37
 912 127 912 127 912 184 c 0,38,39
 912 259 912 259 780 259 c 0,40,41
 679 259 679 259 632 146 c 1,34,35
EndSplineSet
EndChar

StartChar: uni0256
Encoding: 598 598 497
Width: 1233
Flags: W
LayerCount: 2
Back
Fore
SplineSet
316 559 m 128,-1,1
 316 345 316 345 370.5 236 c 128,-1,2
 425 127 425 127 531.5 127 c 128,-1,3
 638 127 638 127 694 237 c 128,-1,4
 750 347 750 347 750 559 c 0,5,6
 750 772 750 772 694 881.5 c 128,-1,7
 638 991 638 991 531.5 991 c 128,-1,8
 425 991 425 991 370.5 882 c 128,-1,0
 316 773 316 773 316 559 c 128,-1,1
750 977 m 1,9,-1
 750 1556 l 1,10,-1
 931 1556 l 1,11,-1
 931 -20 l 2,12,13
 931 -146 931 -146 966 -208 c 0,14,15
 1002 -270 1002 -270 1074 -270 c 2,16,-1
 1080 -270 l 1,17,-1
 1080 -426 l 1,18,-1
 1024 -426 l 2,19,20
 892 -426 892 -426 820 -320 c 0,21,22
 749 -215 749 -215 749 -20 c 2,23,-1
 749 141 l 1,24,25
 712 58 712 58 651 14 c 0,26,27
 590 -29 590 -29 510 -29 c 0,28,29
 330 -29 330 -29 226.5 128.5 c 128,-1,30
 123 286 123 286 123 563 c 0,31,32
 123 836 123 836 227 991.5 c 128,-1,33
 331 1147 331 1147 510 1147 c 0,34,35
 591 1147 591 1147 652.5 1103.5 c 128,-1,36
 714 1060 714 1060 750 977 c 1,9,-1
EndSplineSet
EndChar

StartChar: uni0257
Encoding: 599 599 498
Width: 1233
Flags: W
LayerCount: 2
Back
Fore
SplineSet
315 559 m 128,-1,1
 315 345 315 345 369.5 236 c 128,-1,2
 424 127 424 127 530 127 c 0,3,4
 637 127 637 127 692.5 237 c 128,-1,5
 748 347 748 347 748 559 c 0,6,7
 748 772 748 772 692.5 881.5 c 128,-1,8
 637 991 637 991 530 991 c 0,9,10
 424 991 424 991 369.5 882 c 128,-1,0
 315 773 315 773 315 559 c 128,-1,1
748 1002 m 1,11,-1
 748 1150 l 2,12,13
 748 1345 748 1345 819 1450 c 0,14,15
 891 1556 891 1556 1023 1556 c 2,16,-1
 1079 1556 l 1,17,-1
 1079 1400 l 1,18,-1
 1074 1400 l 2,19,20
 1002 1400 1002 1400 966 1338 c 0,21,22
 931 1276 931 1276 931 1150 c 2,23,-1
 931 0 l 1,24,-1
 748 0 l 1,25,-1
 748 141 l 1,26,27
 712 58 712 58 650.5 14.5 c 128,-1,28
 589 -29 589 -29 509 -29 c 0,29,30
 329 -29 329 -29 226 128.5 c 128,-1,31
 123 286 123 286 123 563 c 0,32,33
 123 836 123 836 226.5 991.5 c 128,-1,34
 330 1147 330 1147 509 1147 c 0,35,36
 590 1147 590 1147 651.5 1103.5 c 128,-1,37
 713 1060 713 1060 748 977 c 1,38,-1
 748 1002 l 1,11,-1
EndSplineSet
EndChar

StartChar: uni0258
Encoding: 600 600 499
Width: 1233
Flags: W
LayerCount: 2
Back
Fore
SplineSet
122 606 m 2,0,1
 122 857 122 857 245.5 1002 c 128,-1,2
 369 1147 369 1147 583 1147 c 0,3,4
 823 1147 823 1147 967 987 c 128,-1,5
 1111 827 1111 827 1111 559 c 0,6,7
 1111 284 1111 284 964 127.5 c 128,-1,8
 817 -29 817 -29 556 -29 c 0,9,10
 465 -29 465 -29 367.5 -7.5 c 128,-1,11
 270 14 270 14 165 57 c 1,12,-1
 165 240 l 1,13,14
 274 183 274 183 370 155 c 128,-1,15
 466 127 466 127 554 127 c 0,16,17
 728 127 728 127 823.5 227 c 128,-1,18
 919 327 919 327 919 510 c 2,19,-1
 919 516 l 1,20,-1
 122 516 l 1,21,-1
 122 606 l 2,0,1
306 659 m 1,22,-1
 912 659 l 1,23,24
 896 815 896 815 810 903 c 128,-1,25
 724 991 724 991 591 991 c 0,26,27
 455 991 455 991 380.5 906 c 128,-1,28
 306 821 306 821 306 659 c 1,22,-1
EndSplineSet
EndChar

StartChar: uni0259
Encoding: 601 601 500
Width: 1233
Flags: W
LayerCount: 2
Back
Fore
SplineSet
122 512 m 2,0,-1
 122 602 l 1,1,-1
 919 602 l 1,2,-1
 919 608 l 2,3,4
 919 791 919 791 823.5 891 c 128,-1,5
 728 991 728 991 554 991 c 0,6,7
 466 991 466 991 370 963 c 128,-1,8
 274 935 274 935 165 878 c 1,9,-1
 165 1061 l 1,10,11
 270 1104 270 1104 367.5 1125.5 c 128,-1,12
 465 1147 465 1147 556 1147 c 0,13,14
 817 1147 817 1147 964 990.5 c 128,-1,15
 1111 834 1111 834 1111 559 c 0,16,17
 1111 291 1111 291 967 131 c 128,-1,18
 823 -29 823 -29 583 -29 c 0,19,20
 369 -29 369 -29 245.5 116 c 128,-1,21
 122 261 122 261 122 512 c 2,0,-1
306 459 m 1,22,23
 306 297 306 297 380.5 212 c 128,-1,24
 455 127 455 127 591 127 c 0,25,26
 724 127 724 127 810 215 c 128,-1,27
 896 303 896 303 912 459 c 1,28,-1
 306 459 l 1,22,23
EndSplineSet
EndChar

StartChar: uni025A
Encoding: 602 602 501
Width: 1233
Flags: W
LayerCount: 2
Back
Fore
SplineSet
578 214 m 1,0,1
 654 352 654 352 654 559 c 0,2,3
 654 621 654 621 647 677 c 1,4,-1
 178 321 l 1,5,6
 201 252 201 252 226 217 c 0,7,8
 288 127 288 127 403.5 127 c 128,-1,9
 519 127 519 127 578 214 c 1,0,1
368 1147 m 0,10,11
 620 1147 620 1147 739 915 c 1,12,-1
 893 1032 l 1,13,-1
 1033 1032 l 1,14,-1
 1033 884 l 2,15,16
 1033 731 1033 731 1061.5 682.5 c 128,-1,17
 1090 634 1090 634 1170 634 c 2,18,-1
 1203 634 l 1,19,-1
 1203 478 l 1,20,-1
 1154 478 l 2,21,22
 1022 478 1022 478 957.5 571 c 128,-1,23
 893 664 893 664 893 864 c 1,24,-1
 787 783 l 1,25,26
 810 687 810 687 810 569 c 0,27,28
 810 294 810 294 697 132.5 c 128,-1,29
 584 -29 584 -29 402 -29 c 128,-1,30
 220 -29 220 -29 121 116 c 0,31,32
 50 219 50 219 30 375 c 1,33,-1
 612 818 l 1,34,35
 597 858 597 858 577 892 c 0,36,37
 519 991 519 991 360 991 c 128,-1,38
 201 991 201 991 54 887 c 1,39,-1
 54 1061 l 1,40,41
 208 1147 208 1147 368 1147 c 0,10,11
EndSplineSet
EndChar

StartChar: uni025B
Encoding: 603 603 502
Width: 1233
Flags: W
LayerCount: 2
Back
Fore
SplineSet
449 607 m 1,0,1
 330 632 330 632 265 697 c 0,2,3
 201 761 201 761 201 855 c 0,4,5
 201 989 201 989 323 1068 c 128,-1,6
 445 1147 445 1147 654 1147 c 0,7,8
 735 1147 735 1147 826 1135 c 0,9,10
 918 1123 918 1123 1023 1099 c 1,11,-1
 1023 932 l 1,12,13
 919 959 919 959 832 972 c 0,14,15
 746 984 746 984 670 984 c 0,16,17
 532 984 532 984 458 941 c 128,-1,18
 384 898 384 898 384 824 c 0,19,20
 384 763 384 763 456 720 c 0,21,22
 528 676 528 676 663 676 c 2,23,-1
 829 676 l 1,24,-1
 829 532 l 1,25,-1
 670 532 l 2,26,27
 520 532 520 532 436 477 c 128,-1,28
 352 422 352 422 352 341 c 0,29,30
 352 243 352 243 442 190 c 0,31,32
 533 138 533 138 706 138 c 0,33,34
 805 138 805 138 896 156 c 0,35,36
 987 173 987 173 1064 207 c 1,37,-1
 1064 34 l 1,38,39
 967 6 967 6 877 -8 c 0,40,41
 786 -22 786 -22 700 -22 c 0,42,43
 446 -22 446 -22 307 69 c 0,44,45
 169 161 169 161 169 327 c 0,46,47
 169 436 169 436 243 510 c 128,-1,48
 317 584 317 584 449 607 c 1,0,1
EndSplineSet
EndChar

StartChar: uni025C
Encoding: 604 604 503
Width: 1233
Flags: W
LayerCount: 2
Back
Fore
SplineSet
783 607 m 1,0,1
 915 584 915 584 989.5 510 c 128,-1,2
 1064 436 1064 436 1064 327 c 0,3,4
 1064 161 1064 161 925.5 69.5 c 128,-1,5
 787 -22 787 -22 532 -22 c 0,6,7
 447 -22 447 -22 356 -8 c 128,-1,8
 265 6 265 6 169 34 c 1,9,-1
 169 207 l 1,10,11
 245 173 245 173 336 155.5 c 128,-1,12
 427 138 427 138 527 138 c 0,13,14
 700 138 700 138 790.5 190.5 c 128,-1,15
 881 243 881 243 881 341 c 0,16,17
 881 422 881 422 796.5 477 c 128,-1,18
 712 532 712 532 562 532 c 2,19,-1
 404 532 l 1,20,-1
 404 676 l 1,21,-1
 569 676 l 2,22,23
 705 676 705 676 777 719.5 c 128,-1,24
 849 763 849 763 849 824 c 0,25,26
 849 898 849 898 774.5 941 c 128,-1,27
 700 984 700 984 562 984 c 0,28,29
 487 984 487 984 400.5 971.5 c 128,-1,30
 314 959 314 959 210 932 c 1,31,-1
 210 1099 l 1,32,33
 315 1123 315 1123 406.5 1135 c 128,-1,34
 498 1147 498 1147 578 1147 c 0,35,36
 788 1147 788 1147 910 1068 c 128,-1,37
 1032 989 1032 989 1032 855 c 0,38,39
 1032 761 1032 761 967 696.5 c 128,-1,40
 902 632 902 632 783 607 c 1,0,1
EndSplineSet
EndChar

StartChar: uni025D
Encoding: 605 605 504
Width: 1233
Flags: W
LayerCount: 2
Back
Fore
SplineSet
517 607 m 1,0,1
 616 584 616 584 672 510 c 256,2,3
 728 436 728 436 728 327 c 0,4,5
 728 161 728 161 624 69 c 0,6,7
 520 -22 520 -22 329 -22 c 0,8,9
 265 -22 265 -22 197 -8 c 128,-1,10
 129 6 129 6 57 34 c 1,11,-1
 57 207 l 1,12,13
 114 173 114 173 182 156 c 0,14,15
 250 138 250 138 325 138 c 0,16,17
 455 138 455 138 522 190 c 0,18,19
 591 243 591 243 591 341 c 0,20,21
 591 422 591 422 527 477 c 0,22,23
 464 532 464 532 351 532 c 2,24,-1
 233 532 l 1,25,-1
 233 676 l 1,26,-1
 357 676 l 2,27,28
 459 676 459 676 513 720 c 0,29,30
 567 763 567 763 567 824 c 0,31,32
 567 898 567 898 511 941 c 256,33,34
 455 984 455 984 351 984 c 0,35,36
 295 984 295 984 230 972 c 0,37,38
 165 959 165 959 87 932 c 1,39,-1
 87 1099 l 1,40,41
 166 1123 166 1123 234 1135 c 0,42,43
 303 1147 303 1147 363 1147 c 0,44,45
 521 1147 521 1147 612 1068 c 0,46,47
 687 1003 687 1003 701 901 c 1,48,-1
 870 1032 l 1,49,-1
 1008 1032 l 1,50,-1
 1008 884 l 2,51,52
 1008 731 1008 731 1037 682 c 0,53,54
 1065 634 1065 634 1144 634 c 2,55,-1
 1176 634 l 1,56,-1
 1176 478 l 1,57,-1
 1128 478 l 2,58,59
 997 478 997 478 932 574 c 0,60,61
 871 664 871 664 871 864 c 1,62,-1
 660 702 l 1,63,-1
 660 703 l 1,64,-1
 655 697 l 2,65,66
 606 632 606 632 517 607 c 1,0,1
EndSplineSet
EndChar

StartChar: uni025E
Encoding: 606 606 505
Width: 1233
Flags: W
LayerCount: 2
Back
Fore
SplineSet
670 984 m 0,0,1
 331 984 331 984 331 566 c 0,2,3
 331 119 331 119 670 119 c 0,4,5
 788 119 788 119 848 178 c 0,6,7
 907 237 907 237 907 313 c 256,8,9
 907 389 907 389 848 443 c 0,10,11
 815 473 815 473 676 473 c 2,12,-1
 540 473 l 1,13,-1
 540 630 l 1,14,-1
 676 630 l 2,15,16
 815 630 815 630 848 660 c 0,17,18
 907 715 907 715 907 792 c 128,-1,19
 907 869 907 869 846.5 926.5 c 128,-1,20
 786 984 786 984 670 984 c 0,0,1
451 1099 m 0,21,22
 536 1145 536 1145 697 1145 c 0,23,24
 857 1145 857 1145 957.5 1058.5 c 128,-1,25
 1058 972 1058 972 1058 824 c 0,26,27
 1058 721 1058 721 1004.5 650 c 128,-1,28
 951 579 951 579 853 552 c 1,29,30
 951 524 951 524 1004.5 453 c 128,-1,31
 1058 382 1058 382 1058 279 c 0,32,33
 1058 131 1058 131 956.5 44 c 128,-1,34
 855 -43 855 -43 695 -43 c 0,35,36
 536 -43 536 -43 451 18 c 0,37,38
 176 212 176 212 176 556 c 0,39,40
 176 950 176 950 451 1099 c 0,21,22
EndSplineSet
EndChar

StartChar: uni025F
Encoding: 607 607 506
Width: 1233
Flags: W
LayerCount: 2
Back
Fore
SplineSet
1137 616 m 1,0,-1
 1137 452 l 1,1,-1
 784 452 l 1,2,-1
 784 -20 l 2,3,4
 784 -215 784 -215 694.5 -320.5 c 128,-1,5
 605 -426 605 -426 440 -426 c 2,6,-1
 186 -426 l 1,7,-1
 186 -270 l 1,8,-1
 420 -270 l 2,9,10
 510 -270 510 -270 555 -207.5 c 128,-1,11
 600 -145 600 -145 600 -20 c 2,12,-1
 600 452 l 1,13,-1
 217 452 l 1,14,-1
 217 616 l 1,15,-1
 600 616 l 1,16,-1
 600 975 l 1,17,-1
 283 975 l 1,18,-1
 283 1118 l 1,19,-1
 784 1118 l 1,20,-1
 784 616 l 1,21,-1
 1137 616 l 1,0,-1
EndSplineSet
EndChar

StartChar: uni0260
Encoding: 608 608 507
Width: 1233
Flags: W
LayerCount: 2
Back
Fore
SplineSet
749 1118 m 1,0,-1
 749 1150 l 2,1,2
 749 1345 749 1345 821 1450 c 0,3,4
 893 1556 893 1556 1027 1556 c 2,5,-1
 1076 1556 l 1,6,-1
 1076 1400 l 1,7,-1
 1050 1400 l 2,8,9
 992 1400 992 1400 963 1338 c 0,10,11
 935 1276 935 1276 935 1150 c 2,12,-1
 935 72 l 2,13,14
 935 -179 935 -179 831 -310 c 0,15,16
 727 -440 727 -440 521 -440 c 0,17,18
 459 -440 459 -440 392 -426 c 128,-1,19
 325 -412 325 -412 258 -385 c 1,20,-1
 258 -203 l 1,21,22
 337 -249 337 -249 402 -271 c 128,-1,23
 467 -293 467 -293 521 -293 c 0,24,25
 641 -293 641 -293 696 -212 c 128,-1,26
 751 -131 751 -131 751 45 c 2,27,-1
 751 53 l 1,28,-1
 751 178 l 1,29,30
 716 84 716 84 654.5 38 c 128,-1,31
 593 -8 593 -8 505 -8 c 0,32,33
 331 -8 331 -8 227 149 c 128,-1,34
 123 306 123 306 123 569 c 0,35,36
 123 802 123 802 227 960 c 128,-1,37
 331 1118 331 1118 505 1118 c 2,38,-1
 749 1118 l 1,0,-1
752 569 m 2,39,-1
 752 992 l 1,40,-1
 538 992 l 2,41,42
 429 992 429 992 371.5 884 c 128,-1,43
 314 776 314 776 314 569 c 128,-1,44
 314 362 314 362 371.5 253.5 c 128,-1,45
 429 145 429 145 539 145 c 0,46,47
 642 145 642 145 697 254 c 128,-1,48
 752 363 752 363 752 569 c 2,39,-1
EndSplineSet
EndChar

StartChar: uni0261
Encoding: 609 609 508
Width: 1233
Flags: W
LayerCount: 2
Back
Fore
SplineSet
892 569 m 2,0,-1
 892 992 l 1,1,-1
 628 992 l 2,2,3
 493 992 493 992 422 884 c 128,-1,4
 351 776 351 776 351 569 c 128,-1,5
 351 362 351 362 422.5 253.5 c 128,-1,6
 494 145 494 145 630 145 c 0,7,8
 757 145 757 145 824.5 254 c 128,-1,9
 892 363 892 363 892 569 c 2,0,-1
1076 72 m 2,10,11
 1076 -180 1076 -180 957 -310 c 128,-1,12
 838 -440 838 -440 607 -440 c 0,13,14
 531 -440 531 -440 448 -426 c 128,-1,15
 365 -412 365 -412 282 -385 c 1,16,-1
 282 -203 l 1,17,18
 380 -249 380 -249 460 -271 c 128,-1,19
 540 -293 540 -293 607 -293 c 0,20,21
 756 -293 756 -293 824 -212 c 128,-1,22
 892 -131 892 -131 892 45 c 2,23,-1
 892 53 l 1,24,-1
 892 178 l 1,25,26
 848 84 848 84 772 38 c 128,-1,27
 696 -8 696 -8 587 -8 c 0,28,29
 391 -8 391 -8 274 149 c 128,-1,30
 157 306 157 306 157 569 c 0,31,32
 157 794 157 794 274 959 c 0,33,34
 387 1118 387 1118 587 1118 c 2,35,-1
 1076 1118 l 1,36,-1
 1076 72 l 2,10,11
EndSplineSet
EndChar

StartChar: uni0262
Encoding: 610 610 509
Width: 1233
Flags: W
LayerCount: 2
Back
Fore
SplineSet
946 178 m 1,0,-1
 946 460 l 1,1,-1
 790 460 l 1,2,-1
 790 600 l 1,3,-1
 1112 600 l 1,4,-1
 1112 72 l 1,5,6
 1040 38 1040 38 952 18 c 0,7,8
 874 0 874 0 672 0 c 0,9,10
 420 0 420 0 271 159 c 128,-1,11
 122 318 122 318 122 588 c 0,12,13
 122 862 122 862 272 1019 c 128,-1,14
 422 1176 422 1176 684 1176 c 0,15,16
 746 1176 746 1176 850 1158 c 0,17,18
 954 1141 954 1141 1082 1066 c 1,19,-1
 1082 894 l 1,20,21
 962 971 962 971 850 998 c 0,22,23
 764 1020 764 1020 692 1020 c 0,24,25
 514 1020 514 1020 414 906 c 0,26,27
 316 793 316 793 316 588 c 128,-1,28
 316 383 316 383 414 270 c 0,29,30
 514 156 514 156 692 156 c 0,31,32
 866 156 866 156 946 178 c 1,0,-1
EndSplineSet
EndChar

StartChar: uni0263
Encoding: 611 611 510
Width: 1233
Flags: W
LayerCount: 2
Back
Fore
SplineSet
738 572 m 1,0,1
 1022 144 1022 144 1022 -189 c 0,2,3
 1022 -245 1022 -245 1000.5 -288 c 128,-1,4
 979 -331 979 -331 932.5 -363.5 c 128,-1,5
 886 -396 886 -396 806.5 -413 c 128,-1,6
 727 -430 727 -430 617 -430 c 128,-1,7
 507 -430 507 -430 428 -413 c 128,-1,8
 349 -396 349 -396 302 -363.5 c 128,-1,9
 255 -331 255 -331 233.5 -288 c 128,-1,10
 212 -245 212 -245 212 -189 c 0,11,12
 212 151 212 151 500 579 c 1,13,-1
 102 1118 l 1,14,-1
 320 1118 l 1,15,-1
 622 720 l 1,16,-1
 914 1118 l 1,17,-1
 1130 1118 l 1,18,-1
 738 572 l 1,0,1
610.5 -268 m 128,-1,20
 724 -268 724 -268 772.5 -230 c 128,-1,21
 821 -192 821 -192 821 -123 c 0,22,23
 821 167 821 167 618 452 c 1,24,25
 399 148 399 148 399 -123 c 0,26,27
 399 -192 399 -192 448 -230 c 128,-1,19
 497 -268 497 -268 610.5 -268 c 128,-1,20
EndSplineSet
EndChar

StartChar: uni0264
Encoding: 612 612 511
Width: 1233
Flags: W
LayerCount: 2
Back
Fore
SplineSet
726 575 m 1,0,1
 904 334 904 334 904 167 c 128,-1,2
 904 0 904 0 619 0 c 0,3,4
 316 0 316 0 316 167 c 0,5,6
 316 344 316 344 500 586 c 1,7,-1
 102 1118 l 1,8,-1
 320 1118 l 1,9,-1
 616 721 l 1,10,-1
 914 1118 l 1,11,-1
 1130 1118 l 1,12,-1
 726 575 l 1,0,1
608 440 m 1,13,14
 491 282 491 282 491 223 c 0,15,16
 491 119 491 119 614 119 c 0,17,18
 727 119 727 119 727 223 c 0,19,20
 727 286 727 286 608 440 c 1,13,14
EndSplineSet
EndChar

StartChar: uni0265
Encoding: 613 613 512
Width: 1233
Flags: W
LayerCount: 2
Back
Fore
SplineSet
188 424 m 2,0,-1
 188 1118 l 1,1,-1
 372 1118 l 1,2,-1
 372 424 l 2,3,4
 372 273 372 273 426 202 c 128,-1,5
 480 131 480 131 592 131 c 0,6,7
 722 131 722 131 791 222.5 c 128,-1,8
 860 314 860 314 860 485 c 2,9,-1
 860 1118 l 1,10,-1
 1044 1118 l 1,11,-1
 1044 -430 l 1,12,-1
 860 -430 l 1,13,-1
 860 168 l 1,14,15
 810 71 810 71 726 21 c 128,-1,16
 642 -29 642 -29 528 -29 c 0,17,18
 356 -29 356 -29 272 83.5 c 128,-1,19
 188 196 188 196 188 424 c 2,0,-1
EndSplineSet
EndChar

StartChar: uni0266
Encoding: 614 614 513
Width: 1233
Flags: W
LayerCount: 2
Back
Fore
SplineSet
381 962 m 1,0,-1
 379 952 l 1,1,2
 429 1048 429 1048 513 1097.5 c 128,-1,3
 597 1147 597 1147 711 1147 c 0,4,5
 883 1147 883 1147 967 1034.5 c 128,-1,6
 1051 922 1051 922 1051 694 c 2,7,-1
 1051 0 l 1,8,-1
 867 0 l 1,9,-1
 867 694 l 2,10,11
 867 845 867 845 814 916 c 128,-1,12
 761 987 761 987 647 987 c 0,13,14
 519 987 519 987 449 895.5 c 128,-1,15
 379 804 379 804 379 633 c 2,16,-1
 379 0 l 1,17,-1
 195 0 l 1,18,-1
 195 1002 l 1,19,-1
 195 1150 l 2,20,21
 195 1345 195 1345 285 1450 c 0,22,23
 375 1556 375 1556 539 1556 c 2,24,-1
 745 1556 l 1,25,-1
 745 1400 l 1,26,-1
 559 1400 l 2,27,28
 469 1400 469 1400 425 1338 c 128,-1,29
 381 1276 381 1276 381 1150 c 2,30,-1
 381 962 l 1,0,-1
EndSplineSet
EndChar

StartChar: uni0267
Encoding: 615 615 514
Width: 1233
Flags: W
LayerCount: 2
Back
Fore
SplineSet
381 962 m 1,0,-1
 379 952 l 1,1,2
 428 1048 428 1048 512.5 1097.5 c 128,-1,3
 597 1147 597 1147 711 1147 c 0,4,5
 882 1147 882 1147 966.5 1034.5 c 128,-1,6
 1051 922 1051 922 1051 694 c 2,7,-1
 1051 -20 l 2,8,9
 1051 -215 1051 -215 963 -320 c 0,10,11
 872 -426 872 -426 707 -426 c 2,12,-1
 503 -426 l 1,13,-1
 503 -270 l 1,14,-1
 687 -270 l 2,15,16
 778 -270 778 -270 823 -208 c 0,17,18
 867 -146 867 -146 867 -20 c 2,19,-1
 867 694 l 2,20,21
 867 845 867 845 814 916 c 128,-1,22
 761 987 761 987 647 987 c 0,23,24
 519 987 519 987 449 895.5 c 128,-1,25
 379 804 379 804 379 633 c 2,26,-1
 379 0 l 1,27,-1
 195 0 l 1,28,-1
 195 1002 l 1,29,-1
 195 1150 l 2,30,31
 195 1345 195 1345 285 1450 c 0,32,33
 375 1556 375 1556 539 1556 c 2,34,-1
 745 1556 l 1,35,-1
 745 1400 l 1,36,-1
 559 1400 l 2,37,38
 469 1400 469 1400 425 1338 c 128,-1,39
 381 1276 381 1276 381 1150 c 2,40,-1
 381 962 l 1,0,-1
EndSplineSet
EndChar

StartChar: uni0268
Encoding: 616 616 515
Width: 1233
Flags: W
LayerCount: 2
Back
Fore
SplineSet
524 1556 m 1,0,-1
 708 1556 l 1,1,-1
 708 1323 l 1,2,-1
 524 1323 l 1,3,-1
 524 1556 l 1,0,-1
238 1118 m 1,4,-1
 708 1118 l 1,5,-1
 708 616 l 1,6,-1
 1062 616 l 1,7,-1
 1062 452 l 1,8,-1
 708 452 l 1,9,-1
 708 143 l 1,10,-1
 1074 143 l 1,11,-1
 1074 0 l 1,12,-1
 160 0 l 1,13,-1
 160 143 l 1,14,-1
 524 143 l 1,15,-1
 524 452 l 1,16,-1
 142 452 l 1,17,-1
 142 616 l 1,18,-1
 524 616 l 1,19,-1
 524 977 l 1,20,-1
 238 977 l 1,21,-1
 238 1118 l 1,4,-1
EndSplineSet
EndChar

StartChar: uni0269
Encoding: 617 617 516
Width: 1233
Flags: W
LayerCount: 2
Back
Fore
SplineSet
1034 0 m 1,0,-1
 830 0 l 2,1,2
 664 0 664 0 574 106 c 0,3,4
 486 208 486 208 486 406 c 2,5,-1
 486 977 l 1,6,-1
 198 977 l 1,7,-1
 198 1118 l 1,8,-1
 670 1118 l 1,9,-1
 670 406 l 2,10,11
 670 280 670 280 714 218 c 128,-1,12
 758 156 758 156 848 156 c 2,13,-1
 1034 156 l 1,14,-1
 1034 0 l 1,0,-1
EndSplineSet
EndChar

StartChar: uni026A
Encoding: 618 618 517
Width: 1233
Flags: W
LayerCount: 2
Back
Fore
SplineSet
160 1118 m 1,0,-1
 1074 1118 l 1,1,-1
 1074 977 l 1,2,-1
 708 977 l 1,3,-1
 708 143 l 1,4,-1
 1074 143 l 1,5,-1
 1074 0 l 1,6,-1
 160 0 l 1,7,-1
 160 143 l 1,8,-1
 524 143 l 1,9,-1
 524 977 l 1,10,-1
 160 977 l 1,11,-1
 160 1118 l 1,0,-1
EndSplineSet
EndChar

StartChar: uni026B
Encoding: 619 619 518
Width: 1233
Flags: W
LayerCount: 2
Back
Fore
SplineSet
658 406 m 2,0,1
 658 259 658 259 704 219 c 0,2,3
 776 156 776 156 838 156 c 2,4,-1
 1054 156 l 1,5,-1
 1054 0 l 1,6,-1
 820 0 l 2,7,8
 656 0 656 0 565 106 c 128,-1,9
 474 212 474 212 474 406 c 2,10,-1
 474 604 l 1,11,12
 428 614 428 614 381 614 c 0,13,14
 302 614 302 614 231.5 584.5 c 128,-1,15
 161 555 161 555 88 492 c 1,16,-1
 88 666 l 1,17,18
 166 726 166 726 239 753 c 128,-1,19
 312 780 312 780 395 780 c 0,20,21
 436 780 436 780 474 774 c 1,22,-1
 474 1423 l 1,23,-1
 180 1423 l 1,24,-1
 180 1567 l 1,25,-1
 658 1567 l 1,26,-1
 658 710 l 1,27,28
 772 657 772 657 864 657 c 0,29,30
 934 657 934 657 1002.5 687.5 c 128,-1,31
 1071 718 1071 718 1145 780 c 1,32,-1
 1145 606 l 1,33,34
 1070 547 1070 547 998.5 519.5 c 128,-1,35
 927 492 927 492 848 492 c 0,36,37
 763 492 763 492 658 537 c 1,38,-1
 658 406 l 2,0,1
EndSplineSet
EndChar

StartChar: uni026C
Encoding: 620 620 519
Width: 1233
Flags: W
LayerCount: 2
Back
Fore
SplineSet
682 406 m 2,0,1
 682 282 682 282 727.5 219 c 128,-1,2
 773 156 773 156 862 156 c 2,3,-1
 1076 156 l 1,4,-1
 1076 0 l 1,5,-1
 844 0 l 2,6,7
 679 0 679 0 588.5 106 c 128,-1,8
 498 212 498 212 498 406 c 2,9,-1
 498 626 l 1,10,-1
 436 626 l 2,11,12
 157 626 157 626 157 815 c 0,13,14
 157 1061 157 1061 403 1061 c 0,15,16
 456 1061 456 1061 498 1036 c 1,17,-1
 498 1423 l 1,18,-1
 203 1423 l 1,19,-1
 203 1567 l 1,20,-1
 682 1567 l 1,21,-1
 682 786 l 1,22,-1
 932 786 l 1,23,-1
 932 626 l 1,24,-1
 682 626 l 1,25,-1
 682 406 l 2,0,1
498 786 m 1,26,27
 475 918 475 918 404 918 c 0,28,29
 326 918 326 918 326 843 c 0,30,31
 326 786 326 786 418 786 c 2,32,-1
 498 786 l 1,26,27
EndSplineSet
EndChar

StartChar: uni026D
Encoding: 621 621 520
Width: 1233
Flags: W
LayerCount: 2
Back
Fore
SplineSet
639 -20 m 2,0,1
 639 -144 639 -144 684.5 -207 c 128,-1,2
 730 -270 730 -270 819 -270 c 2,3,-1
 1034 -270 l 1,4,-1
 1034 -426 l 1,5,-1
 801 -426 l 2,6,7
 636 -426 636 -426 545.5 -320 c 128,-1,8
 455 -214 455 -214 455 -20 c 2,9,-1
 455 1423 l 1,10,-1
 160 1423 l 1,11,-1
 160 1567 l 1,12,-1
 639 1567 l 1,13,-1
 639 -20 l 2,0,1
EndSplineSet
EndChar

StartChar: uni026E
Encoding: 622 622 521
Width: 1233
Flags: W
LayerCount: 2
Back
Fore
SplineSet
424 406 m 2,0,1
 424 282 424 282 460 219 c 128,-1,2
 496 156 496 156 568 156 c 2,3,-1
 740 156 l 1,4,-1
 740 0 l 1,5,-1
 553 0 l 2,6,7
 421 0 421 0 348.5 106 c 128,-1,8
 276 212 276 212 276 406 c 2,9,-1
 276 1423 l 1,10,-1
 40 1423 l 1,11,-1
 40 1567 l 1,12,-1
 424 1567 l 1,13,-1
 424 1120 l 1,14,-1
 1122 1120 l 1,15,-1
 1122 952 l 1,16,-1
 793 476 l 1,17,18
 877 476 877 476 980 420 c 0,19,20
 1059 377 1059 377 1128 269 c 0,21,22
 1192 165 1192 165 1192 27 c 0,23,24
 1192 -194 1192 -194 1070.5 -315 c 128,-1,25
 949 -436 949 -436 725 -436 c 0,26,27
 650 -436 650 -436 571 -418 c 0,28,29
 491 -399 491 -399 406 -362 c 1,30,-1
 406 -167 l 1,31,32
 473 -216 473 -216 553 -241 c 128,-1,33
 633 -266 633 -266 720 -266 c 0,34,35
 872 -266 872 -266 952 -191 c 128,-1,36
 1032 -116 1032 -116 1032 27 c 0,37,38
 1032 159 1032 159 958 234 c 0,39,40
 884 308 884 308 752 308 c 2,41,-1
 612 308 l 1,42,-1
 612 474 l 1,43,-1
 956 973 l 1,44,-1
 424 973 l 1,45,-1
 424 406 l 2,0,1
EndSplineSet
EndChar

StartChar: uni026F
Encoding: 623 623 522
Width: 1233
Flags: W
LayerCount: 2
Back
Fore
SplineSet
562 141 m 1,0,1
 528 69 528 69 476 34.5 c 128,-1,2
 424 0 424 0 350 0 c 0,3,4
 214 0 214 0 159 104.5 c 128,-1,5
 104 209 104 209 104 498 c 2,6,-1
 104 1147 l 1,7,-1
 272 1147 l 1,8,-1
 272 506 l 2,9,10
 272 269 272 269 298 211.5 c 128,-1,11
 324 154 324 154 394 154 c 0,12,13
 474 154 474 154 504 215.5 c 128,-1,14
 534 277 534 277 534 506 c 2,15,-1
 534 1147 l 1,16,-1
 702 1147 l 1,17,-1
 702 506 l 2,18,19
 702 266 702 266 730 210 c 128,-1,20
 758 154 758 154 832 154 c 128,-1,21
 906 154 906 154 934 215.5 c 128,-1,22
 962 277 962 277 962 506 c 2,23,-1
 962 1147 l 1,24,-1
 1130 1147 l 1,25,-1
 1130 27 l 1,26,-1
 962 27 l 1,27,-1
 962 123 l 1,28,29
 930 63 930 63 880 31.5 c 128,-1,30
 830 0 830 0 768 0 c 0,31,32
 692 0 692 0 641 35 c 128,-1,33
 590 70 590 70 562 141 c 1,0,1
EndSplineSet
EndChar

StartChar: uni0270
Encoding: 624 624 523
Width: 1233
Flags: W
LayerCount: 2
Back
Fore
SplineSet
562 141 m 1,0,1
 528 69 528 69 476 34.5 c 128,-1,2
 424 0 424 0 350 0 c 0,3,4
 214 0 214 0 159 104.5 c 128,-1,5
 104 209 104 209 104 498 c 2,6,-1
 104 1147 l 1,7,-1
 272 1147 l 1,8,-1
 272 506 l 2,9,10
 272 269 272 269 298 211.5 c 128,-1,11
 324 154 324 154 394 154 c 0,12,13
 474 154 474 154 504 215.5 c 128,-1,14
 534 277 534 277 534 506 c 2,15,-1
 534 1147 l 1,16,-1
 702 1147 l 1,17,-1
 702 506 l 2,18,19
 702 266 702 266 730 210 c 128,-1,20
 758 154 758 154 832 154 c 128,-1,21
 906 154 906 154 934 215.5 c 128,-1,22
 962 277 962 277 962 506 c 2,23,-1
 962 1147 l 1,24,-1
 1130 1147 l 1,25,-1
 1130 -430 l 1,26,-1
 962 -430 l 1,27,-1
 962 123 l 1,28,29
 930 63 930 63 880 31.5 c 128,-1,30
 830 0 830 0 768 0 c 0,31,32
 692 0 692 0 641 35 c 128,-1,33
 590 70 590 70 562 141 c 1,0,1
EndSplineSet
EndChar

StartChar: uni0271
Encoding: 625 625 524
Width: 1233
Flags: W
LayerCount: 2
Back
Fore
SplineSet
670 1006 m 1,0,1
 704 1078 704 1078 756.5 1112.5 c 128,-1,2
 809 1147 809 1147 883 1147 c 0,3,4
 1018 1147 1018 1147 1073.5 1042.5 c 128,-1,5
 1129 938 1129 938 1129 649 c 2,6,-1
 1129 -20 l 2,7,8
 1129 -214 1129 -214 1048.5 -320 c 128,-1,9
 968 -426 968 -426 818 -426 c 2,10,-1
 632 -426 l 1,11,-1
 632 -270 l 1,12,-1
 800 -270 l 2,13,14
 883 -270 883 -270 922 -208 c 128,-1,15
 961 -146 961 -146 961 -20 c 2,16,-1
 961 641 l 2,17,18
 961 878 961 878 934.5 935.5 c 128,-1,19
 908 993 908 993 838 993 c 0,20,21
 758 993 758 993 728.5 931.5 c 128,-1,22
 699 870 699 870 699 641 c 2,23,-1
 699 0 l 1,24,-1
 531 0 l 1,25,-1
 531 641 l 2,26,27
 531 881 531 881 502.5 937 c 128,-1,28
 474 993 474 993 400 993 c 0,29,30
 327 993 327 993 298.5 931.5 c 128,-1,31
 270 870 270 870 270 641 c 2,32,-1
 270 0 l 1,33,-1
 103 0 l 1,34,-1
 103 1118 l 1,35,-1
 270 1118 l 1,36,-1
 270 1024 l 1,37,38
 303 1088 303 1088 352.5 1117.5 c 128,-1,39
 402 1147 402 1147 465 1147 c 0,40,41
 548 1147 548 1147 592 1112 c 0,42,43
 645 1069 645 1069 670 1006 c 1,0,1
EndSplineSet
EndChar

StartChar: uni0272
Encoding: 626 626 525
Width: 1233
Flags: W
LayerCount: 2
Back
Fore
SplineSet
490 -20 m 2,0,1
 490 -234 490 -234 428.5 -330 c 128,-1,2
 367 -426 367 -426 231 -426 c 2,3,-1
 178 -426 l 1,4,-1
 178 -270 l 1,5,-1
 180 -270 l 2,6,7
 248 -270 248 -270 276 -222 c 0,8,9
 304 -173 304 -173 304 -20 c 2,10,-1
 304 1118 l 1,11,-1
 490 1118 l 1,12,-1
 490 946 l 1,13,14
 539 1047 539 1047 607 1097 c 0,15,16
 674 1147 674 1147 761 1147 c 0,17,18
 929 1147 929 1147 1015 1028 c 0,19,20
 1101 908 1101 908 1101 676 c 2,21,-1
 1101 0 l 1,22,-1
 916 0 l 1,23,-1
 916 670 l 2,24,25
 916 829 916 829 870 908 c 128,-1,26
 824 987 824 987 730 987 c 0,27,28
 619 987 619 987 554 892 c 0,29,30
 490 797 490 797 490 633 c 2,31,-1
 490 -20 l 2,0,1
EndSplineSet
EndChar

StartChar: uni0273
Encoding: 627 627 526
Width: 1233
Flags: W
LayerCount: 2
Back
Fore
SplineSet
744 -20 m 2,0,-1
 744 670 l 2,1,2
 744 829 744 829 698 908 c 0,3,4
 651 987 651 987 558 987 c 0,5,6
 446 987 446 987 382 892 c 0,7,8
 317 797 317 797 317 633 c 2,9,-1
 317 0 l 1,10,-1
 136 0 l 1,11,-1
 136 1118 l 1,12,-1
 317 1118 l 1,13,-1
 317 946 l 1,14,15
 367 1047 367 1047 434 1097 c 128,-1,16
 501 1147 501 1147 589 1147 c 0,17,18
 757 1147 757 1147 843 1028 c 0,19,20
 929 908 929 908 929 676 c 2,21,-1
 929 -20 l 2,22,23
 929 -173 929 -173 958 -222 c 0,24,25
 987 -270 987 -270 1050 -270 c 2,26,-1
 1054 -270 l 1,27,-1
 1054 -426 l 1,28,-1
 1002 -426 l 2,29,30
 866 -426 866 -426 806 -330 c 0,31,32
 744 -234 744 -234 744 -20 c 2,0,-1
EndSplineSet
EndChar

StartChar: uni0274
Encoding: 628 628 527
Width: 1233
Flags: W
LayerCount: 2
Back
Fore
SplineSet
144 1147 m 1,0,-1
 416 1147 l 1,1,-1
 893 244 l 1,2,-1
 893 1147 l 1,3,-1
 1089 1147 l 1,4,-1
 1089 0 l 1,5,-1
 817 0 l 1,6,-1
 340 903 l 1,7,-1
 340 0 l 1,8,-1
 144 0 l 1,9,-1
 144 1147 l 1,0,-1
EndSplineSet
EndChar

StartChar: uni0275
Encoding: 629 629 528
Width: 1233
Flags: W
LayerCount: 2
Back
Fore
SplineSet
616 1147 m 128,-1,1
 849 1147 849 1147 972.5 996 c 128,-1,2
 1096 845 1096 845 1096 559 c 0,3,4
 1096 272 1096 272 973 121.5 c 128,-1,5
 850 -29 850 -29 616 -29 c 0,6,7
 383 -29 383 -29 260 121.5 c 128,-1,8
 137 272 137 272 137 559 c 0,9,10
 137 845 137 845 260 996 c 128,-1,0
 383 1147 383 1147 616 1147 c 128,-1,1
616 991 m 0,11,12
 476 991 476 991 404 882 c 0,13,14
 341 787 341 787 333 611 c 1,15,-1
 900 611 l 1,16,17
 892 787 892 787 829 882 c 0,18,19
 757 991 757 991 616 991 c 0,11,12
895 447 m 1,20,-1
 338 447 l 1,21,22
 352 315 352 315 404 236 c 0,23,24
 476 127 476 127 616 127 c 0,25,26
 757 127 757 127 829 236 c 0,27,28
 881 315 881 315 895 447 c 1,20,-1
EndSplineSet
EndChar

StartChar: uni0276
Encoding: 630 630 529
Width: 1233
Flags: W
LayerCount: 2
Back
Fore
SplineSet
1153 1120 m 1,0,-1
 1153 950 l 1,1,-1
 780 950 l 1,2,-1
 780 675 l 1,3,-1
 1136 675 l 1,4,-1
 1136 520 l 1,5,-1
 780 520 l 1,6,-1
 780 172 l 1,7,-1
 1164 172 l 1,8,-1
 1164 0 l 1,9,-1
 564 0 l 2,10,11
 321 0 321 0 195 142 c 0,12,13
 69 285 69 285 69 561 c 0,14,15
 69 835 69 835 195 977 c 0,16,17
 321 1120 321 1120 564 1120 c 2,18,-1
 1153 1120 l 1,0,-1
596 973 m 1,19,-1
 573 973 l 2,20,21
 422 973 422 973 347 869 c 0,22,23
 272 766 272 766 272 559 c 0,24,25
 272 351 272 351 347 247 c 0,26,27
 422 142 422 142 573 142 c 2,28,-1
 596 142 l 1,29,-1
 596 973 l 1,19,-1
EndSplineSet
EndChar

StartChar: uni0277
Encoding: 631 631 530
Width: 1233
Flags: W
LayerCount: 2
Back
Fore
SplineSet
896 510 m 0,0,1
 896 666 896 666 839 779 c 0,2,3
 759 940 759 940 614 940 c 0,4,5
 483 940 483 940 411 829 c 0,6,7
 337 714 337 714 337 483 c 0,8,9
 337 171 337 171 461 171 c 0,10,11
 495 171 495 171 536 250 c 0,12,13
 558 293 558 293 558 478 c 2,14,-1
 558 660 l 1,15,-1
 675 660 l 1,16,-1
 675 478 l 2,17,18
 675 293 675 293 698 250 c 0,19,20
 739 171 739 171 771 171 c 0,21,22
 896 171 896 171 896 510 c 0,0,1
1062 435 m 0,23,24
 1062 264 1062 264 1014 128 c 0,25,26
 959 -30 959 -30 822 -30 c 0,27,28
 727 -30 727 -30 660 92 c 0,29,30
 633 142 633 142 617 243 c 1,31,32
 601 142 601 142 574 92 c 0,33,34
 507 -30 507 -30 412 -30 c 0,35,36
 294 -30 294 -30 226 124 c 0,37,38
 170 248 170 248 170 431 c 0,39,40
 170 686 170 686 234 859 c 0,41,42
 340 1147 340 1147 617 1147 c 0,43,44
 852 1147 852 1147 972 910 c 0,45,46
 1062 734 1062 734 1062 435 c 0,23,24
EndSplineSet
EndChar

StartChar: uni0278
Encoding: 632 632 531
Width: 1233
Flags: W
LayerCount: 2
Back
Fore
SplineSet
532 1391 m 1,0,-1
 292 1391 l 1,1,-1
 292 1555 l 1,2,-1
 956 1555 l 1,3,-1
 956 1391 l 1,4,-1
 716 1391 l 1,5,-1
 716 1139 l 1,6,7
 877 1113 877 1113 972 996 c 0,8,9
 1096 845 1096 845 1096 559 c 0,10,11
 1096 272 1096 272 973 122 c 0,12,13
 878 5 878 5 716 -21 c 1,14,-1
 716 -261 l 1,15,-1
 956 -261 l 1,16,-1
 956 -426 l 1,17,-1
 292 -426 l 1,18,-1
 292 -261 l 1,19,-1
 532 -261 l 1,20,-1
 532 -24 l 1,21,22
 360 -1 360 -1 260 122 c 0,23,24
 137 272 137 272 137 559 c 0,25,26
 137 845 137 845 260 996 c 0,27,28
 360 1119 360 1119 532 1142 c 1,29,-1
 532 1391 l 1,0,-1
716 974 m 1,30,-1
 716 144 l 1,31,32
 785 170 785 170 829 236 c 0,33,34
 901 346 901 346 901 559 c 0,35,36
 901 773 901 773 829 882 c 0,37,38
 785 948 785 948 716 974 c 1,30,-1
532 139 m 1,39,-1
 532 979 l 1,40,41
 453 955 453 955 404 882 c 0,42,43
 332 773 332 773 332 559 c 0,44,45
 332 346 332 346 404 236 c 0,46,47
 453 163 453 163 532 139 c 1,39,-1
EndSplineSet
EndChar

